<svg width="512" height="512" viewBox="0 0 512 512" fill="none" xmlns="http://www.w3.org/2000/svg">
<rect width="512" height="512" rx="86" fill="white"/>
<circle cx="256" cy="256" r="186" fill="#06A9DD"/>
<path d="M255.998 317.534C222.069 317.534 194.466 289.928 194.466 255.998C194.466 248.93 200.197 243.198 207.266 243.198C214.334 243.198 220.066 248.93 220.066 255.998C220.066 275.813 236.184 291.934 255.998 291.934C263.067 291.934 268.798 297.666 268.798 304.734C268.798 311.803 263.067 317.534 255.998 317.534Z" fill="white"/>
<path d="M304.734 268.798C297.666 268.798 291.934 263.067 291.934 255.998C291.934 236.187 275.813 220.066 255.998 220.066C248.93 220.066 243.198 214.334 243.198 207.266C243.198 200.197 248.93 194.466 255.998 194.466C289.931 194.466 317.534 222.069 317.534 255.998C317.534 263.067 311.803 268.798 304.734 268.798Z" fill="white"/>
<path d="M255.998 366.261C195.198 366.261 145.733 316.798 145.733 255.998C145.733 248.93 151.464 243.198 158.533 243.198C165.602 243.198 171.333 248.93 171.333 255.998C171.333 302.683 209.314 340.661 255.998 340.661C263.067 340.661 268.798 346.392 268.798 353.461C268.798 360.53 263.067 366.261 255.998 366.261Z" fill="white"/>
<path d="M353.461 268.798C346.392 268.798 340.661 263.067 340.661 255.998C340.661 209.314 302.683 171.333 255.998 171.333C248.93 171.333 243.198 165.602 243.198 158.533C243.198 151.464 248.93 145.733 255.998 145.733C316.798 145.733 366.261 195.198 366.261 255.998C366.261 263.067 360.53 268.798 353.461 268.798Z" fill="white"/>
<path d="M255.998 415C168.328 415 97 343.669 97 255.998C97 248.93 102.731 243.198 109.8 243.198C116.869 243.198 122.6 248.93 122.6 255.998C122.6 329.554 182.443 389.4 255.998 389.4C263.067 389.4 268.798 395.131 268.798 402.2C268.798 409.269 263.067 415 255.998 415Z" fill="white"/>
<path d="M402.2 268.798C395.131 268.798 389.4 263.067 389.4 255.998C389.4 182.443 329.554 122.6 255.998 122.6C248.93 122.6 243.198 116.869 243.198 109.8C243.198 102.731 248.93 97 255.998 97C343.669 97 415 168.328 415 255.998C415 263.067 409.266 268.798 402.2 268.798Z" fill="white"/>
</svg>
