<svg width="100" height="100" viewBox="0 0 100 100" fill="none" xmlns="http://www.w3.org/2000/svg">
<path d="M75.6252 81.25C74.3752 81.25 73.7502 81.25 72.5002 81.25C62.5002 80.625 50.6252 76.875 38.7502 71.25C13.7502 58.75 -1.24978 39.375 5.00022 27.5C8.12522 21.25 15.6252 18.75 26.8752 19.375C36.8752 20 48.7502 23.75 60.6252 29.375C85.6252 41.875 100.625 61.25 94.3752 73.125C91.8752 78.125 85.0002 81.25 75.6252 81.25ZM24.3752 25C17.5002 25 12.5002 26.875 11.2502 30C7.50022 37.5 19.3752 53.75 42.5002 65C53.1252 70.625 64.3752 73.75 73.7502 74.375C81.8752 75 87.5002 73.125 89.3752 69.375C93.1252 61.875 81.2502 45.625 58.1252 34.375C47.5002 28.75 36.2502 25.625 26.8752 25C25.6252 25 25.0002 25 24.3752 25Z" fill="#7A7A7C"/>
<path d="M49.9998 100C36.8748 100 26.2498 78.125 26.2498 50C26.2498 21.875 36.8748 0 49.9998 0C63.1248 0 73.7498 21.875 73.7498 50C73.7498 78.125 63.1248 100 49.9998 100ZM49.9998 6.25C41.8748 6.25 32.4998 24.375 32.4998 50C32.4998 75.625 41.2498 93.75 49.9998 93.75C58.7498 93.75 67.4998 75.625 67.4998 50C67.4998 24.375 58.1248 6.25 49.9998 6.25Z" fill="#7A7A7C"/>
<path d="M24.3751 81.25C15.0001 81.25 8.1251 78.125 5.6251 73.125C-0.624903 61.25 14.3751 42.5 39.3751 29.375C50.6251 23.75 62.5001 20 73.1251 19.375C84.3751 18.75 91.8751 21.875 95.0001 27.5C101.25 39.375 86.2501 58.125 61.2501 71.25C50.0001 76.875 38.1251 80.625 27.5001 81.25C26.2501 81.25 25.0001 81.25 24.3751 81.25ZM75.6251 25C75.0001 25 73.7501 25 73.1251 25C63.7501 25.625 53.1251 28.75 41.8751 34.375C18.7501 46.25 6.8751 62.5 10.6251 69.375C12.5001 73.125 18.7501 75 26.8751 74.375C36.2501 73.75 46.8751 70.625 58.1251 65C81.2501 53.125 93.1251 36.875 89.3751 30C87.5001 26.875 82.5001 25 75.6251 25Z" fill="#7A7A7C"/>
<path fill-rule="evenodd" clip-rule="evenodd" d="M50 46.875C48.2741 46.875 46.875 48.2741 46.875 50C46.875 51.7259 48.2741 53.125 50 53.125C51.7259 53.125 53.125 51.7259 53.125 50C53.125 48.2741 51.7259 46.875 50 46.875ZM40.625 50C40.625 44.8223 44.8223 40.625 50 40.625C55.1777 40.625 59.375 44.8223 59.375 50C59.375 55.1777 55.1777 59.375 50 59.375C44.8223 59.375 40.625 55.1777 40.625 50Z" fill="#7A7A7C"/>
</svg>
