<svg width="100" height="100" viewBox="0 0 100 100" fill="none" xmlns="http://www.w3.org/2000/svg">
<path d="M0.952401 85.119C0.888422 86.9253 1.18908 88.7259 1.83642 90.4134C2.48376 92.1009 3.46452 93.6406 4.72011 94.9407C5.97571 96.2407 7.48041 97.2744 9.14436 97.98C10.8083 98.6857 12.5974 99.0487 14.4048 99.0476H14.881C16.7015 98.9656 18.4858 98.5114 20.1239 97.7128C21.7619 96.9143 23.2189 95.7884 24.4048 94.4048L75 39.1667H77.0238C79.1671 39.1706 81.2902 38.7521 83.2716 37.935C85.253 37.1179 87.0539 35.9183 88.5715 34.4048C96.9048 26.0714 98.4524 7.14286 98.6905 5L99.0476 0.833336L94.881 1.19048C92.7381 1.42857 73.8095 2.97619 65.4762 11.3095C63.9627 12.827 62.763 14.628 61.946 16.6094C61.1289 18.5908 60.7104 20.7139 60.7143 22.8571C60.7126 23.5335 60.7523 24.2094 60.8333 24.881L5.59526 75.4762C4.20276 76.6803 3.07222 78.1574 2.27361 79.816C1.475 81.4747 1.02532 83.2796 0.952401 85.119V85.119ZM70.5953 16.4286C74.881 12.1429 84.6429 9.88095 91.1905 8.92857C90.2381 15.3571 87.9762 25.119 83.6905 29.5238C82.837 30.3949 81.8183 31.0869 80.694 31.5594C79.5697 32.0318 78.3624 32.2751 77.1429 32.2751C75.9234 32.2751 74.7161 32.0318 73.5918 31.5594C72.4675 31.0869 71.4488 30.3949 70.5953 29.5238V29.5238C69.7242 28.6703 69.0321 27.6516 68.5597 26.5273C68.0873 25.403 67.8439 24.1957 67.8439 22.9762C67.8439 21.7567 68.0873 20.5494 68.5597 19.4251C69.0321 18.3008 69.7242 17.2821 70.5953 16.4286V16.4286ZM65.4762 34.5238C66.2095 35.2307 67.0066 35.8683 67.8572 36.4286L58.3334 46.9048C57.0195 46.6954 55.8054 46.0761 54.8647 45.1353C53.9239 44.1946 53.3046 42.9805 53.0953 41.6667L63.5714 32.1429C64.1317 32.9934 64.7694 33.7905 65.4762 34.5238V34.5238ZM10.3572 80.8333L47.5 46.9048C48.7498 49.2976 50.7024 51.2502 53.0953 52.5L19.1667 89.7619C18.3058 90.6974 17.1824 91.3511 15.9436 91.6372C14.7049 91.9232 13.4086 91.8284 12.2246 91.3651C11.0407 90.9019 10.0243 90.0917 9.3087 89.0409C8.5931 87.9901 8.21163 86.7475 8.21431 85.4762C8.22768 84.5956 8.42525 83.7276 8.79431 82.9279C9.16337 82.1283 9.69574 81.4148 10.3572 80.8333V80.8333Z" fill="#7A7A7C"/>
</svg>
