<svg width="100" height="100" viewBox="0 0 100 100" fill="none" xmlns="http://www.w3.org/2000/svg">
<path fill-rule="evenodd" clip-rule="evenodd" d="M41.5636 5.11915C43.1269 3.55587 45.2576 2.77778 47.5556 2.77778H53.1111C55.409 2.77778 57.5398 3.55587 59.1031 5.11915C60.6663 6.68242 61.4444 8.8132 61.4444 11.1111V25H75.3333C77.6312 25 79.762 25.7781 81.3253 27.3414C82.8886 28.9046 83.6667 31.0354 83.6667 33.3333V38.8889C83.6667 41.1868 82.8886 43.3176 81.3253 44.8809C79.762 46.4441 77.6312 47.2222 75.3333 47.2222H61.4444V88.8889C61.4444 91.1868 60.6663 93.3176 59.1031 94.8809C57.5398 96.4441 55.409 97.2222 53.1111 97.2222H47.5556C45.2576 97.2222 43.1269 96.4441 41.5636 94.8809C40.0003 93.3176 39.2222 91.1868 39.2222 88.8889V47.2222H25.3333C23.0354 47.2222 20.9046 46.4441 19.3414 44.8809C17.7781 43.3176 17 41.1868 17 38.8889V33.3333C17 31.0354 17.7781 28.9046 19.3414 27.3414C20.9046 25.7781 23.0354 25 25.3333 25H39.2222V11.1111C39.2222 8.8132 40.0003 6.68242 41.5636 5.11915ZM45.492 9.04752C45.1108 9.42869 44.7778 10.0757 44.7778 11.1111V30.5556H25.3333C24.2979 30.5556 23.6509 30.8886 23.2697 31.2697C22.8886 31.6509 22.5556 32.2979 22.5556 33.3333V38.8889C22.5556 39.9243 22.8886 40.5713 23.2697 40.9525C23.6509 41.3336 24.2979 41.6667 25.3333 41.6667H44.7778V88.8889C44.7778 89.9243 45.1108 90.5713 45.492 90.9525C45.8731 91.3336 46.5201 91.6667 47.5556 91.6667H53.1111C54.1465 91.6667 54.7935 91.3336 55.1747 90.9525C55.5559 90.5713 55.8889 89.9243 55.8889 88.8889V41.6667H75.3333C76.3688 41.6667 77.0158 41.3336 77.3969 40.9525C77.7781 40.5713 78.1111 39.9243 78.1111 38.8889V33.3333C78.1111 32.2979 77.7781 31.6509 77.3969 31.2697C77.0158 30.8886 76.3688 30.5556 75.3333 30.5556H55.8889V11.1111C55.8889 10.0757 55.5559 9.42869 55.1747 9.04752C54.7935 8.66635 54.1465 8.33333 53.1111 8.33333H47.5556C46.5201 8.33333 45.8731 8.66635 45.492 9.04752Z" fill="#7A7A7C"/>
</svg>
