<svg width="100" height="100" viewBox="0 0 100 100" fill="none" xmlns="http://www.w3.org/2000/svg">
<path d="M22.349 28H6.65078C2.9834 28 0 25.0867 0 21.5057V6.49451C0 2.9133 2.9834 0 6.65078 0H22.349C26.0164 0 29 2.9133 29 6.49451V21.5057C29 25.0867 26.0164 28 22.349 28Z" fill="#7A7A7C"/>
<path d="M93.349 28H77.651C73.9838 28 71 25.0867 71 21.5055V6.49451C71 2.9133 73.9836 0 77.651 0H93.349C97.0164 0 100 2.9133 100 6.49451V21.5057C100 25.0867 97.0164 28 93.349 28Z" fill="#7A7A7C"/>
<path d="M57.5784 28H42.4216C38.8807 28 36 25.0867 36 21.5055V6.49451C36 2.9133 38.8807 0 42.4216 0H57.5784C61.1191 0 64 2.9133 64 6.49451V21.5057C64 25.0867 61.1193 28 57.5784 28Z" fill="#7A7A7C"/>
<path d="M22.349 64H6.65078C2.9834 64 0 61.0867 0 57.5057V42.4945C0 38.9135 2.9834 36 6.65078 36H22.349C26.0164 36 29 38.9133 29 42.4945V57.5057C29 61.0867 26.0164 64 22.349 64Z" fill="#7A7A7C"/>
<path d="M93.349 64H77.651C73.9838 64 71 61.0867 71 57.5057V42.4945C71 38.9135 73.9836 36 77.651 36H93.349C97.0162 36 100 38.9133 100 42.4945V57.5057C100 61.0867 97.0164 64 93.349 64Z" fill="#7A7A7C"/>
<path d="M57.5784 64H42.4216C38.8807 64 36 61.0867 36 57.5057V42.4945C36 38.9135 38.8807 36 42.4216 36H57.5784C61.1191 36 64 38.9133 64 42.4945V57.5057C64 61.0867 61.1193 64 57.5784 64Z" fill="#7A7A7C"/>
<path d="M22.349 100H6.65078C2.9834 100 0 97.0867 0 93.5055V78.4945C0 74.9135 2.9834 72 6.65078 72H22.349C26.0164 72 29 74.9133 29 78.4945V93.5055C29 97.0867 26.0164 100 22.349 100Z" fill="#7A7A7C"/>
<path d="M93.349 100H77.651C73.9838 100 71 97.0867 71 93.5055V78.4945C71 74.9135 73.9836 72 77.651 72H93.349C97.0162 72 100 74.9133 100 78.4945V93.5055C100 97.0867 97.0164 100 93.349 100Z" fill="#7A7A7C"/>
<path d="M57.5784 100H42.4216C38.8807 100 36 97.0867 36 93.5055V78.4945C36 74.9135 38.8807 72 42.4216 72H57.5784C61.1191 72 64 74.9133 64 78.4945V93.5055C64 97.0867 61.1193 100 57.5784 100Z" fill="#7A7A7C"/>
</svg>
