<svg width="100" height="100" viewBox="0 0 100 100" fill="none" xmlns="http://www.w3.org/2000/svg">
<path fill-rule="evenodd" clip-rule="evenodd" d="M16.9358 42.5872C18.1476 41.3754 19.7635 40.8125 21.4111 40.8125H77.6611C79.3088 40.8125 80.9247 41.3754 82.1365 42.5872C83.3483 43.799 83.9111 45.4149 83.9111 47.0625V90.8125C83.9111 92.4602 83.3483 94.076 82.1365 95.2878C80.9247 96.4997 79.3088 97.0625 77.6611 97.0625H58.9111C57.2635 97.0625 55.6476 96.4997 54.4358 95.2878C53.224 94.076 52.6611 92.4602 52.6611 90.8125V72.7088C52.6582 72.6973 52.6505 72.6717 52.632 72.6321C52.5912 72.5445 52.5162 72.4307 52.4045 72.3191C52.2929 72.2075 52.1791 72.1325 52.0916 72.0916C52.052 72.0731 52.0263 72.0654 52.0149 72.0625H47.0574C47.046 72.0654 47.0203 72.0731 46.9807 72.0916C46.8931 72.1325 46.7793 72.2075 46.6677 72.3191C46.5561 72.4307 46.4811 72.5445 46.4402 72.6321C46.4217 72.6717 46.414 72.6973 46.4111 72.7088V90.8125C46.4111 92.4602 45.8483 94.076 44.6365 95.2878C43.4247 96.4997 41.8088 97.0625 40.1611 97.0625H21.4111C19.7635 97.0625 18.1476 96.4997 16.9358 95.2878C15.724 94.076 15.1611 92.4602 15.1611 90.8125V47.0625C15.1611 45.4149 15.724 43.799 16.9358 42.5872ZM77.6611 47.0625H21.4111V90.8125H40.1611V72.6875C40.1611 70.7337 41.1066 69.0414 42.2483 67.8997C43.39 66.758 45.0823 65.8125 47.0361 65.8125H52.0361C53.99 65.8125 55.6823 66.758 56.824 67.8997C57.9657 69.0414 58.9111 70.7337 58.9111 72.6875V90.8125H77.6611V47.0625Z" fill="#7A7A7C"/>
<path fill-rule="evenodd" clip-rule="evenodd" d="M49.212 9.3062L49.2035 9.31469L15.4632 40.5558C15.4003 40.6215 15.3551 40.6775 15.3228 40.7229C15.41 40.7669 15.5557 40.8125 15.7863 40.8125H83.2863C83.5169 40.8125 83.6626 40.7669 83.7498 40.7229C83.7175 40.6775 83.6723 40.6214 83.6094 40.5557L49.8691 9.31469L49.8606 9.3062C49.8543 9.30342 49.846 9.30003 49.8355 9.29623C49.7708 9.27268 49.6657 9.25 49.5363 9.25C49.4069 9.25 49.3018 9.27268 49.2371 9.29623C49.2266 9.30003 49.2183 9.30342 49.212 9.3062ZM54.1953 4.80268C52.8571 3.49645 51.0745 3 49.5363 3C47.9981 3 46.2155 3.49645 44.8773 4.80268L11.1191 36.0603L11.0766 36.1028C9.00033 38.1791 8.40804 41.0125 9.63183 43.46C10.7738 45.744 13.1947 47.0625 15.7863 47.0625H83.2863C85.8779 47.0625 88.2988 45.744 89.4408 43.46C90.6646 41.0125 90.0723 38.1791 87.996 36.1028L87.9535 36.0603L54.1953 4.80268Z" fill="#7A7A7C"/>
</svg>
