<svg width="100" height="100" viewBox="0 0 100 100" fill="none" xmlns="http://www.w3.org/2000/svg">
<g clip-path="url(#clip0)">
<path fill-rule="evenodd" clip-rule="evenodd" d="M21.2857 78.5715C17.3408 78.5715 14.1429 81.7694 14.1429 85.7143C14.1429 89.6592 17.3408 92.8572 21.2857 92.8572C25.2306 92.8572 28.4286 89.6592 28.4286 85.7143C28.4286 81.7694 25.2306 78.5715 21.2857 78.5715ZM7 85.7143C7 77.8245 13.3959 71.4286 21.2857 71.4286C29.1755 71.4286 35.5714 77.8245 35.5714 85.7143C35.5714 93.6041 29.1755 100 21.2857 100C13.3959 100 7 93.6041 7 85.7143Z" fill="#7A7A7C"/>
<path fill-rule="evenodd" clip-rule="evenodd" d="M78.4285 64.2857C74.4836 64.2857 71.2857 67.4837 71.2857 71.4285C71.2857 75.3734 74.4836 78.5714 78.4285 78.5714C82.3734 78.5714 85.5714 75.3734 85.5714 71.4285C85.5714 67.4837 82.3734 64.2857 78.4285 64.2857ZM64.1428 71.4285C64.1428 63.5388 70.5388 57.1428 78.4285 57.1428C86.3183 57.1428 92.7142 63.5388 92.7142 71.4285C92.7142 79.3183 86.3183 85.7143 78.4285 85.7143C70.5388 85.7143 64.1428 79.3183 64.1428 71.4285Z" fill="#7A7A7C"/>
<path fill-rule="evenodd" clip-rule="evenodd" d="M91.3408 0.756441C92.2076 1.43325 92.7143 2.47169 92.7143 3.57146V71.4286C92.7143 73.401 91.1153 75 89.1429 75C87.1704 75 85.5714 73.401 85.5714 71.4286V8.14566L35.5714 20.6457V85.7143C35.5714 87.6867 33.9725 89.2857 32 89.2857C30.0276 89.2857 28.4286 87.6867 28.4286 85.7143V17.8572C28.4286 16.2184 29.5439 14.7898 31.1338 14.3924L88.2767 0.106666C89.3436 -0.160067 90.4739 0.0796303 91.3408 0.756441Z" fill="#7A7A7C"/>
<path fill-rule="evenodd" clip-rule="evenodd" d="M92.6076 27.7053C93.086 29.6188 91.9226 31.5579 90.009 32.0363L32.8662 46.322C30.9527 46.8004 29.0136 45.637 28.5352 43.7234C28.0568 41.8098 29.2203 39.8708 31.1338 39.3924L88.2766 25.1067C90.1902 24.6283 92.1292 25.7917 92.6076 27.7053Z" fill="#7A7A7C"/>
</g>
<defs>
<clipPath id="clip0">
<rect width="100" height="100" fill="white"/>
</clipPath>
</defs>
</svg>
