<svg width="100" height="100" viewBox="0 0 100 100" fill="none" xmlns="http://www.w3.org/2000/svg">
<path fill-rule="evenodd" clip-rule="evenodd" d="M20.0578 6.72731L47.3628 34.0322L51.4739 29.9211L24.1483 2.59557C21.8502 0.297531 18.2655 0.297531 15.9674 2.59557L2.01393 16.5491C-0.284104 18.8471 -0.284104 22.4319 2.01393 24.7299L29.9427 52.077L34.0102 47.9229L6.14601 20.6392L20.0578 6.72731Z" fill="#7A7A7C"/>
<path fill-rule="evenodd" clip-rule="evenodd" d="M93.2723 79.9418L65.386 52.0554L69.4971 47.9444L97.404 75.8513C99.7021 78.1494 99.7021 81.7341 97.404 84.0322L83.4506 97.9857C81.1525 100.284 77.5677 100.284 75.2697 97.9857L75.2481 97.964L75.2482 97.9639L47.9226 70.0569L52.0767 65.9894L79.3605 93.8536L93.2723 79.9418Z" fill="#7A7A7C"/>
<path d="M67.8339 86.4706L73.5894 92.2261L85.5114 80.304L79.7559 74.5486L67.8339 86.4706Z" fill="#7A7A7C"/>
<path d="M55.8682 74.2568L61.6237 80.0123L67.7902 73.8457L62.0348 68.0903L55.8682 74.2568Z" fill="#7A7A7C"/>
<path d="M20.2719 38.2446L26.0273 44.0001L37.9494 32.0781L32.1939 26.3226L20.2719 38.2446Z" fill="#7A7A7C"/>
<path d="M8.30618 26.8531L14.0616 32.6085L20.2282 26.442L14.4727 20.6865L8.30618 26.8531Z" fill="#7A7A7C"/>
<path fill-rule="evenodd" clip-rule="evenodd" d="M82.8281 7.2881C81.6378 6.09777 79.99 6.09777 78.7996 7.2881L75.3113 10.7765C74.176 11.9117 72.3354 11.9117 71.2002 10.7765C70.0649 9.64123 70.0649 7.80064 71.2002 6.66539L74.6886 3.17702C78.1494 -0.283809 83.4784 -0.283809 86.9392 3.17702L96.8229 13.0607C100.284 16.5216 100.284 21.8505 96.8229 25.3114L93.3345 28.7997C92.1993 29.935 90.3587 29.935 89.2234 28.7997C88.0882 27.6645 88.0882 25.8239 89.2234 24.6886L92.7118 21.2003C93.9022 20.0099 93.9022 18.3622 92.7118 17.1718L82.8281 7.2881Z" fill="#7A7A7C"/>
<path fill-rule="evenodd" clip-rule="evenodd" d="M66.6489 11.8195C67.7842 10.6843 69.6248 10.6843 70.76 11.8195L88.4375 29.497C89.5727 30.6323 89.5727 32.4728 88.4375 33.6081L32.9384 89.1072C31.8031 90.2424 29.9626 90.2424 28.8273 89.1072L11.1498 71.4297C10.0146 70.2945 10.0146 68.4539 11.1498 67.3187L66.6489 11.8195ZM68.7045 17.9861L17.3164 69.3742L30.8829 82.9406L82.2709 31.5525L68.7045 17.9861Z" fill="#7A7A7C"/>
<path d="M74.2852 19.6748L17.5527 76.4073L23.3082 82.1627L80.0406 25.4303L74.2852 19.6748Z" fill="#7A7A7C"/>
<path fill-rule="evenodd" clip-rule="evenodd" d="M12.1135 66.359C13.0965 66.1236 14.1313 66.4157 14.8461 67.1305L32.8694 85.1537C33.5842 85.8685 33.8763 86.9033 33.6409 87.8864C33.4054 88.8695 32.6761 89.6596 31.7151 89.973L4.97088 98.694C3.93055 99.0332 2.78785 98.7595 2.01411 97.9858C1.24036 97.212 0.966666 96.0693 1.3059 95.029L10.0268 68.2848C10.3402 67.3237 11.1304 66.5945 12.1135 66.359ZM14.0854 74.5919L8.60678 91.3931L25.4079 85.9145L14.0854 74.5919Z" fill="#7A7A7C"/>
<path d="M6.97656 87.2094L4.06958 95.9304L12.7905 93.0234L6.97656 87.2094Z" fill="#7A7A7C"/>
<path fill-rule="evenodd" clip-rule="evenodd" d="M76.3827 5.41533C77.5662 6.50019 77.6462 8.33905 76.5613 9.52253L72.0467 14.4475L85.5524 27.9532L90.4774 23.4386C91.6608 22.3537 93.4997 22.4337 94.5846 23.6172C95.6694 24.8006 95.5895 26.6395 94.406 27.7244L87.4292 34.1197C86.282 35.1714 84.5099 35.1329 83.4094 34.0324L65.9675 16.5905C64.867 15.49 64.8285 13.7179 65.8802 12.5706L72.2755 5.5939C73.3604 4.41042 75.1992 4.33046 76.3827 5.41533Z" fill="#7A7A7C"/>
</svg>
