<svg width="100" height="100" viewBox="0 0 100 100" fill="none" xmlns="http://www.w3.org/2000/svg">
<path fill-rule="evenodd" clip-rule="evenodd" d="M30.8677 8.95185C29.0366 7.68491 27.5184 8.14149 26.9209 8.73903L9.18034 26.4795C8.52877 27.8183 8.33333 28.3908 8.33333 28.7879V39.3939C8.33333 39.7909 8.52876 40.3635 9.18034 41.7023L10.0414 42.5633C11.8725 43.8302 13.3907 43.3736 13.9882 42.7761L14.0321 42.7322L37.2744 20.2404C38.4125 18.5702 38.2947 16.8387 37.8883 15.9724L30.8677 8.95185ZM21.564 3.38216C25.491 -0.544891 31.4624 -0.0774708 35.6061 3.03029L35.8214 3.19181L43.8527 11.2231L44.0608 11.5352C46.5709 15.3003 46.3005 20.8417 43.1818 25L43.0016 25.2403L19.3205 48.1575C15.3932 52.0581 9.43807 51.5861 5.30302 48.4848L5.08767 48.3233L2.94751 46.1832L2.67262 45.6334C2.63582 45.5598 2.59702 45.4827 2.55657 45.4024C1.88505 44.0691 0.757568 41.8305 0.757568 39.3939V28.7879C0.757568 26.3513 1.88505 24.1127 2.55657 22.7794C2.59702 22.699 2.63582 22.622 2.67262 22.5484L2.94751 21.9986L21.564 3.38216Z" fill="#7A7A7C"/>
<path fill-rule="evenodd" clip-rule="evenodd" d="M60.2543 50.3519L89.7998 79.8973C94.3093 84.4069 94.3093 91.3507 89.7998 95.8603C85.2902 100.37 78.3464 100.37 73.8368 95.8603L44.2914 66.3148L49.6483 60.9579L79.1937 90.5034C80.7447 92.0544 82.8918 92.0544 84.4429 90.5034C85.9939 88.9523 85.9939 86.8052 84.4429 85.2542L54.8974 55.7087L60.2543 50.3519Z" fill="#7A7A7C"/>
<path fill-rule="evenodd" clip-rule="evenodd" d="M34.091 23.4312L49.6482 38.9884L44.2913 44.3453L34.091 34.1449L28.7664 39.4696L39.1175 50.4296L33.6099 55.6313L18.2035 39.3187L34.091 23.4312Z" fill="#7A7A7C"/>
<path fill-rule="evenodd" clip-rule="evenodd" d="M6.41247 67.0185C13.9523 59.4787 25.4416 59.4787 32.9815 67.0185C40.5213 74.5584 40.5213 86.0476 32.9815 93.5875C25.4416 101.127 13.9523 101.127 6.41247 93.5875C-1.1274 86.0476 -1.1274 74.5584 6.41247 67.0185ZM27.6246 72.3754C23.0432 67.7941 16.3507 67.7941 11.7693 72.3754C7.18799 76.9567 7.18799 83.6493 11.7693 88.2306C16.3507 92.812 23.0432 92.812 27.6246 88.2306C32.2059 83.6493 32.2059 76.9567 27.6246 72.3754Z" fill="#7A7A7C"/>
<path fill-rule="evenodd" clip-rule="evenodd" d="M61.3636 18.9396C61.3636 8.51423 69.8777 0.000160217 80.303 0.000160217C83.3294 0.000160217 86.1879 0.980356 88.0576 1.91521C89.1467 2.45973 89.9076 3.49457 90.1026 4.69644C90.2977 5.89831 89.903 7.12066 89.0421 7.98163L81.8182 15.2055V16.6668H84.0371L91.261 9.44294C92.1893 8.51465 93.532 8.1332 94.8097 8.43482C96.0874 8.73644 97.1178 9.67811 97.5329 10.9235C97.5572 10.9966 97.5819 11.0704 97.6068 11.1451C98.3146 13.2647 99.2424 16.0434 99.2424 18.9396C99.2424 29.3649 90.7284 37.879 80.303 37.879C69.8777 37.879 61.3636 29.3649 61.3636 18.9396ZM78.6062 7.70374C73.1596 8.53122 68.9394 13.2744 68.9394 18.9396C68.9394 25.1809 74.0617 30.3032 80.303 30.3032C86.2611 30.3032 91.1993 25.6354 91.6354 19.7823L88.2845 23.1331C87.5741 23.8435 86.6107 24.2426 85.6061 24.2426H78.0303C75.9383 24.2426 74.2424 22.5467 74.2424 20.4547V13.6365C74.2424 12.6319 74.6415 11.6685 75.3519 10.9581L78.6062 7.70374Z" fill="#7A7A7C"/>
<path fill-rule="evenodd" clip-rule="evenodd" d="M67.7829 16.2545L69.5514 22.4443C70.6521 26.2969 74.0859 29.2884 77.7132 30.4975L83.5276 32.4357L32.4357 83.5275L30.4976 77.7131C30.3866 77.3801 30.2865 77.0698 30.192 76.7766C29.9034 75.882 29.6662 75.1463 29.3261 74.4094C28.9036 73.494 28.5206 73.0612 28.2021 72.8488C25.8146 71.2571 23.9836 70.0682 22.2872 69.5027L16.4728 67.5646L67.7829 16.2545ZM29.8638 64.8872C30.6924 65.4034 31.4769 65.9267 32.2018 66.4103C32.2699 66.4557 32.3374 66.5007 32.4043 66.5454C33.7785 67.4615 34.7462 68.6431 35.4478 69.8017L70.1422 35.1073C68.1421 33.7465 66.2998 32.003 64.8403 29.9108L29.8638 64.8872Z" fill="#7A7A7C"/>
<path d="M19.6972 84.8486C22.2076 84.8486 24.2426 82.8136 24.2426 80.3032C24.2426 77.7928 22.2076 75.7577 19.6972 75.7577C17.1868 75.7577 15.1517 77.7928 15.1517 80.3032C15.1517 82.8136 17.1868 84.8486 19.6972 84.8486Z" fill="#7A7A7C"/>
</svg>
