<svg width="100" height="100" viewBox="0 0 100 100" fill="none" xmlns="http://www.w3.org/2000/svg">
<g clip-path="url(#clip0)">
<path d="M91.7778 18.5555C89.1111 16.5555 81.5556 14 49.8889 14C16 14 11 17 9.44444 17.8889C0.888889 23 0 45.8889 0 50.4444C0.111111 56.5555 1.11111 76.8889 9.44444 81.8889C11 82.8889 16 85.7778 49.8889 85.7778C81.5556 85.7778 89 83.2222 91.7778 81.3333C99.1111 76.1111 99.8889 58 100 50.3333C100 44.3333 99.3333 23.8889 91.7778 18.5555ZM88.2222 76.3333C87.1111 77.1111 80.8889 79.6666 50 79.6666C20.1111 79.6666 13.8889 77.3333 12.6667 76.6666C9.66667 74.8889 6.44444 65.2222 6.22222 50.5555C6.44444 35.8888 9.66667 25.1111 12.6667 23.3333C13.8889 22.6666 20.1111 20.2222 50 20.2222C80.8889 20.2222 87.1111 22.7778 88.2222 23.5555C90.8889 25.4444 93.7778 35.6667 93.7778 50.4444C93.6667 65.5555 90.8889 74.4444 88.2222 76.3333ZM70.1111 47.2222L42 30C41 29.4444 39.8889 29.4444 38.8889 30C37.8889 30.5555 37.3333 31.5555 37.3333 32.6667V67.1111C37.3333 68.2222 37.8889 69.2222 38.8889 69.7778C39.3333 70 39.8889 70.2222 40.4444 70.2222C41 70.2222 41.5556 70.1111 42 69.7778L70.1111 52.5556C71 52 71.5556 51 71.5556 49.8889C71.5556 48.8889 71 47.7777 70.1111 47.2222ZM43.5556 61.6666V38.2222L62.4444 49.8889L43.5556 61.6666Z" fill="#7A7A7C"/>
</g>
<defs>
<clipPath id="clip0">
<rect width="100" height="100" fill="white"/>
</clipPath>
</defs>
</svg>
