<!-- Generated by IcoMoon.io -->
<svg version="1.1" xmlns="http://www.w3.org/2000/svg" width="32" height="32" viewBox="0 0 32 32">
<title>fast-forward</title>
<path d="M0.988 4.385c-0.602 0.036-1.076 0.533-1.076 1.141 0 0.001 0 0.001 0 0.002v-0 20.572c0 0.631 0.512 1.142 1.143 1.142 0.217 0 0.419-0.060 0.592-0.165l-0.005 0.003 10.842-6.505v5.525c0 0.631 0.512 1.142 1.143 1.142 0.217 0 0.419-0.060 0.592-0.165l-0.005 0.003 17.143-10.286c0.335-0.203 0.555-0.566 0.555-0.98s-0.22-0.777-0.55-0.977l-0.005-0.003-17.143-10.286c-0.154-0.095-0.339-0.154-0.538-0.163l-0.002-0c-0.014-0.001-0.030-0.001-0.047-0.001-0.631 0-1.143 0.512-1.143 1.143 0 0 0 0.001 0 0.001v-0 5.525l-10.842-6.505c-0.154-0.095-0.339-0.154-0.538-0.163l-0.002-0c-0.017-0.001-0.037-0.001-0.057-0.001s-0.040 0-0.060 0.002l0.003-0zM2.198 7.546l10.286 6.172v4.192l-10.286 6.172zM14.77 7.546l13.78 8.268-13.78 8.268z"></path>
</svg>
