<!-- Generated by IcoMoon.io -->
<svg version="1.1" xmlns="http://www.w3.org/2000/svg" width="32" height="32" viewBox="0 0 32 32">
<title>pause</title>
<path d="M6.722-0.471c-0.631 0-1.143 0.512-1.143 1.143v0 29.714c0 0.631 0.512 1.143 1.143 1.143h6.857c0.631-0 1.143-0.512 1.143-1.143v0-29.714c-0-0.631-0.512-1.143-1.143-1.143v0zM20.436-0.471c-0.631 0-1.143 0.512-1.143 1.143v0 29.714c0 0.631 0.512 1.143 1.143 1.143h6.857c0.631-0 1.143-0.512 1.143-1.143v0-29.714c-0-0.631-0.512-1.143-1.143-1.143v0zM7.865 1.814h4.571v27.429h-4.571zM21.579 1.814h4.571v27.429h-4.571z"></path>
</svg>
