<svg aria-hidden="true" style="position: absolute; width: 0; height: 0; overflow: hidden;" version="1.1" xmlns="http://www.w3.org/2000/svg" xmlns:xlink="http://www.w3.org/1999/xlink">
<defs>
<symbol id="icon-atom" viewBox="0 0 32 32">
<title>atom</title>
<path d="M24.2 26c-0.4 0-0.6 0-1 0-3.2-0.2-7-1.4-10.8-3.2-8-4-12.8-10.2-10.8-14 1-2 3.4-2.8 7-2.6 3.2 0.2 7 1.4 10.8 3.2 8 4 12.8 10.2 10.8 14-0.8 1.6-3 2.6-6 2.6zM7.8 8c-2.2 0-3.8 0.6-4.2 1.6-1.2 2.4 2.6 7.6 10 11.2 3.4 1.8 7 2.8 10 3 2.6 0.2 4.4-0.4 5-1.6 1.2-2.4-2.6-7.6-10-11.2-3.4-1.8-7-2.8-10-3-0.4 0-0.6 0-0.8 0z"></path>
<path d="M16 32c-4.2 0-7.6-7-7.6-16s3.4-16 7.6-16c4.2 0 7.6 7 7.6 16s-3.4 16-7.6 16zM16 2c-2.6 0-5.6 5.8-5.6 14s2.8 14 5.6 14c2.8 0 5.6-5.8 5.6-14s-3-14-5.6-14z"></path>
<path d="M7.8 26c-3 0-5.2-1-6-2.6-2-3.8 2.8-9.8 10.8-14 3.6-1.8 7.4-3 10.8-3.2 3.6-0.2 6 0.8 7 2.6 2 3.8-2.8 9.8-10.8 14-3.6 1.8-7.4 3-10.8 3.2-0.4 0-0.8 0-1 0zM24.2 8c-0.2 0-0.6 0-0.8 0-3 0.2-6.4 1.2-10 3-7.4 3.8-11.2 9-10 11.2 0.6 1.2 2.6 1.8 5.2 1.6 3-0.2 6.4-1.2 10-3 7.4-3.8 11.2-9 10-11.2-0.6-1-2.2-1.6-4.4-1.6z"></path>
<path d="M16 15c-0.552 0-1 0.448-1 1s0.448 1 1 1c0.552 0 1-0.448 1-1s-0.448-1-1-1zM13 16c0-1.657 1.343-3 3-3s3 1.343 3 3c0 1.657-1.343 3-3 3s-3-1.343-3-3z"></path>
</symbol>
<symbol id="icon-badge" viewBox="0 0 32 32">
<title>badge</title>
<path d="M14.469 0.478c0.984-0.642 2.276-0.637 3.255 0.016l0.024 0.016 0.023 0.018c1.463 1.097 3.544 1.687 5.694 1.687 0.863 0 1.577-0.005 2.275-0.179l0.041-0.010 0.042-0.007c1.89-0.315 3.758 1.214 3.758 3.149v13.918h-2.109v-13.918c0-0.586-0.641-1.156-1.271-1.074-0.953 0.23-1.888 0.23-2.688 0.23h-0.048c-2.477 0-5.022-0.669-6.93-2.087-0.277-0.173-0.648-0.169-0.92 0.012l-0.021 0.014-0.022 0.013c-2.235 1.341-4.319 2.048-6.869 2.048-0.025 0-0.051 0-0.077 0-0.997 0-2.16 0-3.131-0.242l-0.039-0.010-0.038-0.013c-0.254-0.085-0.51-0.032-0.731 0.152-0.227 0.19-0.411 0.522-0.411 0.956v14.129h-2.109v-14.129c0-2.009 1.789-3.785 3.874-3.124 0.687 0.165 1.586 0.171 2.664 0.171 2.083 0 3.791-0.555 5.765-1.736z"></path>
<path d="M2.167 10.016h2.109v12.231c0 1.251 0.588 2.189 1.773 2.871l8.408 4.414c0.965 0.48 1.878 0.478 2.844-0.004l8.491-4.244c1.025-0.439 1.681-1.487 1.681-2.827v-12.442h2.109v12.442c0 2.024-1.020 3.919-2.928 4.752l-8.409 4.204c-1.562 0.781-3.177 0.781-4.739 0l-0.019-0.009-8.468-4.447c-1.757-1.004-2.851-2.594-2.851-4.711v-12.231z"></path>
<path d="M16.032 11.847l-0.979 1.957-0.121 0.121c-0.003 0.003-0.007 0.007-0.010 0.010-0.105 0.105-0.314 0.315-0.571 0.498-0.232 0.165-0.632 0.406-1.133 0.431l-1.74 0.232 1.037 1.037c0.401 0.258 0.627 0.627 0.734 1.001 0.095 0.331 0.094 0.676 0.093 0.861-0 0.012-0 0.024-0 0.035v0.104l-0.394 1.972 1.821-0.91c0.719-0.359 1.49-0.359 2.208 0l1.821 0.91-0.394-1.972v-0.104c0-0.72 0.335-1.405 0.731-1.8l1.344-1.344-1.734-0.231c-0.739-0.026-1.517-0.415-1.917-1.214l-0.797-1.593zM15.693 8.851c0.52-0.104 1.025 0.098 1.348 0.42l0.121 0.121 1.553 3.105c0.005 0.010 0.010 0.016 0.013 0.019s0.008 0.007 0.016 0.012c0.016 0.009 0.045 0.019 0.083 0.019h0.070l3.181 0.424c0.259 0.014 0.542 0.091 0.793 0.284 0.284 0.217 0.439 0.514 0.496 0.799 0.104 0.52-0.098 1.025-0.42 1.348l-2.317 2.317c-0.001 0.001-0.008 0.010-0.020 0.027-0.015 0.024-0.033 0.055-0.049 0.093-0.020 0.046-0.032 0.088-0.039 0.124l0.625 3.126v0.104c0 0.315-0.068 0.908-0.58 1.292-0.58 0.435-1.225 0.25-1.579 0.073l-2.952-1.476c-0.125-0.062-0.197-0.062-0.322 0l-2.848 1.424c-0.511 0.37-1.13 0.269-1.513 0.039-0.45-0.27-0.749-0.772-0.749-1.352v-0.104l0.632-3.162c-0-0.036-0.001-0.067-0.002-0.095l-2.128-2.128c-0.196-0.131-0.381-0.317-0.502-0.572-0.165-0.346-0.164-0.726-0.034-1.053 0.236-0.59 0.801-0.869 1.312-0.897l3.182-0.424c0.015-0.009 0.037-0.022 0.063-0.041 0.066-0.047 0.13-0.104 0.197-0.167l1.316-2.632c0.039-0.193 0.118-0.391 0.256-0.572 0.217-0.284 0.514-0.439 0.799-0.496z"></path>
</symbol>
<symbol id="icon-briefcase" viewBox="0 0 32 32">
<title>briefcase</title>
<path d="M23.424 10.155h-2.133v-2.133c0-1.707-1.493-3.2-3.2-3.2h-4.267c-1.707 0-3.2 1.493-3.2 3.2v2.133h-2.133v-2.133c0-2.987 2.347-5.333 5.333-5.333h4.267c2.987 0 5.333 2.347 5.333 5.333v2.133z"></path>
<path d="M-0.043 11.435c0-1.731 1.202-3.413 3.2-3.413h25.6c1.998 0 3.2 1.682 3.2 3.413v14.933c0 1.729-1.407 2.987-3.2 2.987h-25.6c-1.793 0-3.2-1.258-3.2-2.987v-14.933zM3.157 10.155c-0.562 0-1.067 0.451-1.067 1.28v14.933c0 0.404 0.3 0.853 1.067 0.853h25.6c0.767 0 1.067-0.449 1.067-0.853v-14.933c0-0.829-0.505-1.28-1.067-1.28h-25.6z"></path>
</symbol>
<symbol id="icon-brush" viewBox="0 0 32 32">
<title>brush</title>
<path d="M0.305 27.238c-0.020 0.578 0.076 1.154 0.283 1.694s0.521 1.033 0.923 1.449c0.402 0.416 0.883 0.747 1.416 0.973s1.105 0.342 1.683 0.342h0.152c0.583-0.026 1.154-0.172 1.678-0.427s0.99-0.616 1.37-1.059l16.19-17.676h0.648c0.686 0.001 1.365-0.133 1.999-0.394s1.21-0.645 1.696-1.13c2.667-2.667 3.162-8.724 3.238-9.41l0.114-1.333-1.333 0.114c-0.686 0.076-6.743 0.571-9.41 3.238-0.484 0.486-0.868 1.062-1.13 1.696s-0.395 1.313-0.394 1.999c-0.001 0.216 0.012 0.433 0.038 0.648l-17.676 16.19c-0.446 0.385-0.807 0.858-1.063 1.389s-0.399 1.108-0.423 1.697v0zM22.59 5.257c1.371-1.371 4.495-2.095 6.59-2.4-0.305 2.057-1.029 5.181-2.4 6.59-0.273 0.279-0.599 0.5-0.959 0.651s-0.746 0.229-1.136 0.229-0.777-0.078-1.136-0.229c-0.36-0.151-0.686-0.373-0.959-0.651v0c-0.279-0.273-0.5-0.599-0.651-0.959s-0.229-0.746-0.229-1.136c0-0.39 0.078-0.777 0.229-1.136s0.373-0.686 0.651-0.959v0zM20.952 11.048c0.235 0.226 0.49 0.43 0.762 0.61l-3.048 3.352c-0.42-0.067-0.809-0.265-1.11-0.566s-0.499-0.69-0.566-1.11l3.352-3.048c0.179 0.272 0.383 0.527 0.61 0.762v0zM3.314 25.867l11.886-10.857c0.4 0.766 1.025 1.391 1.791 1.79l-10.857 11.924c-0.276 0.299-0.635 0.509-1.031 0.6s-0.811 0.061-1.19-0.087c-0.379-0.148-0.704-0.407-0.933-0.744s-0.351-0.734-0.35-1.141c0.004-0.282 0.067-0.56 0.186-0.815s0.288-0.484 0.5-0.67v0z"></path>
</symbol>
<symbol id="icon-chart" viewBox="0 0 32 32">
<title>chart</title>
<path d="M13.5 7.647c-4.4 0.352-7.979 3.293-9.287 7.379l-0.006 0.020-0-0c-1.458 4.212 0.32 9.141 4.112 11.78l0.015 0.011-0 0c3.59 2.611 8.318 2.622 11.921 0.185l-6.361-8.128c-0.395-0.428-0.394-0.899-0.393-1.096 0-0.007 0-0.013 0-0.019v-10.131zM14.773 6.283c0.311 0.311 0.505 0.755 0.505 1.184v10.311l6.363 8.13c0.408 0.443 0.454 1.017 0.379 1.429-0.070 0.386-0.295 0.887-0.767 1.157-4.208 2.846-9.748 2.842-13.956-0.213-4.377-3.050-6.507-8.778-4.773-13.805 1.524-4.749 5.695-8.182 10.82-8.599 0.589-0.147 1.103 0.079 1.43 0.406z"></path>
<path d="M26.027 10.597c1.594 2.12 2.401 4.719 2.407 7.331-0.168 2.564-1.449 5.156-3.38 6.957l-5.886-7.492c0.005-0.025 0.013-0.059 0.027-0.1 0.007-0.020 0.014-0.040 0.023-0.061l6.81-6.635zM27.4 9.465c-0.325-0.539-0.93-0.665-1.299-0.665-0.43 0-0.937 0.15-1.313 0.522l-7.038 6.857-0.067 0.134c-0.108 0.216-0.251 0.551-0.289 0.931-0.039 0.388 0.031 0.883 0.412 1.294l5.821 7.409c0.294 0.425 0.727 0.729 1.251 0.781 0.521 0.052 0.99-0.159 1.324-0.485 2.285-2.101 3.815-5.151 4.008-8.233l0.002-0.028v-0.028c0-3.006-0.932-6.023-2.812-8.491z"></path>
<path d="M18.478 3.544v7.834c0 0.021 0.003 0.032 0.004 0.035s0.002 0.005 0.003 0.006 0.012 0.014 0.035 0.023c0.021 0.009 0.040 0.010 0.052 0.009l5.845-5.668c-1.643-1.29-3.734-2.235-5.783-2.404-0.018 0.002-0.027 0.005-0.031 0.006-0.006 0.002-0.014 0.006-0.027 0.017-0.020 0.018-0.057 0.060-0.096 0.142zM16.746 3.097c0.252-0.757 0.865-1.497 1.91-1.497h0.034l0.034 0.003c2.523 0.194 5 1.349 6.887 2.859l0.038 0.031 0.035 0.035c0.703 0.703 0.703 1.799 0 2.502l-0.010 0.010-5.863 5.685c-0.561 0.556-1.353 0.609-1.953 0.369-0.63-0.252-1.159-0.864-1.159-1.714v-8.144l0.046-0.137z"></path>
</symbol>
<symbol id="icon-computer" viewBox="0 0 32 32">
<title>computer</title>
<path d="M2.58 3.86c-0.157 0.157-0.294 0.423-0.294 0.849v16c0 0.426 0.137 0.692 0.294 0.849s0.423 0.294 0.849 0.294h25.143c0.426 0 0.692-0.137 0.849-0.294s0.294-0.423 0.294-0.849v-16c0-0.426-0.137-0.692-0.294-0.849s-0.423-0.294-0.849-0.294h-25.143c-0.426 0-0.692 0.137-0.849 0.294zM0.963 2.243c0.643-0.643 1.52-0.963 2.465-0.963h25.143c0.945 0 1.822 0.32 2.465 0.963s0.963 1.52 0.963 2.465v16c0 0.945-0.32 1.822-0.963 2.465s-1.52 0.963-2.465 0.963h-25.143c-0.945 0-1.822-0.32-2.465-0.963s-0.963-1.52-0.963-2.465v-16c0-0.945 0.32-1.822 0.963-2.465z"></path>
<path d="M11.429 22.994c0-0.631 0.512-1.143 1.143-1.143h6.857c0.631 0 1.143 0.512 1.143 1.143v6.857c0 0.631-0.512 1.143-1.143 1.143h-6.857c-0.631 0-1.143-0.512-1.143-1.143v-6.857zM13.714 24.137v4.571h4.571v-4.571h-4.571z"></path>
<path d="M6.857 29.851c0-0.631 0.512-1.143 1.143-1.143h16c0.631 0 1.143 0.512 1.143 1.143s-0.512 1.143-1.143 1.143h-16c-0.631 0-1.143-0.512-1.143-1.143z"></path>
<path d="M29.714 19.566h-29.714v-2.286h29.714v2.286z"></path>
</symbol>
<symbol id="icon-cross" viewBox="0 0 32 32">
<title>cross</title>
<path d="M13.3 1.638c0.5-0.5 1.182-0.749 1.917-0.749h1.778c0.735 0 1.417 0.249 1.917 0.749s0.749 1.182 0.749 1.917v4.444h4.444c0.735 0 1.417 0.249 1.917 0.749s0.749 1.182 0.749 1.917v1.778c0 0.735-0.249 1.417-0.749 1.917s-1.182 0.749-1.917 0.749h-4.444v13.333c0 0.735-0.249 1.417-0.749 1.917s-1.182 0.749-1.917 0.749h-1.778c-0.735 0-1.417-0.249-1.917-0.749s-0.749-1.182-0.749-1.917v-13.333h-4.444c-0.735 0-1.417-0.249-1.917-0.749s-0.749-1.182-0.749-1.917v-1.778c0-0.735 0.249-1.417 0.749-1.917s1.182-0.749 1.917-0.749h4.444v-4.444c0-0.735 0.249-1.417 0.749-1.917zM14.557 2.895c-0.122 0.122-0.229 0.329-0.229 0.66v6.222h-6.222c-0.331 0-0.538 0.107-0.66 0.229s-0.229 0.329-0.229 0.66v1.778c0 0.331 0.107 0.538 0.229 0.66s0.329 0.229 0.66 0.229h6.222v15.111c0 0.331 0.107 0.538 0.229 0.66s0.329 0.229 0.66 0.229h1.778c0.331 0 0.538-0.107 0.66-0.229s0.229-0.329 0.229-0.66v-15.111h6.222c0.331 0 0.538-0.107 0.66-0.229s0.229-0.329 0.229-0.66v-1.778c0-0.331-0.107-0.538-0.229-0.66s-0.329-0.229-0.66-0.229h-6.222v-6.222c0-0.331-0.107-0.538-0.229-0.66s-0.329-0.229-0.66-0.229h-1.778c-0.331 0-0.538 0.107-0.66 0.229z"></path>
</symbol>
<symbol id="icon-fast-forward" viewBox="0 0 32 32">
<title>fast-forward</title>
<path d="M0.988 4.385c-0.602 0.036-1.076 0.533-1.076 1.141 0 0.001 0 0.001 0 0.002v-0 20.572c0 0.631 0.512 1.142 1.143 1.142 0.217 0 0.419-0.060 0.592-0.165l-0.005 0.003 10.842-6.505v5.525c0 0.631 0.512 1.142 1.143 1.142 0.217 0 0.419-0.060 0.592-0.165l-0.005 0.003 17.143-10.286c0.335-0.203 0.555-0.566 0.555-0.98s-0.22-0.777-0.55-0.977l-0.005-0.003-17.143-10.286c-0.154-0.095-0.339-0.154-0.538-0.163l-0.002-0c-0.014-0.001-0.030-0.001-0.047-0.001-0.631 0-1.143 0.512-1.143 1.143 0 0 0 0.001 0 0.001v-0 5.525l-10.842-6.505c-0.154-0.095-0.339-0.154-0.538-0.163l-0.002-0c-0.017-0.001-0.037-0.001-0.057-0.001s-0.040 0-0.060 0.002l0.003-0zM2.198 7.546l10.286 6.172v4.192l-10.286 6.172zM14.77 7.546l13.78 8.268-13.78 8.268z"></path>
</symbol>
<symbol id="icon-gamepad" viewBox="0 0 32 32">
<title>gamepad</title>
<path d="M29.947 15.991c0 0.341-0.023 0.681-0.067 1.019 0.013-0.090 0.023-0.177 0.037-0.267-0.090 0.668-0.271 1.323-0.531 1.944 0.033-0.080 0.067-0.16 0.1-0.241-0.147 0.344-0.317 0.678-0.511 0.995-0.1 0.16-0.204 0.321-0.314 0.474-0.027 0.037-0.050 0.070-0.077 0.107-0.107 0.147 0.090-0.114 0.050-0.063-0.063 0.080-0.127 0.16-0.194 0.237-0.241 0.284-0.501 0.548-0.778 0.792-0.067 0.057-0.13 0.114-0.2 0.17-0.040 0.033-0.080 0.063-0.12 0.097-0.077 0.063 0.127-0.107 0.117-0.090-0.010 0.020-0.053 0.040-0.070 0.053-0.147 0.11-0.297 0.214-0.448 0.311-0.364 0.234-0.748 0.434-1.146 0.605 0.080-0.033 0.16-0.067 0.24-0.1-0.625 0.261-1.276 0.438-1.944 0.528 0.090-0.013 0.177-0.023 0.267-0.037-0.678 0.087-1.363 0.087-2.041 0 0.090 0.013 0.177 0.023 0.267 0.037-0.658-0.090-1.299-0.267-1.911-0.521 0.080 0.033 0.16 0.067 0.24 0.1-0.441-0.187-0.862-0.411-1.263-0.678-0.1-0.067-0.197-0.134-0.291-0.204-0.033-0.023-0.207-0.157-0.060-0.043s-0.047-0.040-0.077-0.063c-0.184-0.15-0.357-0.311-0.528-0.478-0.311-0.307-0.551-0.628-1.042-0.645-0.033 0-0.067 0-0.097 0-0.197 0-0.394 0-0.591 0-0.591 0-1.186 0-1.777 0-0.227 0-0.454 0-0.681 0-0.060 0-0.12 0-0.18 0-0.331 0.010-0.601 0.147-0.825 0.387-0.177 0.194-0.364 0.377-0.561 0.551-0.1 0.090-0.207 0.177-0.311 0.261-0.050 0.040-0.147 0.107 0.084-0.063-0.027 0.020-0.053 0.040-0.080 0.060-0.053 0.040-0.11 0.080-0.164 0.12-0.448 0.314-0.929 0.578-1.43 0.795 0.080-0.033 0.16-0.067 0.241-0.1-0.615 0.257-1.253 0.431-1.911 0.521 0.090-0.013 0.177-0.023 0.267-0.037-0.678 0.090-1.363 0.090-2.041 0 0.090 0.013 0.177 0.023 0.267 0.037-0.668-0.090-1.323-0.271-1.944-0.531 0.080 0.033 0.16 0.067 0.24 0.1-0.344-0.147-0.678-0.317-0.999-0.511-0.16-0.1-0.321-0.204-0.474-0.314-0.037-0.027-0.070-0.050-0.107-0.077-0.033-0.027-0.167-0.127-0.020-0.013 0.15 0.114 0 0-0.037-0.030-0.040-0.033-0.080-0.063-0.117-0.097-0.284-0.241-0.548-0.501-0.795-0.778-0.057-0.067-0.114-0.13-0.17-0.2-0.033-0.040-0.063-0.080-0.097-0.12-0.067-0.077 0.11 0.13 0.090 0.117s-0.040-0.050-0.053-0.070c-0.11-0.147-0.214-0.297-0.311-0.448-0.234-0.364-0.434-0.748-0.605-1.146 0.033 0.080 0.067 0.16 0.1 0.24-0.261-0.625-0.441-1.276-0.531-1.944 0.013 0.090 0.023 0.177 0.037 0.267-0.087-0.675-0.087-1.36 0-2.034-0.013 0.090-0.023 0.177-0.037 0.267 0.090-0.668 0.271-1.323 0.531-1.944-0.033 0.080-0.067 0.16-0.1 0.24 0.147-0.344 0.317-0.678 0.511-0.999 0.1-0.16 0.204-0.321 0.314-0.474 0.027-0.037 0.050-0.070 0.077-0.107 0.027-0.033 0.127-0.167 0.013-0.020-0.114 0.15 0 0 0.030-0.037 0.033-0.040 0.063-0.080 0.097-0.117 0.24-0.284 0.501-0.548 0.778-0.795 0.067-0.057 0.13-0.114 0.2-0.17 0.040-0.033 0.080-0.063 0.12-0.097 0.077-0.067-0.13 0.11-0.117 0.090s0.050-0.040 0.070-0.053c0.147-0.11 0.297-0.214 0.448-0.311 0.364-0.234 0.748-0.434 1.146-0.605-0.080 0.033-0.16 0.067-0.24 0.1 0.625-0.261 1.276-0.441 1.944-0.531-0.090 0.013-0.177 0.023-0.267 0.037 0.732-0.097 1.48-0.067 2.215-0.067 1.216 0 2.428 0 3.644 0 1.506 0 3.013 0 4.519 0 1.276 0 2.549 0 3.825 0 0.591 0 1.186-0.013 1.78 0.003 0.261 0.007 0.524 0.030 0.785 0.063-0.090-0.013-0.177-0.023-0.267-0.037 0.668 0.090 1.323 0.271 1.944 0.531-0.080-0.033-0.16-0.067-0.24-0.1 0.344 0.147 0.678 0.317 0.999 0.514 0.16 0.1 0.321 0.204 0.474 0.314 0.037 0.027 0.070 0.050 0.107 0.077 0.147 0.107-0.114-0.090-0.063-0.050 0.080 0.063 0.16 0.127 0.237 0.194 0.284 0.241 0.548 0.501 0.795 0.778 0.057 0.067 0.114 0.134 0.17 0.2 0.033 0.040 0.064 0.080 0.097 0.12 0.067 0.077-0.11-0.127-0.090-0.117 0.020 0.013 0.040 0.050 0.053 0.070 0.11 0.147 0.214 0.297 0.311 0.451 0.234 0.364 0.434 0.748 0.605 1.149-0.033-0.080-0.067-0.16-0.1-0.241 0.261 0.625 0.441 1.276 0.531 1.947-0.013-0.090-0.023-0.177-0.037-0.267 0.040 0.331 0.063 0.668 0.063 1.009 0 0.524 0.461 1.025 1.002 1.002s1.005-0.441 1.002-1.002c-0.007-2.559-1.176-5.094-3.19-6.691-1.022-0.808-2.191-1.416-3.467-1.707-0.695-0.157-1.406-0.224-2.118-0.224-1.002 0-2.001 0-3.003 0-1.667 0-3.334 0-5 0-1.55 0-3.1 0-4.65 0-0.762 0-1.53-0.027-2.288 0.010-1.326 0.064-2.622 0.424-3.788 1.062-1.136 0.621-2.091 1.506-2.849 2.549-1.53 2.091-1.984 4.907-1.263 7.385 0.718 2.479 2.555 4.539 4.93 5.542 2.632 1.112 5.765 0.845 8.137-0.778 0.588-0.404 1.136-0.865 1.61-1.396-0.237 0.097-0.471 0.197-0.708 0.294 0.979 0 1.954 0 2.933 0 0.14 0 0.281 0 0.421 0-0.237-0.097-0.471-0.197-0.708-0.294 0.985 1.102 2.258 1.924 3.654 2.408 1.393 0.481 2.896 0.551 4.342 0.297 2.468-0.434 4.69-2.054 5.912-4.236 0.721-1.286 1.099-2.746 1.102-4.219 0-0.524-0.461-1.025-1.002-1.002-0.554 0.023-1.009 0.438-1.012 0.999z"></path>
<path d="M23.276 12.988c0 0.030-0.003 0.060-0.007 0.090 0.013-0.090 0.023-0.177 0.037-0.267-0.010 0.060-0.027 0.114-0.047 0.17 0.033-0.080 0.067-0.16 0.1-0.241-0.013 0.027-0.027 0.050-0.040 0.077-0.067 0.134 0.144-0.157 0.064-0.087-0.064 0.057 0.187-0.1 0.104-0.077-0.027 0.007-0.067 0.040-0.094 0.053 0.080-0.033 0.16-0.067 0.241-0.1-0.057 0.023-0.11 0.037-0.17 0.047 0.090-0.013 0.177-0.023 0.267-0.037-0.060 0.007-0.12 0.007-0.18 0 0.090 0.013 0.177 0.023 0.267 0.037-0.060-0.010-0.114-0.027-0.17-0.047 0.080 0.033 0.16 0.067 0.241 0.1-0.027-0.013-0.050-0.027-0.077-0.040-0.134-0.067 0.157 0.144 0.087 0.063-0.057-0.063 0.1 0.187 0.077 0.104-0.007-0.027-0.040-0.067-0.053-0.094 0.033 0.080 0.067 0.16 0.1 0.241-0.023-0.057-0.037-0.11-0.047-0.17 0.013 0.090 0.023 0.177 0.037 0.267-0.007-0.060-0.007-0.12 0-0.18-0.013 0.090-0.023 0.177-0.037 0.267 0.010-0.060 0.027-0.114 0.047-0.17-0.033 0.080-0.067 0.16-0.1 0.24 0.013-0.027 0.027-0.050 0.040-0.077 0.067-0.134-0.144 0.157-0.063 0.087 0.063-0.057-0.187 0.1-0.104 0.077 0.027-0.007 0.067-0.040 0.094-0.053-0.080 0.033-0.16 0.067-0.241 0.1 0.057-0.023 0.11-0.037 0.17-0.047-0.090 0.013-0.177 0.023-0.267 0.037 0.060-0.007 0.12-0.007 0.18 0-0.090-0.013-0.177-0.023-0.267-0.037 0.060 0.010 0.114 0.027 0.17 0.047-0.080-0.033-0.16-0.067-0.241-0.1 0.027 0.013 0.050 0.027 0.077 0.040 0.134 0.067-0.157-0.144-0.087-0.063 0.057 0.063-0.1-0.187-0.077-0.104 0.007 0.027 0.040 0.067 0.053 0.094-0.033-0.080-0.067-0.16-0.1-0.24 0.023 0.057 0.037 0.11 0.047 0.17-0.013-0.090-0.023-0.177-0.037-0.267 0.003 0.030 0.007 0.060 0.007 0.090 0.020 0.524 0.448 1.025 1.002 1.002 0.528-0.023 1.022-0.441 1.002-1.002-0.030-0.892-0.728-1.643-1.643-1.643-0.892 0-1.643 0.752-1.643 1.643 0 0.889 0.752 1.647 1.643 1.643 0.919-0.003 1.613-0.748 1.643-1.643 0.020-0.524-0.474-1.025-1.002-1.002-0.561 0.023-0.985 0.438-1.002 1.002z"></path>
<path d="M23.363 19c0 0.030-0.003 0.060-0.007 0.090 0.013-0.090 0.023-0.177 0.037-0.267-0.010 0.060-0.027 0.114-0.047 0.17 0.033-0.080 0.067-0.16 0.1-0.24-0.013 0.027-0.027 0.050-0.040 0.077-0.067 0.134 0.144-0.157 0.064-0.087-0.064 0.057 0.187-0.1 0.104-0.077-0.027 0.007-0.067 0.040-0.093 0.053 0.080-0.033 0.16-0.067 0.24-0.1-0.057 0.023-0.11 0.037-0.17 0.047 0.090-0.013 0.177-0.023 0.267-0.037-0.060 0.007-0.12 0.007-0.18 0 0.090 0.013 0.177 0.023 0.267 0.037-0.060-0.010-0.114-0.027-0.17-0.047 0.080 0.033 0.16 0.067 0.24 0.1-0.027-0.013-0.050-0.027-0.077-0.040-0.134-0.067 0.157 0.144 0.087 0.064-0.057-0.064 0.1 0.187 0.077 0.104-0.007-0.027-0.040-0.067-0.053-0.094 0.033 0.080 0.067 0.16 0.1 0.24-0.023-0.057-0.037-0.11-0.047-0.17 0.013 0.090 0.023 0.177 0.037 0.267-0.007-0.060-0.007-0.12 0-0.18-0.013 0.090-0.023 0.177-0.037 0.267 0.010-0.060 0.027-0.114 0.047-0.17-0.033 0.080-0.067 0.16-0.1 0.241 0.013-0.027 0.027-0.050 0.040-0.077 0.067-0.134-0.144 0.157-0.063 0.087 0.063-0.057-0.187 0.1-0.104 0.077 0.027-0.007 0.067-0.040 0.093-0.053-0.080 0.033-0.16 0.067-0.24 0.1 0.057-0.023 0.11-0.037 0.17-0.047-0.090 0.013-0.177 0.023-0.267 0.037 0.060-0.007 0.12-0.007 0.18 0-0.090-0.013-0.177-0.023-0.267-0.037 0.060 0.010 0.114 0.027 0.17 0.047-0.080-0.033-0.16-0.067-0.24-0.1 0.027 0.013 0.050 0.027 0.077 0.040 0.134 0.067-0.157-0.144-0.087-0.063 0.057 0.063-0.1-0.187-0.077-0.104 0.007 0.027 0.040 0.067 0.053 0.094-0.033-0.080-0.067-0.16-0.1-0.241 0.023 0.057 0.037 0.11 0.047 0.17-0.013-0.090-0.023-0.177-0.037-0.267 0.007 0.030 0.007 0.060 0.007 0.090 0.020 0.524 0.448 1.025 1.002 1.002 0.528-0.023 1.022-0.441 1.002-1.002-0.030-0.892-0.728-1.643-1.643-1.643-0.892 0-1.643 0.752-1.643 1.643 0 0.889 0.752 1.647 1.643 1.643 0.919-0.003 1.613-0.748 1.643-1.643 0.020-0.524-0.474-1.025-1.002-1.002-0.558 0.027-0.982 0.441-1.002 1.002z"></path>
<path d="M20.681 16.355c0.030 0 0.060 0.003 0.090 0.007-0.090-0.013-0.177-0.023-0.267-0.037 0.060 0.010 0.114 0.027 0.17 0.047-0.080-0.033-0.16-0.067-0.241-0.1 0.027 0.013 0.050 0.027 0.077 0.040 0.134 0.067-0.157-0.144-0.087-0.064 0.057 0.064-0.1-0.187-0.077-0.104 0.007 0.027 0.040 0.067 0.053 0.094-0.033-0.080-0.067-0.16-0.1-0.24 0.023 0.057 0.037 0.11 0.047 0.17-0.013-0.090-0.023-0.177-0.037-0.267 0.007 0.060 0.007 0.12 0 0.18 0.013-0.090 0.023-0.177 0.037-0.267-0.010 0.060-0.027 0.114-0.047 0.17 0.033-0.080 0.067-0.16 0.1-0.241-0.013 0.027-0.027 0.050-0.040 0.077-0.067 0.134 0.144-0.157 0.063-0.087-0.063 0.057 0.187-0.1 0.104-0.077-0.027 0.007-0.067 0.040-0.094 0.053 0.080-0.033 0.16-0.067 0.241-0.1-0.057 0.023-0.11 0.037-0.17 0.047 0.090-0.013 0.177-0.023 0.267-0.037-0.060 0.007-0.12 0.007-0.18 0 0.090 0.013 0.177 0.023 0.267 0.037-0.060-0.010-0.114-0.027-0.17-0.047 0.080 0.033 0.16 0.067 0.24 0.1-0.027-0.013-0.050-0.027-0.077-0.040-0.134-0.067 0.157 0.144 0.087 0.063-0.057-0.063 0.1 0.187 0.077 0.104-0.007-0.027-0.040-0.067-0.053-0.094 0.033 0.080 0.067 0.16 0.1 0.241-0.023-0.057-0.037-0.11-0.047-0.17 0.013 0.090 0.023 0.177 0.037 0.267-0.007-0.060-0.007-0.12 0-0.18-0.013 0.090-0.023 0.177-0.037 0.267 0.010-0.060 0.027-0.114 0.047-0.17-0.033 0.080-0.067 0.16-0.1 0.24 0.013-0.027 0.027-0.050 0.040-0.077 0.067-0.134-0.144 0.157-0.063 0.087 0.063-0.057-0.187 0.1-0.104 0.077 0.027-0.007 0.067-0.040 0.093-0.053-0.080 0.033-0.16 0.067-0.24 0.1 0.057-0.023 0.11-0.037 0.17-0.047-0.090 0.013-0.177 0.023-0.267 0.037 0.030-0.007 0.060-0.007 0.090-0.007 0.524-0.020 1.025-0.448 1.002-1.002-0.023-0.528-0.441-1.022-1.002-1.002-0.892 0.030-1.643 0.728-1.643 1.643 0 0.892 0.752 1.643 1.643 1.643 0.889 0 1.647-0.752 1.643-1.643-0.003-0.919-0.748-1.613-1.643-1.643-0.524-0.020-1.025 0.474-1.002 1.002 0.023 0.558 0.441 0.982 1.002 1.002z"></path>
<path d="M26.697 16.355c0.030 0 0.060 0.003 0.090 0.007-0.090-0.013-0.177-0.023-0.267-0.037 0.060 0.010 0.114 0.027 0.17 0.047-0.080-0.033-0.16-0.067-0.241-0.1 0.027 0.013 0.050 0.027 0.077 0.040 0.134 0.067-0.157-0.144-0.087-0.064 0.057 0.064-0.1-0.187-0.077-0.104 0.007 0.027 0.040 0.067 0.053 0.094-0.033-0.080-0.067-0.16-0.1-0.24 0.023 0.057 0.037 0.11 0.047 0.17-0.013-0.090-0.023-0.177-0.037-0.267 0.007 0.060 0.007 0.12 0 0.18 0.013-0.090 0.023-0.177 0.037-0.267-0.010 0.060-0.027 0.114-0.047 0.17 0.033-0.080 0.067-0.16 0.1-0.241-0.013 0.027-0.027 0.050-0.040 0.077-0.067 0.134 0.144-0.157 0.063-0.087-0.063 0.057 0.187-0.1 0.104-0.077-0.027 0.007-0.067 0.040-0.094 0.053 0.080-0.033 0.16-0.067 0.241-0.1-0.057 0.023-0.11 0.037-0.17 0.047 0.090-0.013 0.177-0.023 0.267-0.037-0.060 0.007-0.12 0.007-0.18 0 0.090 0.013 0.177 0.023 0.267 0.037-0.060-0.010-0.114-0.027-0.17-0.047 0.080 0.033 0.16 0.067 0.241 0.1-0.027-0.013-0.050-0.027-0.077-0.040-0.134-0.067 0.157 0.144 0.087 0.063-0.057-0.063 0.1 0.187 0.077 0.104-0.007-0.027-0.040-0.067-0.053-0.094 0.033 0.080 0.067 0.16 0.1 0.241-0.023-0.057-0.037-0.11-0.047-0.17 0.013 0.090 0.023 0.177 0.037 0.267-0.007-0.060-0.007-0.12 0-0.18-0.013 0.090-0.023 0.177-0.037 0.267 0.010-0.060 0.027-0.114 0.047-0.17-0.033 0.080-0.067 0.16-0.1 0.24 0.013-0.027 0.027-0.050 0.040-0.077 0.067-0.134-0.144 0.157-0.063 0.087 0.063-0.057-0.187 0.1-0.104 0.077 0.027-0.007 0.067-0.040 0.094-0.053-0.080 0.033-0.16 0.067-0.241 0.1 0.057-0.023 0.11-0.037 0.17-0.047-0.090 0.013-0.177 0.023-0.267 0.037 0.030-0.007 0.060-0.007 0.090-0.007 0.524-0.020 1.025-0.448 1.002-1.002-0.023-0.528-0.441-1.022-1.002-1.002-0.892 0.030-1.643 0.728-1.643 1.643 0 0.892 0.752 1.643 1.643 1.643 0.889 0 1.647-0.752 1.643-1.643-0.003-0.919-0.748-1.613-1.643-1.643-0.524-0.020-1.025 0.474-1.002 1.002 0.023 0.558 0.438 0.982 1.002 1.002z"></path>
<path d="M9.748 19.167c0-0.718 0-1.436 0-2.154 0-1.142 0-2.288 0-3.43 0-0.261 0-0.524 0-0.785 0-0.524-0.461-1.025-1.002-1.002-0.544 0.023-1.002 0.441-1.002 1.002 0 0.718 0 1.436 0 2.155 0 1.142 0 2.288 0 3.43 0 0.261 0 0.524 0 0.785 0 0.524 0.461 1.025 1.002 1.002 0.544-0.023 1.002-0.438 1.002-1.002z"></path>
<path d="M11.932 14.982c-0.718 0-1.436 0-2.155 0-1.142 0-2.288 0-3.431 0-0.261 0-0.524 0-0.785 0-0.524 0-1.025 0.461-1.002 1.002 0.023 0.544 0.441 1.002 1.002 1.002 0.718 0 1.436 0 2.154 0 1.142 0 2.288 0 3.43 0 0.261 0 0.524 0 0.785 0 0.524 0 1.025-0.461 1.002-1.002-0.027-0.544-0.441-1.002-1.002-1.002z"></path>
</symbol>
<symbol id="icon-grid" viewBox="0 0 32 32">
<title>grid</title>
<path d="M7.152 8.96h-5.023c-1.174 0-2.128-0.932-2.128-2.078v-4.804c0-1.146 0.955-2.078 2.128-2.078h5.023c1.174 0 2.128 0.932 2.128 2.078v4.804c0 1.146-0.955 2.078-2.128 2.078z"></path>
<path d="M29.872 8.96h-5.023c-1.174 0-2.128-0.932-2.128-2.078v-4.804c0-1.146 0.955-2.078 2.128-2.078h5.023c1.174 0 2.128 0.932 2.128 2.078v4.804c0 1.146-0.955 2.078-2.128 2.078z"></path>
<path d="M18.425 8.96h-4.85c-1.133 0-2.055-0.932-2.055-2.078v-4.804c0-1.146 0.922-2.078 2.055-2.078h4.85c1.133 0 2.055 0.932 2.055 2.078v4.804c0 1.146-0.922 2.078-2.055 2.078z"></path>
<path d="M7.152 20.48h-5.023c-1.174 0-2.128-0.932-2.128-2.078v-4.804c0-1.146 0.955-2.078 2.128-2.078h5.023c1.174 0 2.128 0.932 2.128 2.078v4.804c0 1.146-0.955 2.078-2.128 2.078z"></path>
<path d="M29.872 20.48h-5.023c-1.174 0-2.128-0.932-2.128-2.078v-4.804c0-1.146 0.955-2.078 2.128-2.078h5.023c1.174 0 2.128 0.932 2.128 2.078v4.804c0 1.146-0.955 2.078-2.128 2.078z"></path>
<path d="M18.425 20.48h-4.85c-1.133 0-2.055-0.932-2.055-2.078v-4.804c0-1.146 0.922-2.078 2.055-2.078h4.85c1.133 0 2.055 0.932 2.055 2.078v4.804c0 1.146-0.922 2.078-2.055 2.078z"></path>
<path d="M7.152 32h-5.023c-1.174 0-2.128-0.932-2.128-2.078v-4.804c0-1.146 0.955-2.078 2.128-2.078h5.023c1.174 0 2.128 0.932 2.128 2.078v4.804c0 1.146-0.955 2.078-2.128 2.078z"></path>
<path d="M29.872 32h-5.023c-1.174 0-2.128-0.932-2.128-2.078v-4.804c0-1.146 0.955-2.078 2.128-2.078h5.023c1.174 0 2.128 0.932 2.128 2.078v4.804c0 1.146-0.955 2.078-2.128 2.078z"></path>
<path d="M18.425 32h-4.85c-1.133 0-2.055-0.932-2.055-2.078v-4.804c0-1.146 0.922-2.078 2.055-2.078h4.85c1.133 0 2.055 0.932 2.055 2.078v4.804c0 1.146-0.922 2.078-2.055 2.078z"></path>
</symbol>
<symbol id="icon-heart" viewBox="0 0 32 32">
<title>heart</title>
<path d="M24.014 4.937c1.506 0 3.012 0.574 4.161 1.723 2.303 2.302 2.303 6.036 0 8.339l-12.036 12.036-12.036-12.036c-2.303-2.303-2.303-6.037 0-8.339 1.15-1.149 2.655-1.723 4.161-1.723 1.193 0 2.387 0.36 3.404 1.079l-0.024-0.023c0 0 0.127 0.094 0.336 0.253 0.005 0.004 0.010 0.007 0.015 0.012 1.056 0.804 4.142 3.228 4.142 4.1 0-0.872 3.087-3.296 4.142-4.1 0.004-0.004 0.010-0.008 0.015-0.012 0.208-0.159 0.336-0.253 0.336-0.253l-0.023 0.023c1.018-0.719 2.211-1.079 3.405-1.079zM24.014 2.88c-1.582 0-3.102 0.46-4.41 1.332-0.065 0.038-0.129 0.080-0.191 0.125 0 0-0.126 0.093-0.334 0.251-0.024 0.018-0.049 0.037-0.073 0.055-1.242 0.947-2.174 1.726-2.871 2.379-0.094-0.088-0.191-0.177-0.293-0.268-0.946-0.854-2.018-1.691-2.583-2.121-0.015-0.011-0.029-0.022-0.043-0.033-0.217-0.165-0.348-0.261-0.348-0.261-0.062-0.046-0.126-0.088-0.191-0.126-1.308-0.873-2.829-1.333-4.412-1.333-2.122 0-4.116 0.826-5.616 2.326-1.502 1.502-2.329 3.499-2.329 5.624s0.827 4.122 2.329 5.624l12.036 12.036c0.386 0.386 0.909 0.603 1.455 0.603s1.069-0.217 1.455-0.603l12.035-12.036c1.503-1.503 2.33-3.5 2.33-5.624s-0.827-4.122-2.33-5.624c-1.5-1.5-3.494-2.326-5.615-2.326z"></path>
</symbol>
<symbol id="icon-home" viewBox="0 0 32 32">
<title>home</title>
<path d="M5.419 13.628c0.388-0.388 0.905-0.568 1.432-0.568h18c0.527 0 1.044 0.18 1.432 0.568s0.568 0.905 0.568 1.432v14c0 0.527-0.18 1.044-0.568 1.432s-0.905 0.568-1.432 0.568h-6c-0.527 0-1.044-0.18-1.432-0.568s-0.568-0.905-0.568-1.432v-5.793c-0.001-0.004-0.003-0.012-0.009-0.025-0.013-0.028-0.037-0.064-0.073-0.1s-0.072-0.060-0.1-0.073c-0.013-0.006-0.021-0.008-0.025-0.009h-1.586c-0.004 0.001-0.012 0.003-0.025 0.009-0.028 0.013-0.064 0.037-0.1 0.073s-0.060 0.072-0.073 0.1c-0.006 0.013-0.008 0.021-0.009 0.025v5.793c0 0.527-0.18 1.044-0.568 1.432s-0.905 0.568-1.432 0.568h-6c-0.527 0-1.044-0.18-1.432-0.568s-0.568-0.905-0.568-1.432v-14c0-0.527 0.18-1.044 0.568-1.432zM24.852 15.060h-18v14h6v-5.8c0-0.625 0.303-1.167 0.668-1.532s0.907-0.668 1.532-0.668h1.6c0.625 0 1.167 0.303 1.532 0.668s0.668 0.907 0.668 1.532v5.8h6v-14z"></path>
<path d="M15.748 2.978c0.002-0.001 0.005-0.002 0.008-0.003 0.021-0.008 0.054-0.015 0.096-0.015s0.075 0.007 0.096 0.015c0.003 0.001 0.006 0.002 0.008 0.003l10.8 10c0.020 0.021 0.035 0.039 0.045 0.053-0.028 0.014-0.075 0.029-0.148 0.029h-21.6c-0.074 0-0.12-0.015-0.148-0.029 0.010-0.015 0.025-0.032 0.045-0.053l10.8-10zM17.343 1.537c-0.428-0.418-0.999-0.577-1.491-0.577s-1.063 0.159-1.491 0.577l-10.816 10.016c-0.664 0.664-0.854 1.571-0.462 2.354 0.365 0.731 1.14 1.153 1.969 1.153h21.6c0.829 0 1.604-0.422 1.969-1.153 0.392-0.783 0.202-1.69-0.462-2.354l-0.014-0.014-10.803-10.002z"></path>
</symbol>
<symbol id="icon-music" viewBox="0 0 32 32">
<title>music</title>
<path d="M6.811 25.143c-1.262 0-2.286 1.023-2.286 2.286s1.023 2.286 2.286 2.286c1.262 0 2.286-1.023 2.286-2.286s-1.023-2.286-2.286-2.286zM2.24 27.429c0-2.525 2.047-4.571 4.571-4.571s4.571 2.047 4.571 4.571c0 2.525-2.047 4.571-4.571 4.571s-4.571-2.047-4.571-4.571z"></path>
<path d="M25.097 20.571c-1.262 0-2.286 1.023-2.286 2.286s1.023 2.286 2.286 2.286 2.286-1.023 2.286-2.286c0-1.262-1.023-2.286-2.286-2.286zM20.526 22.857c0-2.525 2.047-4.571 4.571-4.571s4.571 2.047 4.571 4.571c0 2.525-2.047 4.571-4.571 4.571s-4.571-2.047-4.571-4.571z"></path>
<path d="M29.229 0.242c0.277 0.217 0.44 0.549 0.44 0.901v21.714c0 0.631-0.512 1.143-1.143 1.143s-1.143-0.512-1.143-1.143v-20.251l-16 4v20.822c0 0.631-0.512 1.143-1.143 1.143s-1.143-0.512-1.143-1.143v-21.714c0-0.524 0.357-0.982 0.866-1.109l18.286-4.571c0.341-0.085 0.703-0.009 0.98 0.208z"></path>
<path d="M29.634 8.866c0.153 0.612-0.219 1.233-0.832 1.386l-18.286 4.571c-0.612 0.153-1.233-0.219-1.386-0.832s0.219-1.233 0.832-1.386l18.286-4.571c0.612-0.153 1.233 0.219 1.386 0.832z"></path>
</symbol>
<symbol id="icon-news" viewBox="0 0 32 32">
<title>news</title>
<path d="M24.303 12.929c1.187 0 2.37 0 3.556 0 0.243 0 0.485-0.008 0.728 0.027-0.102-0.015-0.201-0.027-0.303-0.042 0.22 0.034 0.432 0.091 0.637 0.174-0.091-0.038-0.182-0.076-0.273-0.114 0.152 0.064 0.3 0.144 0.44 0.235 0.027 0.019 0.053 0.038 0.080 0.057 0.159 0.106-0.174-0.152-0.095-0.072 0.057 0.057 0.125 0.11 0.182 0.167 0.053 0.053 0.099 0.11 0.152 0.163 0.129 0.14-0.133-0.19-0.072-0.095 0.023 0.034 0.049 0.068 0.072 0.102 0.091 0.14 0.171 0.288 0.235 0.44-0.038-0.091-0.076-0.182-0.114-0.273 0.083 0.205 0.14 0.417 0.174 0.637-0.015-0.102-0.027-0.201-0.042-0.303 0.072 0.538 0.027 1.103 0.027 1.642 0 1.111 0 2.218 0 3.329 0 1.365 0 2.726 0 4.091 0 1.164 0 2.328 0 3.492 0 0.531 0.004 1.065 0 1.596 0 0.125-0.008 0.25-0.027 0.372 0.015-0.102 0.027-0.201 0.042-0.303-0.034 0.22-0.091 0.432-0.174 0.637 0.038-0.091 0.076-0.182 0.114-0.273-0.064 0.155-0.144 0.303-0.235 0.444-0.019 0.027-0.038 0.053-0.057 0.083-0.106 0.159 0.152-0.174 0.072-0.091-0.057 0.061-0.106 0.125-0.167 0.186-0.053 0.053-0.106 0.102-0.163 0.152-0.030 0.027-0.171 0.137 0 0.004 0.163-0.129 0.034-0.030-0.008 0-0.14 0.095-0.284 0.171-0.44 0.239 0.091-0.038 0.182-0.076 0.273-0.114-0.205 0.083-0.417 0.144-0.637 0.178 0.102-0.015 0.201-0.027 0.303-0.042-0.311 0.042-0.633 0.027-0.948 0.027-0.584 0-1.172 0-1.755 0-1.968 0-3.936 0-5.903 0-2.381 0-4.762 0-7.143 0-2.059 0-4.118 0-6.176 0-0.959 0-1.922 0.008-2.882 0-0.129 0-0.258-0.008-0.387-0.027 0.102 0.015 0.201 0.027 0.303 0.042-0.22-0.034-0.432-0.091-0.637-0.178 0.091 0.038 0.182 0.076 0.273 0.114-0.155-0.068-0.3-0.144-0.44-0.239-0.027-0.019-0.053-0.038-0.083-0.057-0.159-0.106 0.174 0.152 0.091 0.072-0.061-0.057-0.125-0.11-0.182-0.167-0.053-0.053-0.102-0.11-0.152-0.167-0.129-0.14 0.133 0.19 0.068 0.095-0.023-0.034-0.049-0.068-0.072-0.102-0.091-0.14-0.171-0.288-0.235-0.444 0.038 0.091 0.076 0.182 0.114 0.273-0.083-0.205-0.144-0.417-0.174-0.637 0.015 0.102 0.027 0.201 0.042 0.303-0.042-0.33-0.027-0.671-0.027-1.005 0-0.641 0-1.282 0-1.922 0-0.959 0-1.922 0-2.882 0-1.183 0-2.362 0-3.545 0-1.3 0-2.601 0-3.898 0-1.323 0-2.643 0-3.966 0-1.228 0-2.457 0-3.685 0-1.039 0-2.082 0-3.12 0-0.751 0-1.498 0-2.248 0-0.356 0.008-0.713 0-1.069 0-0.015 0-0.030 0-0.046-0.379 0.379-0.758 0.758-1.137 1.137 0.77 0 1.536 0 2.305 0 1.843 0 3.689 0 5.532 0 2.229 0 4.463 0 6.692 0 1.93 0 3.856 0 5.786 0 0.936 0 1.877 0.023 2.813 0 0.011 0 0.027 0 0.038 0-0.379-0.379-0.758-0.758-1.137-1.137 0 0.827 0 1.653 0 2.476 0 1.972 0 3.939 0 5.911 0 2.392 0 4.789 0 7.181 0 2.059 0 4.118 0 6.176 0 1.005-0.019 2.009 0 3.010 0 0.015 0 0.027 0 0.042 0 0.595 0.523 1.164 1.137 1.137 0.618-0.027 1.137-0.5 1.137-1.137 0-0.827 0-1.653 0-2.476 0-1.972 0-3.939 0-5.911 0-2.392 0-4.789 0-7.181 0-2.059 0-4.118 0-6.176 0-1.005 0.019-2.009 0-3.010 0-0.015 0-0.027 0-0.042 0-0.614-0.519-1.137-1.137-1.137-0.77 0-1.536 0-2.305 0-1.843 0-3.689 0-5.532 0-2.229 0-4.463 0-6.692 0-1.93 0-3.856 0-5.786 0-0.937 0-1.877-0.015-2.813 0-0.011 0-0.027 0-0.038 0-0.614 0-1.137 0.519-1.137 1.137 0 0.463 0 0.925 0 1.391 0 1.194 0 2.385 0 3.579 0 1.653 0 3.31 0 4.963 0 1.835 0 3.67 0 5.505 0 1.74 0 3.477 0 5.217 0 1.365 0 2.73 0 4.095 0 0.713 0 1.426 0 2.138 0 0.705 0.148 1.392 0.5 2.009 0.667 1.164 1.934 1.881 3.272 1.888 0.595 0.004 1.191 0 1.786 0 1.35 0 2.7 0 4.049 0 1.748 0 3.496 0 5.244 0 1.824 0 3.644 0 5.467 0 1.551 0 3.105 0 4.656 0 0.944 0 1.888 0 2.832 0 0.136 0 0.277 0 0.413 0 1.661-0.015 3.147-1.141 3.606-2.741 0.137-0.482 0.14-0.963 0.14-1.456 0-0.527 0-1.054 0-1.581 0-1.691 0-3.382 0-5.069 0-1.649 0-3.299 0-4.948 0-0.485 0-0.967 0-1.452 0-0.095 0-0.193 0-0.288-0.004-0.614-0.152-1.187-0.417-1.736-0.618-1.274-1.994-2.036-3.382-2.040-0.717 0-1.429 0-2.146 0-0.569 0-1.141 0-1.71 0-0.595 0-1.164 0.523-1.137 1.137 0.015 0.622 0.489 1.141 1.126 1.141z"></path>
<path d="M19.223 11.185c-0.44 0-0.88 0-1.319 0-1.058 0-2.112 0-3.17 0-1.278 0-2.555 0-3.833 0-1.103 0-2.21 0-3.314 0-0.535 0-1.073-0.015-1.608 0-0.008 0-0.015 0-0.023 0 0.379 0.379 0.758 0.758 1.137 1.137 0-1.683 0-3.371 0-5.054 0-0.235 0-0.474 0-0.709-0.379 0.379-0.758 0.758-1.137 1.137 0.44 0 0.88 0 1.319 0 1.058 0 2.112 0 3.17 0 1.278 0 2.555 0 3.833 0 1.103 0 2.21 0 3.314 0 0.535 0 1.073 0.015 1.608 0 0.008 0 0.015 0 0.023 0-0.379-0.379-0.758-0.758-1.137-1.137 0 1.683 0 3.371 0 5.054 0 0.235 0 0.474 0 0.709 0 0.595 0.523 1.164 1.137 1.137 0.618-0.027 1.137-0.5 1.137-1.137 0-1.683 0-3.371 0-5.054 0-0.235 0-0.474 0-0.709 0-0.614-0.519-1.137-1.137-1.137-0.44 0-0.88 0-1.319 0-1.058 0-2.112 0-3.17 0-1.278 0-2.555 0-3.833 0-1.103 0-2.21 0-3.314 0-0.535 0-1.073-0.011-1.608 0-0.008 0-0.015 0-0.023 0-0.614 0-1.137 0.519-1.137 1.137 0 1.683 0 3.371 0 5.054 0 0.235 0 0.474 0 0.709 0 0.614 0.519 1.137 1.137 1.137 0.44 0 0.88 0 1.319 0 1.058 0 2.112 0 3.17 0 1.278 0 2.555 0 3.833 0 1.103 0 2.21 0 3.314 0 0.535 0 1.073 0.011 1.608 0 0.008 0 0.015 0 0.023 0 0.595 0 1.164-0.523 1.137-1.137-0.027-0.618-0.5-1.137-1.137-1.137z"></path>
<path d="M19.223 17.137c-0.44 0-0.88 0-1.319 0-1.058 0-2.112 0-3.17 0-1.278 0-2.555 0-3.833 0-1.103 0-2.21 0-3.314 0-0.535 0-1.073-0.011-1.608 0-0.008 0-0.015 0-0.023 0-0.595 0-1.164 0.523-1.137 1.137 0.027 0.618 0.5 1.137 1.137 1.137 0.44 0 0.88 0 1.319 0 1.058 0 2.112 0 3.17 0 1.278 0 2.555 0 3.833 0 1.103 0 2.21 0 3.314 0 0.535 0 1.073 0.011 1.608 0 0.008 0 0.015 0 0.023 0 0.595 0 1.164-0.523 1.137-1.137-0.027-0.618-0.5-1.137-1.137-1.137z"></path>
<path d="M19.223 23.318c-0.44 0-0.88 0-1.319 0-1.058 0-2.112 0-3.17 0-1.278 0-2.555 0-3.833 0-1.103 0-2.21 0-3.314 0-0.535 0-1.073-0.011-1.608 0-0.008 0-0.015 0-0.023 0-0.595 0-1.164 0.523-1.137 1.137 0.027 0.618 0.5 1.137 1.137 1.137 0.44 0 0.88 0 1.319 0 1.058 0 2.112 0 3.17 0 1.278 0 2.555 0 3.833 0 1.103 0 2.21 0 3.314 0 0.535 0 1.073 0.011 1.608 0 0.008 0 0.015 0 0.023 0 0.595 0 1.164-0.523 1.137-1.137-0.027-0.618-0.5-1.137-1.137-1.137z"></path>
</symbol>
<symbol id="icon-pause" viewBox="0 0 32 32">
<title>pause</title>
<path d="M6.722-0.471c-0.631 0-1.143 0.512-1.143 1.143v0 29.714c0 0.631 0.512 1.143 1.143 1.143h6.857c0.631-0 1.143-0.512 1.143-1.143v0-29.714c-0-0.631-0.512-1.143-1.143-1.143v0zM20.436-0.471c-0.631 0-1.143 0.512-1.143 1.143v0 29.714c0 0.631 0.512 1.143 1.143 1.143h6.857c0.631-0 1.143-0.512 1.143-1.143v0-29.714c-0-0.631-0.512-1.143-1.143-1.143v0zM7.865 1.814h4.571v27.429h-4.571zM21.579 1.814h4.571v27.429h-4.571z"></path>
</symbol>
<symbol id="icon-pen" viewBox="0 0 32 32">
<title>pen</title>
<path d="M6.418 2.153l8.738 8.738 1.316-1.316-8.744-8.744c-0.735-0.735-1.883-0.735-2.618 0l-4.465 4.465c-0.735 0.735-0.735 1.883 0 2.618l8.937 8.751 1.302-1.329-8.917-8.731 4.452-4.452z"></path>
<path d="M29.847 25.581l-8.924-8.924 1.316-1.316 8.93 8.93c0.735 0.735 0.735 1.883 0 2.618l-4.465 4.465c-0.735 0.735-1.883 0.735-2.618 0l-0.007-0.007 0-0-8.744-8.93 1.329-1.302 8.731 8.917 4.452-4.452z"></path>
<path d="M21.707 27.671l1.842 1.842 3.815-3.815-1.842-1.842-3.815 3.815z"></path>
<path d="M17.878 23.762l1.842 1.842 1.973-1.973-1.842-1.842-1.973 1.973z"></path>
<path d="M6.487 12.238l1.842 1.842 3.815-3.815-1.842-1.842-3.815 3.815z"></path>
<path d="M2.658 8.593l1.842 1.842 1.973-1.973-1.842-1.842-1.973 1.973z"></path>
<path d="M26.505 2.332c-0.381-0.381-0.908-0.381-1.289 0l-1.116 1.116c-0.363 0.363-0.952 0.363-1.316 0s-0.363-0.952 0-1.316l1.116-1.116c1.107-1.107 2.813-1.107 3.92 0l3.163 3.163c1.108 1.107 1.108 2.813 0 3.92l-1.116 1.116c-0.363 0.363-0.952 0.363-1.316 0s-0.363-0.952 0-1.316l1.116-1.116c0.381-0.381 0.381-0.908 0-1.289l-3.163-3.163z"></path>
<path d="M21.328 3.782c0.363-0.363 0.952-0.363 1.316 0l5.657 5.657c0.363 0.363 0.363 0.952 0 1.316l-17.76 17.76c-0.363 0.363-0.952 0.363-1.316 0l-5.657-5.657c-0.363-0.363-0.363-0.952 0-1.316l17.76-17.76zM21.985 5.756l-16.444 16.444 4.341 4.341 16.444-16.444-4.341-4.341z"></path>
<path d="M23.771 6.296l-18.154 18.154 1.842 1.842 18.154-18.154-1.842-1.842z"></path>
<path d="M3.876 21.235c0.315-0.075 0.646 0.018 0.874 0.247l5.767 5.767c0.229 0.229 0.322 0.56 0.247 0.874s-0.309 0.567-0.616 0.668l-8.558 2.791c-0.333 0.109-0.699 0.021-0.946-0.227s-0.335-0.613-0.227-0.946l2.791-8.558c0.1-0.308 0.353-0.541 0.668-0.616zM4.507 23.869l-1.753 5.376 5.376-1.753-3.623-3.623z"></path>
<path d="M2.232 27.907l-0.93 2.791 2.791-0.93-1.86-1.86z"></path>
<path d="M24.442 1.733c0.379 0.347 0.404 0.936 0.057 1.314l-1.445 1.576 4.322 4.322 1.576-1.445c0.379-0.347 0.967-0.322 1.314 0.057s0.322 0.967-0.057 1.314l-2.233 2.046c-0.367 0.337-0.934 0.324-1.286-0.028l-5.581-5.581c-0.352-0.352-0.364-0.919-0.028-1.286l2.046-2.233c0.347-0.379 0.936-0.404 1.314-0.057z"></path>
</symbol>
<symbol id="icon-play" viewBox="0 0 32 32">
<title>play</title>
<path d="M4.181 0.001c-0.011-0-0.025-0.001-0.038-0.001-0.631 0-1.143 0.512-1.143 1.143 0 0 0 0 0 0.001v-0 29.714c0 0.631 0.512 1.143 1.143 1.143 0.214 0 0.414-0.059 0.585-0.161l-0.005 0.003 25.143-14.857c0.339-0.203 0.562-0.567 0.562-0.984s-0.223-0.782-0.557-0.981l-0.005-0.003-25.143-14.857c-0.155-0.093-0.341-0.151-0.54-0.158l-0.002-0zM5.286 3.146l21.754 12.855-21.754 12.855z"></path>
</symbol>
<symbol id="icon-rewind" viewBox="0 0 32 32">
<title>rewind</title>
<path d="M26.73 4.619c0.405 0.025 0.725 0.359 0.725 0.768 0 0 0 0.001 0 0.001v-0 13.855c-0 0.425-0.345 0.769-0.77 0.769-0.146 0-0.282-0.041-0.399-0.111l0.003 0.002-7.302-4.381v3.721c-0 0.425-0.345 0.769-0.77 0.769-0.146 0-0.282-0.041-0.399-0.111l0.003 0.002-11.545-6.927c-0.225-0.137-0.374-0.381-0.374-0.66s0.148-0.523 0.37-0.658l0.003-0.002 11.545-6.927c0.104-0.064 0.229-0.104 0.362-0.11l0.002-0c0.009-0 0.020-0.001 0.032-0.001 0.425 0 0.77 0.345 0.77 0.77 0 0 0 0 0 0.001v-0 3.721l7.302-4.381c0.104-0.064 0.229-0.104 0.362-0.11l0.002-0c0.011-0.001 0.025-0.001 0.038-0.001s0.027 0 0.040 0.001l-0.002-0zM25.915 6.748l-6.927 4.157v2.823l6.927 4.157zM17.448 6.748l-9.28 5.568 9.28 5.568z"></path>
</symbol>
<symbol id="icon-search" viewBox="0 0 32 32">
<title>search</title>
<path d="M13.521 0c-7.453 0-13.521 6.068-13.521 13.521s6.068 13.521 13.521 13.521c3.285 0 6.299-1.181 8.645-3.138l7.694 7.694c1.158 1.207 2.945-0.58 1.738-1.738l-7.694-7.694c1.957-2.346 3.138-5.36 3.138-8.645 0-7.453-6.068-13.521-13.521-13.521zM13.521 2.458c6.124 0 11.062 4.938 11.062 11.062s-4.938 11.062-11.062 11.062c-6.124 0-11.062-4.938-11.062-11.062s4.938-11.062 11.062-11.062z"></path>
</symbol>
<symbol id="icon-settings" viewBox="0 0 32 32">
<title>settings</title>
<path d="M12.572 0c-0.631 0-1.143 0.512-1.143 1.143v0 2.013c-0.434 0.156-0.857 0.334-1.272 0.533l-1.429-1.429c-0.207-0.207-0.492-0.335-0.808-0.335s-0.601 0.128-0.808 0.335l-4.85 4.85c-0.207 0.207-0.335 0.492-0.335 0.808s0.128 0.601 0.335 0.808l1.424 1.424c-0.197 0.417-0.371 0.842-0.525 1.277h-2.018c-0.631 0-1.143 0.512-1.143 1.143v0 6.857c0 0.631 0.512 1.143 1.143 1.143h2.013c0.156 0.434 0.334 0.857 0.533 1.272l-1.429 1.429c-0.207 0.207-0.335 0.492-0.335 0.808s0.128 0.601 0.335 0.808l4.85 4.85c0.207 0.207 0.492 0.335 0.808 0.335s0.601-0.128 0.808-0.335l1.424-1.424c0.417 0.197 0.842 0.371 1.277 0.525v2.018c0 0.631 0.512 1.143 1.143 1.143h6.857c0.631-0 1.143-0.512 1.143-1.143v0-2.013c0.434-0.156 0.857-0.334 1.272-0.534l1.429 1.429c0.207 0.207 0.492 0.335 0.808 0.335s0.601-0.128 0.808-0.335l4.85-4.85c0.207-0.207 0.335-0.492 0.335-0.808s-0.128-0.601-0.335-0.808l-1.424-1.424c0.197-0.417 0.371-0.842 0.525-1.277h2.018c0.631-0 1.143-0.512 1.143-1.143v0-6.857c-0-0.631-0.512-1.143-1.143-1.143h-2.013c-0.156-0.434-0.334-0.857-0.533-1.272l1.429-1.429c0.207-0.207 0.335-0.492 0.335-0.808s-0.128-0.601-0.335-0.808l-4.85-4.85c-0.207-0.207-0.492-0.335-0.808-0.335s-0.601 0.128-0.808 0.335l-1.424 1.424c-0.417-0.197-0.842-0.371-1.277-0.525v-2.018c-0-0.631-0.512-1.143-1.143-1.143v0zM13.714 2.286h4.571v1.632c0 0 0 0 0 0 0 0.521 0.348 0.96 0.825 1.098l0.008 0.002c0.853 0.24 1.676 0.579 2.451 1.009 0.16 0.090 0.35 0.143 0.553 0.143 0.316 0 0.601-0.128 0.808-0.335l1.15-1.15 3.234 3.234-1.156 1.156c-0.207 0.207-0.334 0.492-0.334 0.808 0 0.206 0.054 0.399 0.15 0.566l-0.003-0.006c0.434 0.772 0.777 1.593 1.022 2.444 0.142 0.481 0.58 0.826 1.098 0.826 0 0 0 0 0 0h1.623v4.571h-1.632c-0 0-0 0-0 0-0.521 0-0.96 0.348-1.098 0.825l-0.002 0.008c-0.24 0.853-0.579 1.674-1.009 2.449-0.090 0.16-0.144 0.351-0.144 0.555 0 0.316 0.128 0.602 0.336 0.809v0l1.15 1.15-3.234 3.234-1.156-1.156c-0.207-0.207-0.492-0.334-0.808-0.334-0.206 0-0.399 0.054-0.566 0.15l0.006-0.003c-0.772 0.434-1.593 0.777-2.444 1.022-0.481 0.142-0.826 0.58-0.826 1.098 0 0 0 0 0 0v0 1.623h-4.571v-1.632c0-0 0-0 0-0 0-0.521-0.348-0.96-0.825-1.098l-0.008-0.002c-0.853-0.24-1.674-0.579-2.449-1.009-0.16-0.090-0.351-0.144-0.555-0.144-0.316 0-0.602 0.128-0.809 0.335v0l-1.15 1.15-3.234-3.234 1.156-1.156c0.207-0.207 0.334-0.492 0.334-0.808 0-0.206-0.054-0.399-0.15-0.566l0.003 0.006c-0.434-0.772-0.777-1.593-1.022-2.444-0.142-0.481-0.58-0.826-1.098-0.826-0 0-0 0-0 0h-1.623v-4.571h1.632c0 0 0 0 0 0 0.521 0 0.96-0.348 1.098-0.825l0.002-0.008c0.24-0.853 0.579-1.676 1.009-2.451 0.090-0.16 0.143-0.35 0.143-0.553 0-0.316-0.128-0.601-0.335-0.808l-1.15-1.15 3.234-3.234 1.156 1.156c0.207 0.207 0.492 0.334 0.808 0.334 0.206 0 0.399-0.054 0.566-0.15l-0.006 0.003c0.772-0.434 1.593-0.777 2.444-1.022 0.481-0.142 0.826-0.58 0.826-1.098 0-0 0-0 0-0v0zM16 9.143c-3.774 0-6.857 3.084-6.857 6.857s3.084 6.857 6.857 6.857c3.774 0 6.857-3.084 6.857-6.857s-3.084-6.857-6.857-6.857zM16 11.428c2.538 0 4.571 2.033 4.571 4.571s-2.033 4.571-4.571 4.571c-2.538 0-4.571-2.033-4.571-4.571s2.033-4.571 4.571-4.571z"></path>
</symbol>
<symbol id="icon-smile" viewBox="0 0 32 32">
<title>smile</title>
<path d="M23.158 22.316c-1.895 2.105-4.421 3.158-7.158 3.158s-5.263-1.263-7.158-3.158c-0.421-0.421-0.421-1.053 0-1.474s1.053-0.421 1.474 0c1.474 1.684 3.579 2.526 5.684 2.526s4.211-0.842 5.474-2.526c0.421-0.421 1.053-0.421 1.474 0s0.421 1.053 0.211 1.474z"></path>
<path d="M0.21 16c0-8.792 6.998-15.789 15.789-15.789s15.789 6.998 15.789 15.789-6.998 15.789-15.789 15.789c-8.792 0-15.789-6.998-15.789-15.789zM16 2.316c-7.629 0-13.684 6.055-13.684 13.684s6.055 13.684 13.684 13.684c7.629 0 13.684-6.055 13.684-13.684s-6.055-13.684-13.684-13.684zM8.902 11.008c-0.144 0.144-0.271 0.39-0.271 0.782s0.126 0.638 0.271 0.782c0.144 0.144 0.39 0.271 0.782 0.271s0.638-0.126 0.782-0.271c0.144-0.144 0.271-0.39 0.271-0.782s-0.126-0.638-0.271-0.782-0.39-0.271-0.782-0.271c-0.392 0-0.638 0.126-0.782 0.271zM7.414 9.519c0.592-0.592 1.4-0.887 2.271-0.887s1.678 0.295 2.271 0.887c0.592 0.592 0.887 1.4 0.887 2.271s-0.295 1.678-0.887 2.271c-0.592 0.592-1.4 0.887-2.271 0.887s-1.678-0.295-2.271-0.887c-0.592-0.592-0.887-1.4-0.887-2.271s0.295-1.678 0.887-2.271zM21.534 11.008c-0.144 0.144-0.271 0.39-0.271 0.782s0.126 0.638 0.271 0.782c0.144 0.144 0.39 0.271 0.782 0.271 0.541 0 1.053-0.438 1.053-1.053 0-0.392-0.126-0.638-0.271-0.782s-0.39-0.271-0.782-0.271c-0.392 0-0.638 0.126-0.782 0.271zM20.045 9.519c0.592-0.592 1.4-0.887 2.271-0.887s1.678 0.295 2.271 0.887c0.592 0.592 0.887 1.4 0.887 2.271 0 1.912-1.593 3.158-3.158 3.158-0.871 0-1.678-0.295-2.271-0.887s-0.887-1.4-0.887-2.271 0.295-1.678 0.887-2.271z"></path>
</symbol>
<symbol id="icon-soccer" viewBox="0 0 32 32">
<title>soccer</title>
<path d="M16 2.316c-7.619 0-13.684 6.256-13.684 13.684 0 7.419 6.266 13.684 13.684 13.684 7.428 0 13.684-6.065 13.684-13.684 0-7.428-6.065-13.684-13.684-13.684zM0.21 16c0-8.572 6.988-15.789 15.789-15.789s15.789 7.218 15.789 15.789c0 8.802-7.218 15.789-15.789 15.789-8.581 0-15.789-7.208-15.789-15.789z"></path>
<path d="M26.947 12.842l1.684-4.421c-0.421-0.632-0.842-1.263-1.263-1.684-0.211 0.211-0.421 0.211-0.632 0.632l-1.895 5.263-3.579 1.474-4.211-3.158-0.211-4.632 4.421-3.158c0.211-0.211 0.421-0.421 0.421-0.632-0.632-0.211-1.474-0.421-2.105-0.632l-4 2.737-3.579-2.737c-0.842 0.211-1.474 0.421-2.105 0.842 0 0.211 0.211 0.421 0.421 0.421l4.421 3.158 0.211 4.632-4 2.737-4.211-1.263-1.895-4.842c0-0.211-0.211-0.421-0.421-0.632-0.421 0.632-0.842 1.263-1.263 1.895l1.684 4.421-3.579 2.947c0 0.842 0 1.474 0.211 2.316 0.211 0 0.421 0 0.632-0.211l4.421-3.579 3.789 1.053 1.474 4.632-2.526 3.158-5.053 0.211c-0.211 0-0.211 0.211-0.421 0.211 0.421 0.842 1.053 1.474 1.684 2.105l4-0.211 1.474 4c0.632 0.211 1.263 0.421 2.105 0.632 0-0.211 0.211-0.632 0-0.842l-1.684-5.053 2.316-2.737h4.842l1.684 2.947-2.105 4.842c-0.211 0.421 0 0.632 0.211 1.053 0.632 0 1.263-0.211 1.895-0.421l1.895-4.632 4.842 0.421c0.421-0.421 0.842-0.842 1.053-1.474-0.211-0.211-0.421-0.421-0.842-0.421l-5.474-0.632-1.474-2.947 1.684-4.842 3.789-1.474 4.211 3.368c0.211 0.211 0.421 0.211 0.632 0.211s0.21 0 0.21 0c0-0.632 0.211-1.263 0.211-1.684v-0.211l-4-3.158zM18.105 19.579h-4.421l-1.474-4.211 3.789-2.737 3.579 2.737-1.474 4.211z"></path>
</symbol>
<symbol id="icon-tools" viewBox="0 0 32 32">
<title>tools</title>
<path d="M9.878 2.865c-0.586-0.405-1.072-0.259-1.263-0.068l-5.677 5.677c-0.208 0.428-0.271 0.612-0.271 0.739v3.394c0 0.127 0.063 0.31 0.271 0.739l0.276 0.276c0.586 0.405 1.072 0.259 1.263 0.068l0.014-0.014 7.438-7.197c0.364-0.534 0.326-1.089 0.196-1.366l-2.247-2.247zM6.9 1.082c1.257-1.257 3.168-1.107 4.493-0.113l0.069 0.052 2.57 2.57 0.067 0.1c0.803 1.205 0.717 2.978-0.281 4.309l-0.058 0.077-7.578 7.334c-1.257 1.248-3.162 1.097-4.486 0.105l-0.069-0.052-0.685-0.685-0.088-0.176c-0.012-0.024-0.024-0.048-0.037-0.074-0.215-0.427-0.576-1.143-0.576-1.923v-3.394c0-0.78 0.361-1.496 0.576-1.923 0.013-0.026 0.025-0.050 0.037-0.074l0.088-0.176 5.957-5.957z"></path>
<path d="M19.281 16.113l9.455 9.455c1.443 1.443 1.443 3.665 0 5.108s-3.665 1.443-5.108 0l-9.455-9.455 1.714-1.714 9.455 9.455c0.496 0.496 1.183 0.496 1.68 0s0.496-1.183 0-1.68l-9.455-9.455 1.714-1.714z"></path>
<path d="M10.909 7.498l4.978 4.978-1.714 1.714-3.264-3.264-1.704 1.704 3.312 3.507-1.762 1.665-4.93-5.22 5.084-5.084z"></path>
<path d="M2.052 21.446c2.413-2.413 6.089-2.413 8.502 0s2.413 6.089 0 8.502c-2.413 2.413-6.089 2.413-8.502 0s-2.413-6.089 0-8.502zM8.84 23.16c-1.466-1.466-3.608-1.466-5.074 0s-1.466 3.608 0 5.074c1.466 1.466 3.608 1.466 5.074 0s1.466-3.608 0-5.074z"></path>
<path d="M19.636 6.061c0-3.336 2.724-6.061 6.061-6.061 0.968 0 1.883 0.314 2.481 0.613 0.349 0.174 0.592 0.505 0.654 0.89s-0.064 0.776-0.339 1.051l-2.312 2.312v0.468h0.71l2.312-2.312c0.297-0.297 0.727-0.419 1.136-0.323s0.739 0.398 0.871 0.796c0.008 0.023 0.016 0.047 0.024 0.071 0.227 0.678 0.523 1.567 0.523 2.494 0 3.336-2.724 6.061-6.061 6.061s-6.061-2.725-6.061-6.061zM25.154 2.465c-1.743 0.265-3.093 1.783-3.093 3.595 0 1.997 1.639 3.636 3.636 3.636 1.907 0 3.487-1.494 3.626-3.367l-1.072 1.072c-0.227 0.227-0.536 0.355-0.857 0.355h-2.424c-0.669 0-1.212-0.543-1.212-1.212v-2.182c0-0.321 0.128-0.63 0.355-0.857l1.041-1.041z"></path>
<path d="M21.691 5.201l0.566 1.981c0.352 1.233 1.451 2.19 2.612 2.577l1.861 0.62-16.349 16.349-0.62-1.861c-0.036-0.107-0.068-0.206-0.098-0.3-0.092-0.286-0.168-0.522-0.277-0.758-0.135-0.293-0.258-0.431-0.36-0.499-0.764-0.509-1.35-0.89-1.893-1.071l-1.861-0.62 16.419-16.419zM9.556 20.764c0.265 0.165 0.516 0.333 0.748 0.487 0.022 0.015 0.043 0.029 0.065 0.043 0.44 0.293 0.749 0.671 0.974 1.042l11.102-11.102c-0.64-0.435-1.23-0.993-1.697-1.663l-11.192 11.192z"></path>
<path d="M6.303 27.152c0.803 0 1.455-0.651 1.455-1.455s-0.651-1.455-1.455-1.455c-0.803 0-1.455 0.651-1.455 1.455s0.651 1.455 1.455 1.455z"></path>
</symbol>
<symbol id="icon-video" viewBox="0 0 32 32">
<title>video</title>
<path d="M29.369 5.938c-0.853-0.64-3.271-1.458-13.404-1.458-10.844 0-12.444 0.96-12.942 1.244-2.738 1.636-3.022 8.96-3.022 10.418 0.036 1.956 0.356 8.462 3.022 10.062 0.498 0.32 2.098 1.244 12.942 1.244 10.133 0 12.516-0.818 13.404-1.422 2.347-1.671 2.596-7.467 2.631-9.92 0-1.92-0.213-8.462-2.631-10.169zM28.231 24.427c-0.356 0.249-2.347 1.067-12.231 1.067-9.564 0-11.556-0.747-11.947-0.96-0.96-0.569-1.991-3.662-2.062-8.356 0.071-4.693 1.102-8.142 2.062-8.711 0.391-0.213 2.382-0.996 11.947-0.996 9.884 0 11.876 0.818 12.231 1.067 0.853 0.604 1.778 3.876 1.778 8.604-0.036 4.836-0.924 7.68-1.778 8.284zM22.436 15.111l-8.996-5.511c-0.32-0.178-0.676-0.178-0.996 0s-0.498 0.498-0.498 0.853v11.022c0 0.356 0.178 0.676 0.498 0.853 0.142 0.071 0.32 0.142 0.498 0.142s0.356-0.036 0.498-0.142l8.996-5.511c0.284-0.178 0.462-0.498 0.462-0.853 0-0.32-0.178-0.676-0.462-0.853zM13.938 19.733v-7.502l6.044 3.733-6.044 3.769z"></path>
</symbol>
</defs>
</svg>
