<svg xmlns="http://www.w3.org/2000/svg" xmlns:xlink="http://www.w3.org/1999/xlink" version="1.1" x="0px" y="0px" viewBox="0 0 20 25" style="enable-background:new 0 0 20 20;" xml:space="preserve"><style type="text/css">
	.st0{fill:none;stroke:#000000;stroke-linecap:round;stroke-linejoin:round;stroke-miterlimit:10;}
	.st1{fill:none;stroke:#000000;stroke-miterlimit:10;}
	.st2{fill:#3BACD9;}
	.st3{fill:#85E7FB;}
	.st4{fill:#4C565D;}
	.st5{fill:#FBBB59;stroke:#000000;stroke-miterlimit:10;}
	.st6{fill:#969FA6;}
	.st7{fill:none;}
	.st8{fill-rule:evenodd;clip-rule:evenodd;fill:#85E7FB;}
	.st9{fill:#2795B7;}
	.st10{fill:#FBBB59;}
	.st11{fill:#1BB978;}
	.st12{fill-rule:evenodd;clip-rule:evenodd;}
</style><g><path d="M14.1,15c-0.2,0-0.3,0-0.5,0c-1.6-0.1-3.5-0.7-5.4-1.6c-4-2-6.4-5.1-5.4-7c0.5-1,1.7-1.4,3.5-1.3   c1.6,0.1,3.5,0.7,5.4,1.6c4,2,6.4,5.1,5.4,7C16.7,14.5,15.6,15,14.1,15z M5.9,6C4.8,6,4,6.3,3.8,6.8c-0.6,1.2,1.3,3.8,5,5.6   c1.7,0.9,3.5,1.4,5,1.5c1.3,0.1,2.2-0.2,2.5-0.8c0.6-1.2-1.3-3.8-5-5.6c-1.7-0.9-3.5-1.4-5-1.5C6.1,6,6,6,5.9,6z"/></g><g><path d="M10,18c-2.1,0-3.8-3.5-3.8-8S7.9,2,10,2s3.8,3.5,3.8,8S12.1,18,10,18z M10,3c-1.3,0-2.8,2.9-2.8,7   s1.4,7,2.8,7s2.8-2.9,2.8-7S11.3,3,10,3z"/></g><g><path d="M5.9,15c-1.5,0-2.6-0.5-3-1.3c-1-1.9,1.4-4.9,5.4-7c1.8-0.9,3.7-1.5,5.4-1.6c1.8-0.1,3,0.4,3.5,1.3   c1,1.9-1.4,4.9-5.4,7c-1.8,0.9-3.7,1.5-5.4,1.6C6.2,15,6,15,5.9,15z M14.1,6c-0.1,0-0.3,0-0.4,0c-1.5,0.1-3.2,0.6-5,1.5   c-3.7,1.9-5.6,4.5-5,5.6C4,13.7,5,14,6.3,13.9c1.5-0.1,3.2-0.6,5-1.5c3.7-1.9,5.6-4.5,5-5.6C16,6.3,15.2,6,14.1,6z"/></g><g><circle class="st1" cx="10" cy="10" r="1"/></g><text x="0" y="35" fill="#000000" font-size="5px" font-weight="bold" font-family="'Helvetica Neue', Helvetica, Arial-Unicode, Arial, Sans-serif">Created by Jemis mali</text><text x="0" y="40" fill="#000000" font-size="5px" font-weight="bold" font-family="'Helvetica Neue', Helvetica, Arial-Unicode, Arial, Sans-serif">from the Noun Project</text></svg>