<svg width="100" height="100" viewBox="0 0 100 100" fill="none" xmlns="http://www.w3.org/2000/svg">
<path d="M71.75 32.875H65.5V26.625C65.5 21.625 61.125 17.25 56.125 17.25H43.625C38.625 17.25 34.25 21.625 34.25 26.625V32.875H28V26.625C28 17.875 34.875 11 43.625 11H56.125C64.875 11 71.75 17.875 71.75 26.625V32.875Z" fill="#7A7A7C"/>
<path fill-rule="evenodd" clip-rule="evenodd" d="M3 36.625C3 31.5541 6.52019 26.625 12.375 26.625H87.375C93.2298 26.625 96.75 31.5541 96.75 36.625V80.375C96.75 85.4399 92.6288 89.125 87.375 89.125H12.375C7.12124 89.125 3 85.4399 3 80.375V36.625ZM12.375 32.875C10.7298 32.875 9.25 34.1959 9.25 36.625V80.375C9.25 81.5601 10.1288 82.875 12.375 82.875H87.375C89.6212 82.875 90.5 81.5601 90.5 80.375V36.625C90.5 34.1959 89.0202 32.875 87.375 32.875H12.375Z" fill="#7A7A7C"/>
</svg>
