<svg xmlns="http://www.w3.org/2000/svg" data-name="Layer 1" viewBox="0 0 100 125" x="0px" y="0px"><title>16</title><g data-name="Group"><path data-name="Compound Path" d="M8.8,79.5A11.3,11.3,0,0,0,20.1,91.2h.4a11.2,11.2,0,0,0,8-3.9L71,40.9h1.7a13.7,13.7,0,0,0,9.7-4c7-7,8.3-22.9,8.5-24.7l.3-3.5-3.5.3C85.9,9.2,70,10.5,63,17.5a13.7,13.7,0,0,0-4,9.7,13.9,13.9,0,0,0,.1,1.7L12.7,71.4A11.3,11.3,0,0,0,8.8,79.5ZM67.3,21.8c3.6-3.6,11.8-5.5,17.3-6.3-.8,5.4-2.7,13.6-6.3,17.3a7.7,7.7,0,0,1-11,0h0a7.7,7.7,0,0,1,0-11ZM63,37h0A13.9,13.9,0,0,0,65,38.6l-8,8.8A5.3,5.3,0,0,1,52.6,43l8.8-8A13.9,13.9,0,0,0,63,37ZM16.7,75.9,47.9,47.4a11.1,11.1,0,0,0,4.7,4.7L24.1,83.4a5.3,5.3,0,0,1-9.2-3.6A5.3,5.3,0,0,1,16.7,75.9Z"/></g></svg>