<svg width="100" height="100" viewBox="0 0 100 100" fill="none" xmlns="http://www.w3.org/2000/svg">
<path fill-rule="evenodd" clip-rule="evenodd" d="M42.1888 23.8971V55.5555C42.1888 55.5742 42.1888 55.5939 42.1887 55.6146C42.1872 56.2309 42.1835 57.7034 43.4182 59.041L63.2976 84.4423C52.0375 92.0576 37.2638 92.0238 26.0449 83.8646L26.0452 83.8641L25.9973 83.8308C14.1462 75.5865 8.59058 60.1831 13.1471 47.0197L13.1479 47.02L13.1678 46.9577C17.2545 34.1868 28.4375 24.9981 42.1888 23.8971ZM46.1669 19.633C47.1389 20.605 47.7444 21.9929 47.7444 23.3333V55.5546L67.6275 80.9607C68.9011 82.3465 69.0448 84.1397 68.8107 85.4274C68.5912 86.6344 67.8902 88.2006 66.4134 89.0419C53.2641 97.9369 35.9494 97.9223 22.8008 88.3747C9.12157 78.8432 2.46568 60.9424 7.88648 45.2335C12.6484 30.3943 25.6848 19.6641 41.6979 18.3631C43.5397 17.9048 45.1451 18.6112 46.1669 19.633Z" fill="#7A7A7C"/>
<path fill-rule="evenodd" clip-rule="evenodd" d="M81.3345 33.1154L60.0534 53.8508C60.0272 53.9156 60.0033 53.9793 59.9821 54.0415C59.9377 54.171 59.9113 54.2752 59.8966 54.3541L78.2915 77.7658C84.3277 72.1361 88.3299 64.0347 88.8555 56.0238C88.8376 47.8611 86.3161 39.7391 81.3345 33.1154ZM85.6244 29.5777C84.6077 27.892 82.7194 27.5 81.5639 27.5C80.2217 27.5 78.6359 27.9676 77.4621 29.1318L55.4698 50.5602L55.2599 50.98C54.9223 51.6552 54.4742 52.7033 54.3555 53.8903C54.2341 55.1037 54.4533 56.6499 55.6437 57.9335L73.8352 81.0863C74.7547 82.4141 76.1069 83.364 77.7458 83.5279C79.3738 83.6907 80.8392 83.0307 81.8818 82.0127C89.0235 75.4479 93.8037 65.9173 94.4057 56.2844L94.4111 56.1978V56.1111C94.4111 46.7186 91.4973 37.2897 85.6244 29.5777Z" fill="#7A7A7C"/>
<path fill-rule="evenodd" clip-rule="evenodd" d="M57.7444 11.0757V35.5556C57.7444 35.6221 57.7539 35.6553 57.757 35.665C57.7603 35.6752 57.763 35.6794 57.7654 35.6827C57.7714 35.691 57.8013 35.7254 57.8733 35.7542C57.9399 35.7809 57.9997 35.7851 58.0342 35.7823L76.2998 18.0702C71.1639 14.0375 64.6309 11.0866 58.2277 10.5586C58.1725 10.5636 58.1425 10.5735 58.1295 10.5783C58.1115 10.5851 58.0854 10.5975 58.0458 10.6322C57.9818 10.6881 57.8664 10.8194 57.7444 11.0757ZM52.3314 9.67715C53.1202 7.31076 55.0359 5 58.3 5H58.4066L58.513 5.00818C66.3987 5.61477 74.1364 9.22297 80.0352 13.942L80.1554 14.0381L80.2641 14.1469C82.46 16.3428 82.46 19.7683 80.2641 21.9642L80.2339 21.9944L61.9131 39.7596C60.1587 41.4985 57.6853 41.6626 55.81 40.9124C53.8425 40.1254 52.1888 38.2129 52.1888 35.5556V10.1048L52.3314 9.67715Z" fill="#7A7A7C"/>
</svg>
