<svg xmlns="http://www.w3.org/2000/svg" xmlns:xlink="http://www.w3.org/1999/xlink" version="1.1" x="0px" y="0px" viewBox="0 0 20 25" style="enable-background:new 0 0 20 20;" xml:space="preserve"><style type="text/css">
	.st0{fill:none;stroke:#000000;stroke-linecap:round;stroke-linejoin:round;stroke-miterlimit:10;}
	.st1{fill:none;stroke:#000000;stroke-miterlimit:10;}
	.st2{fill:#3BACD9;}
	.st3{fill:#85E7FB;}
	.st4{fill:#4C565D;}
	.st5{fill:#FBBB59;stroke:#000000;stroke-miterlimit:10;}
	.st6{fill:#969FA6;}
	.st7{fill:none;}
	.st8{fill-rule:evenodd;clip-rule:evenodd;fill:#85E7FB;}
	.st9{fill:#2795B7;}
	.st10{fill:#FBBB59;}
	.st11{fill:#1BB978;}
	.st12{fill-rule:evenodd;clip-rule:evenodd;}
</style><g><path class="st1" d="M12.7,15.7c0.2,0.2,0.1,0.6-0.1,0.7c-2.2,1.5-5.1,1.5-7.3-0.1C3,14.7,1.9,11.7,2.8,9.1   c0.8-2.5,3-4.3,5.7-4.5C8.8,4.5,9,4.8,9,5v5.8c0,0.1,0,0.2,0.1,0.3L12.7,15.7z"/><path class="st1" d="M15.2,6.4c0.2-0.2,0.6-0.2,0.7,0c1,1.3,1.5,2.9,1.5,4.5c-0.1,1.6-0.9,3.2-2.1,4.3   c-0.2,0.2-0.5,0.2-0.7-0.1l-3.3-4.2c-0.2-0.2-0.1-0.5,0-0.7L15.2,6.4z"/><path class="st1" d="M11.4,2.2C12.7,2.3,14,2.9,15,3.7c0.2,0.2,0.2,0.5,0,0.7l-3.3,3.2c-0.3,0.3-0.9,0.1-0.9-0.4   V2.7C10.9,2.4,11.1,2.2,11.4,2.2z"/></g><text x="0" y="35" fill="#000000" font-size="5px" font-weight="bold" font-family="'Helvetica Neue', Helvetica, Arial-Unicode, Arial, Sans-serif">Created by Jemis mali</text><text x="0" y="40" fill="#000000" font-size="5px" font-weight="bold" font-family="'Helvetica Neue', Helvetica, Arial-Unicode, Arial, Sans-serif">from the Noun Project</text></svg>