<svg width="100" height="100" viewBox="0 0 100 100" fill="none" xmlns="http://www.w3.org/2000/svg">
<path fill-rule="evenodd" clip-rule="evenodd" d="M8.0611 12.0611C7.57102 12.5512 7.14286 13.383 7.14286 14.7143V64.7143C7.14286 66.0456 7.57102 66.8774 8.0611 67.3675C8.55117 67.8576 9.38303 68.2857 10.7143 68.2857H89.2857C90.617 68.2857 91.4488 67.8576 91.9389 67.3675C92.429 66.8774 92.8571 66.0456 92.8571 64.7143V14.7143C92.8571 13.383 92.429 12.5512 91.9389 12.0611C91.4488 11.571 90.617 11.1429 89.2857 11.1429H10.7143C9.38303 11.1429 8.55117 11.571 8.0611 12.0611ZM3.01033 7.01033C5.02026 5.00041 7.75983 4 10.7143 4H89.2857C92.2402 4 94.9797 5.00041 96.9897 7.01033C98.9996 9.02026 100 11.7598 100 14.7143V64.7143C100 67.6687 98.9996 70.4083 96.9897 72.4182C94.9797 74.4282 92.2402 75.4286 89.2857 75.4286H10.7143C7.75983 75.4286 5.02026 74.4282 3.01033 72.4182C1.00041 70.4083 0 67.6687 0 64.7143V14.7143C0 11.7598 1.00041 9.02026 3.01033 7.01033Z" fill="#7A7A7C"/>
<path fill-rule="evenodd" clip-rule="evenodd" d="M35.7143 71.8571C35.7143 69.8847 37.3133 68.2857 39.2857 68.2857H60.7143C62.6867 68.2857 64.2857 69.8847 64.2857 71.8571V93.2857C64.2857 95.2581 62.6867 96.8571 60.7143 96.8571H39.2857C37.3133 96.8571 35.7143 95.2581 35.7143 93.2857V71.8571ZM42.8572 75.4286V89.7143H57.1429V75.4286H42.8572Z" fill="#7A7A7C"/>
<path fill-rule="evenodd" clip-rule="evenodd" d="M21.4286 93.2857C21.4286 91.3133 23.0276 89.7143 25 89.7143H75C76.9725 89.7143 78.5714 91.3133 78.5714 93.2857C78.5714 95.2582 76.9725 96.8571 75 96.8571H25C23.0276 96.8571 21.4286 95.2582 21.4286 93.2857Z" fill="#7A7A7C"/>
<path fill-rule="evenodd" clip-rule="evenodd" d="M92.8571 61.1429H0V54H92.8571V61.1429Z" fill="#7A7A7C"/>
</svg>
