<svg xmlns="http://www.w3.org/2000/svg" xmlns:xlink="http://www.w3.org/1999/xlink" version="1.1" x="0px" y="0px" viewBox="0 0 20 25" style="enable-background:new 0 0 20 20;" xml:space="preserve"><style type="text/css">
	.st0{fill:none;stroke:#000000;stroke-linecap:round;stroke-linejoin:round;stroke-miterlimit:10;}
	.st1{fill:none;stroke:#000000;stroke-miterlimit:10;}
	.st2{fill:#3BACD9;}
	.st3{fill:#85E7FB;}
	.st4{fill:#4C565D;}
	.st5{fill:#FBBB59;stroke:#000000;stroke-miterlimit:10;}
	.st6{fill:#969FA6;}
	.st7{fill:none;}
	.st8{fill-rule:evenodd;clip-rule:evenodd;fill:#85E7FB;}
	.st9{fill:#2795B7;}
	.st10{fill:#FBBB59;}
	.st11{fill:#1BB978;}
	.st12{fill-rule:evenodd;clip-rule:evenodd;}
</style><path class="st1" d="M14.5,6h-3V3c0-0.6-0.4-1-1-1h-1c-0.6,0-1,0.4-1,1v3h-3c-0.6,0-1,0.4-1,1v1c0,0.6,0.4,1,1,1h3  v8c0,0.6,0.4,1,1,1h1c0.6,0,1-0.4,1-1V9h3c0.6,0,1-0.4,1-1V7C15.5,6.4,15.1,6,14.5,6z"/><text x="0" y="35" fill="#000000" font-size="5px" font-weight="bold" font-family="'Helvetica Neue', Helvetica, Arial-Unicode, Arial, Sans-serif">Created by Jemis mali</text><text x="0" y="40" fill="#000000" font-size="5px" font-weight="bold" font-family="'Helvetica Neue', Helvetica, Arial-Unicode, Arial, Sans-serif">from the Noun Project</text></svg>