<svg xmlns="http://www.w3.org/2000/svg" xmlns:xlink="http://www.w3.org/1999/xlink" version="1.1" x="0px" y="0px" viewBox="0 0 1024 1280" style="enable-background:new 0 0 1024 1024;" xml:space="preserve"><g><g><path d="M930.4,512.2c0,10.2-0.7,20.4-2,30.5c0.4-2.7,0.7-5.3,1.1-8c-2.7,20-8.1,39.6-15.9,58.2c1-2.4,2-4.8,3-7.2    c-4.4,10.3-9.5,20.3-15.3,29.8c-3,4.8-6.1,9.6-9.4,14.2c-0.8,1.1-1.5,2.1-2.3,3.2c-3.2,4.4,2.7-3.4,1.5-1.9    c-1.9,2.4-3.8,4.8-5.8,7.1c-7.2,8.5-15,16.4-23.3,23.7c-2,1.7-3.9,3.4-6,5.1c-1.2,1-2.4,1.9-3.6,2.9c-2.3,1.9,3.8-3.2,3.5-2.7    c-0.3,0.6-1.6,1.2-2.1,1.6c-4.4,3.3-8.9,6.4-13.4,9.3c-10.9,7-22.4,13-34.3,18.1c2.4-1,4.8-2,7.2-3c-18.7,7.8-38.2,13.1-58.2,15.8    c2.7-0.4,5.3-0.7,8-1.1c-20.3,2.6-40.8,2.6-61.1,0c2.7,0.4,5.3,0.7,8,1.1c-19.7-2.7-38.9-8-57.2-15.6c2.4,1,4.8,2,7.2,3    c-13.2-5.6-25.8-12.3-37.8-20.3c-3-2-5.9-4-8.7-6.1c-1-0.7-6.2-4.7-1.8-1.3c4.4,3.4-1.4-1.2-2.3-1.9c-5.5-4.5-10.7-9.3-15.8-14.3    c-9.3-9.2-16.5-18.8-31.2-19.3c-1,0-2,0-2.9,0c-5.9,0-11.8,0-17.7,0c-17.7,0-35.5,0-53.2,0c-6.8,0-13.6,0-20.4,0    c-1.8,0-3.6,0-5.4,0c-9.9,0.3-18,4.4-24.7,11.6c-5.3,5.8-10.9,11.3-16.8,16.5c-3,2.7-6.2,5.3-9.3,7.8c-1.5,1.2-4.4,3.2,2.5-1.9    c-0.8,0.6-1.6,1.2-2.4,1.8c-1.6,1.2-3.3,2.4-4.9,3.6c-13.4,9.4-27.8,17.3-42.8,23.8c2.4-1,4.8-2,7.2-3    c-18.4,7.7-37.5,12.9-57.2,15.6c2.7-0.4,5.3-0.7,8-1.1c-20.3,2.7-40.8,2.7-61.1,0c2.7,0.4,5.3,0.7,8,1.1    c-20-2.7-39.6-8.1-58.2-15.9c2.4,1,4.8,2,7.2,3c-10.3-4.4-20.3-9.5-29.9-15.3c-4.8-3-9.6-6.1-14.2-9.4c-1.1-0.8-2.1-1.5-3.2-2.3    c-1-0.8-5-3.8-0.6-0.4c4.5,3.4,0,0-1.1-0.9c-1.2-1-2.4-1.9-3.5-2.9c-8.5-7.2-16.4-15-23.8-23.3c-1.7-2-3.4-3.9-5.1-6    c-1-1.2-1.9-2.4-2.9-3.6c-2-2.3,3.3,3.9,2.7,3.5c-0.6-0.4-1.2-1.5-1.6-2.1c-3.3-4.4-6.4-8.9-9.3-13.4c-7-10.9-13-22.4-18.1-34.3    c1,2.4,2,4.8,3,7.2c-7.8-18.7-13.2-38.2-15.9-58.2c0.4,2.7,0.7,5.3,1.1,8c-2.6-20.2-2.6-40.7,0-60.9c-0.4,2.7-0.7,5.3-1.1,8    c2.7-20,8.1-39.6,15.9-58.2c-1,2.4-2,4.8-3,7.2c4.4-10.3,9.5-20.3,15.3-29.9c3-4.8,6.1-9.6,9.4-14.2c0.8-1.1,1.5-2.1,2.3-3.2    c0.8-1,3.8-5,0.4-0.6c-3.4,4.5,0,0,0.9-1.1c1-1.2,1.9-2.4,2.9-3.5c7.2-8.5,15-16.4,23.3-23.8c2-1.7,3.9-3.4,6-5.1    c1.2-1,2.4-1.9,3.6-2.9c2.3-2-3.9,3.3-3.5,2.7c0.4-0.6,1.5-1.2,2.1-1.6c4.4-3.3,8.9-6.4,13.4-9.3c10.9-7,22.4-13,34.3-18.1    c-2.4,1-4.8,2-7.2,3c18.7-7.8,38.2-13.2,58.2-15.9c-2.7,0.4-5.3,0.7-8,1.1c21.9-2.9,44.3-2,66.3-2c36.4,0,72.7,0,109.1,0    c45.1,0,90.2,0,135.3,0c38.2,0,76.3,0,114.5,0c17.7,0,35.5-0.4,53.3,0.1c7.8,0.2,15.7,0.9,23.5,1.9c-2.7-0.4-5.3-0.7-8-1.1    c20,2.7,39.6,8.1,58.2,15.9c-2.4-1-4.8-2-7.2-3c10.3,4.4,20.3,9.5,29.9,15.4c4.8,3,9.6,6.1,14.2,9.4c1.1,0.8,2.1,1.5,3.2,2.3    c4.4,3.2-3.4-2.7-1.9-1.5c2.4,1.9,4.8,3.8,7.1,5.8c8.5,7.2,16.4,15,23.8,23.3c1.7,2,3.4,4,5.1,6c1,1.2,1.9,2.4,2.9,3.6    c2,2.3-3.3-3.8-2.7-3.5c0.6,0.4,1.2,1.5,1.6,2.1c3.3,4.4,6.4,8.9,9.3,13.5c7,10.9,13,22.4,18.1,34.4c-1-2.4-2-4.8-3-7.2    c7.8,18.7,13.2,38.2,15.9,58.3c-0.4-2.7-0.7-5.3-1.1-8C929.7,491.9,930.4,502,930.4,512.2c0,15.7,13.8,30.7,30,30    c16.2-0.7,30.1-13.2,30-30c-0.2-76.6-35.2-152.5-95.5-200.3c-30.6-24.2-65.6-42.4-103.8-51.1c-20.8-4.7-42.1-6.7-63.4-6.7    c-30,0-59.9,0-89.9,0c-49.9,0-99.8,0-149.7,0c-46.4,0-92.8,0-139.2,0c-22.8,0-45.8-0.8-68.5,0.3c-39.7,1.9-78.5,12.7-113.4,31.8    c-34,18.6-62.6,45.1-85.3,76.3c-45.8,62.6-59.4,146.9-37.8,221.1c21.5,74.2,76.5,135.9,147.6,165.9    c78.8,33.3,172.6,25.3,243.6-23.3c17.6-12.1,34-25.9,48.2-41.8c-7.1,2.9-14.1,5.9-21.2,8.8c29.3,0,58.5,0,87.8,0    c4.2,0,8.4,0,12.6,0c-7.1-2.9-14.1-5.9-21.2-8.8c29.5,33,67.6,57.6,109.4,72.1c41.7,14.4,86.7,16.5,130,8.9    c73.9-13,140.4-61.5,177-126.8c21.6-38.5,32.9-82.2,33-126.3c0-15.7-13.8-30.7-30-30C944.1,483,930.5,495.4,930.4,512.2z"/></g></g><g><g><path d="M730.7,422.3c0,0.9-0.1,1.8-0.2,2.7c0.4-2.7,0.7-5.3,1.1-8c-0.3,1.8-0.8,3.4-1.4,5.1c1-2.4,2-4.8,3-7.2    c-0.4,0.8-0.8,1.5-1.2,2.3c-2,4,4.3-4.7,1.9-2.6c-1.9,1.7,5.6-3,3.1-2.3c-0.8,0.2-2,1.2-2.8,1.6c2.4-1,4.8-2,7.2-3    c-1.7,0.7-3.3,1.1-5.1,1.4c2.7-0.4,5.3-0.7,8-1.1c-1.8,0.2-3.6,0.2-5.4,0c2.7,0.4,5.3,0.7,8,1.1c-1.8-0.3-3.4-0.8-5.1-1.4    c2.4,1,4.8,2,7.2,3c-0.8-0.4-1.5-0.8-2.3-1.2c-4-2,4.7,4.3,2.6,1.9c-1.7-1.9,3,5.6,2.3,3.1c-0.2-0.8-1.2-2-1.6-2.8    c1,2.4,2,4.8,3,7.2c-0.7-1.7-1.1-3.3-1.4-5.1c0.4,2.7,0.7,5.3,1.1,8c-0.2-1.8-0.2-3.6,0-5.4c-0.4,2.7-0.7,5.3-1.1,8    c0.3-1.8,0.8-3.4,1.4-5.1c-1,2.4-2,4.8-3,7.2c0.4-0.8,0.8-1.5,1.2-2.3c2-4-4.3,4.7-1.9,2.6c1.9-1.7-5.6,3-3.1,2.3    c0.8-0.2,2-1.2,2.8-1.6c-2.4,1-4.8,2-7.2,3c1.7-0.7,3.3-1.1,5.1-1.4c-2.7,0.4-5.3,0.7-8,1.1c1.8-0.2,3.6-0.2,5.4,0    c-2.7-0.4-5.3-0.7-8-1.1c1.8,0.3,3.4,0.8,5.1,1.4c-2.4-1-4.8-2-7.2-3c0.8,0.4,1.5,0.8,2.3,1.2c4,2-4.7-4.3-2.6-1.9    c1.7,1.9-3-5.6-2.3-3.1c0.2,0.8,1.2,2,1.6,2.8c-1-2.4-2-4.8-3-7.2c0.7,1.7,1.1,3.3,1.4,5.1c-0.4-2.7-0.7-5.3-1.1-8    C730.6,420.5,730.7,421.4,730.7,422.3c0.6,15.7,13.4,30.7,30,30c15.8-0.7,30.6-13.2,30-30c-0.9-26.7-21.8-49.2-49.2-49.2    c-26.7,0-49.2,22.5-49.2,49.2c0,26.6,22.5,49.3,49.2,49.2c27.5-0.1,48.3-22.4,49.2-49.2c0.6-15.7-14.2-30.7-30-30    C743.9,393,731.2,405.4,730.7,422.3z"/></g></g><g><g><path d="M733.3,602.3c0,0.9-0.1,1.8-0.2,2.7c0.4-2.7,0.7-5.3,1.1-8c-0.3,1.8-0.8,3.4-1.4,5.1c1-2.4,2-4.8,3-7.2    c-0.4,0.8-0.8,1.5-1.2,2.3c-2,4,4.3-4.7,1.9-2.6c-1.9,1.7,5.6-3,3.1-2.3c-0.8,0.2-2,1.2-2.8,1.6c2.4-1,4.8-2,7.2-3    c-1.7,0.7-3.3,1.1-5.1,1.4c2.7-0.4,5.3-0.7,8-1.1c-1.8,0.2-3.6,0.2-5.4,0c2.7,0.4,5.3,0.7,8,1.1c-1.8-0.3-3.4-0.8-5.1-1.4    c2.4,1,4.8,2,7.2,3c-0.8-0.4-1.5-0.8-2.3-1.2c-4-2,4.7,4.3,2.6,1.9c-1.7-1.9,3,5.6,2.3,3.1c-0.2-0.8-1.2-2-1.6-2.8    c1,2.4,2,4.8,3,7.2c-0.7-1.7-1.1-3.3-1.4-5.1c0.4,2.7,0.7,5.3,1.1,8c-0.2-1.8-0.2-3.6,0-5.4c-0.4,2.7-0.7,5.3-1.1,8    c0.3-1.8,0.8-3.4,1.4-5.1c-1,2.4-2,4.8-3,7.2c0.4-0.8,0.8-1.5,1.2-2.3c2-4-4.3,4.7-1.9,2.6c1.9-1.7-5.6,3-3.1,2.3    c0.8-0.2,2-1.2,2.8-1.6c-2.4,1-4.8,2-7.2,3c1.7-0.7,3.3-1.1,5.1-1.4c-2.7,0.4-5.3,0.7-8,1.1c1.8-0.2,3.6-0.2,5.4,0    c-2.7-0.4-5.3-0.7-8-1.1c1.8,0.3,3.4,0.8,5.1,1.4c-2.4-1-4.8-2-7.2-3c0.8,0.4,1.5,0.8,2.3,1.2c4,2-4.7-4.3-2.6-1.9    c1.7,1.9-3-5.6-2.3-3.1c0.2,0.8,1.2,2,1.6,2.8c-1-2.4-2-4.8-3-7.2c0.7,1.7,1.1,3.3,1.4,5.1c-0.4-2.7-0.7-5.3-1.1-8    C733.3,600.5,733.3,601.4,733.3,602.3c0.6,15.7,13.4,30.7,30,30c15.8-0.7,30.6-13.2,30-30c-0.9-26.7-21.8-49.2-49.2-49.2    c-26.7,0-49.2,22.5-49.2,49.2c0,26.6,22.5,49.3,49.2,49.2c27.5-0.1,48.3-22.4,49.2-49.2c0.6-15.7-14.2-30.7-30-30    C746.6,573.1,733.9,585.5,733.3,602.3z"/></g></g><g><g><path d="M653,523.1c0.9,0,1.8,0.1,2.7,0.2c-2.7-0.4-5.3-0.7-8-1.1c1.8,0.3,3.4,0.8,5.1,1.4c-2.4-1-4.8-2-7.2-3    c0.8,0.4,1.5,0.8,2.3,1.2c4,2-4.7-4.3-2.6-1.9c1.7,1.9-3-5.6-2.3-3.1c0.2,0.8,1.2,2,1.6,2.8c-1-2.4-2-4.8-3-7.2    c0.7,1.7,1.1,3.3,1.4,5.1c-0.4-2.7-0.7-5.3-1.1-8c0.2,1.8,0.2,3.6,0,5.4c0.4-2.7,0.7-5.3,1.1-8c-0.3,1.8-0.8,3.4-1.4,5.1    c1-2.4,2-4.8,3-7.2c-0.4,0.8-0.8,1.5-1.2,2.3c-2,4,4.3-4.7,1.9-2.6c-1.9,1.7,5.6-3,3.1-2.3c-0.8,0.2-2,1.2-2.8,1.6    c2.4-1,4.8-2,7.2-3c-1.7,0.7-3.3,1.1-5.1,1.4c2.7-0.4,5.3-0.7,8-1.1c-1.8,0.2-3.6,0.2-5.4,0c2.7,0.4,5.3,0.7,8,1.1    c-1.8-0.3-3.4-0.8-5.1-1.4c2.4,1,4.8,2,7.2,3c-0.8-0.4-1.5-0.8-2.3-1.2c-4-2,4.7,4.3,2.6,1.9c-1.7-1.9,3,5.6,2.3,3.1    c-0.2-0.8-1.2-2-1.6-2.8c1,2.4,2,4.8,3,7.2c-0.7-1.7-1.1-3.3-1.4-5.1c0.4,2.7,0.7,5.3,1.1,8c-0.2-1.8-0.2-3.6,0-5.4    c-0.4,2.7-0.7,5.3-1.1,8c0.3-1.8,0.8-3.4,1.4-5.1c-1,2.4-2,4.8-3,7.2c0.4-0.8,0.8-1.5,1.2-2.3c2-4-4.3,4.7-1.9,2.6    c1.9-1.7-5.6,3-3.1,2.3c0.8-0.2,2-1.2,2.8-1.6c-2.4,1-4.8,2-7.2,3c1.7-0.7,3.3-1.1,5.1-1.4c-2.7,0.4-5.3,0.7-8,1.1    C651.2,523.1,652.1,523.1,653,523.1c15.7-0.6,30.7-13.4,30-30c-0.7-15.8-13.2-30.6-30-30c-26.7,0.9-49.2,21.8-49.2,49.2    c0,26.7,22.5,49.2,49.2,49.2c26.6,0,49.3-22.5,49.2-49.2c-0.1-27.5-22.4-48.3-49.2-49.2c-15.7-0.6-30.7,14.2-30,30    C623.7,509.8,636.2,522.5,653,523.1z"/></g></g><g><g><path d="M833.1,523.1c0.9,0,1.8,0.1,2.7,0.2c-2.7-0.4-5.3-0.7-8-1.1c1.8,0.3,3.4,0.8,5.1,1.4c-2.4-1-4.8-2-7.2-3    c0.8,0.4,1.5,0.8,2.3,1.2c4,2-4.7-4.3-2.6-1.9c1.7,1.9-3-5.6-2.3-3.1c0.2,0.8,1.2,2,1.6,2.8c-1-2.4-2-4.8-3-7.2    c0.7,1.7,1.1,3.3,1.4,5.1c-0.4-2.7-0.7-5.3-1.1-8c0.2,1.8,0.2,3.6,0,5.4c0.4-2.7,0.7-5.3,1.1-8c-0.3,1.8-0.8,3.4-1.4,5.1    c1-2.4,2-4.8,3-7.2c-0.4,0.8-0.8,1.5-1.2,2.3c-2,4,4.3-4.7,1.9-2.6c-1.9,1.7,5.6-3,3.1-2.3c-0.8,0.2-2,1.2-2.8,1.6    c2.4-1,4.8-2,7.2-3c-1.7,0.7-3.3,1.1-5.1,1.4c2.7-0.4,5.3-0.7,8-1.1c-1.8,0.2-3.6,0.2-5.4,0c2.7,0.4,5.3,0.7,8,1.1    c-1.8-0.3-3.4-0.8-5.1-1.4c2.4,1,4.8,2,7.2,3c-0.8-0.4-1.5-0.8-2.3-1.2c-4-2,4.7,4.3,2.6,1.9c-1.7-1.9,3,5.6,2.3,3.1    c-0.2-0.8-1.2-2-1.6-2.8c1,2.4,2,4.8,3,7.2c-0.7-1.7-1.1-3.3-1.4-5.1c0.4,2.7,0.7,5.3,1.1,8c-0.2-1.8-0.2-3.6,0-5.4    c-0.4,2.7-0.7,5.3-1.1,8c0.3-1.8,0.8-3.4,1.4-5.1c-1,2.4-2,4.8-3,7.2c0.4-0.8,0.8-1.5,1.2-2.3c2-4-4.3,4.7-1.9,2.6    c1.9-1.7-5.6,3-3.1,2.3c0.8-0.2,2-1.2,2.8-1.6c-2.4,1-4.8,2-7.2,3c1.7-0.7,3.3-1.1,5.1-1.4c-2.7,0.4-5.3,0.7-8,1.1    C831.3,523.1,832.2,523.1,833.1,523.1c15.7-0.6,30.7-13.4,30-30c-0.7-15.8-13.2-30.6-30-30c-26.7,0.9-49.2,21.8-49.2,49.2    c0,26.7,22.5,49.2,49.2,49.2c26.6,0,49.3-22.5,49.2-49.2c-0.1-27.5-22.4-48.3-49.2-49.2c-15.7-0.6-30.7,14.2-30,30    C803.8,509.8,816.2,522.5,833.1,523.1z"/></g></g><g><g><path d="M325.7,607.3c0-21.5,0-43,0-64.5c0-34.2,0-68.5,0-102.7c0-7.8,0-15.7,0-23.5c0-15.7-13.8-30.7-30-30    c-16.3,0.7-30,13.2-30,30c0,21.5,0,43,0,64.5c0,34.2,0,68.5,0,102.7c0,7.8,0,15.7,0,23.5c0,15.7,13.8,30.7,30,30    C312,636.6,325.7,624.2,325.7,607.3L325.7,607.3z"/></g></g><g><g><path d="M391.1,482c-21.5,0-43,0-64.5,0c-34.2,0-68.5,0-102.7,0c-7.8,0-15.7,0-23.5,0c-15.7,0-30.7,13.8-30,30    c0.7,16.3,13.2,30,30,30c21.5,0,43,0,64.5,0c34.2,0,68.5,0,102.7,0c7.8,0,15.7,0,23.5,0c15.7,0,30.7-13.8,30-30    C420.3,495.7,407.9,482,391.1,482L391.1,482z"/></g></g></svg>