<svg width="100" height="100" viewBox="0 0 100 100" fill="none" xmlns="http://www.w3.org/2000/svg">
<path d="M93.5834 49.9709C93.5834 51.0356 93.5103 52.1003 93.3746 53.1546C93.4164 52.8728 93.4477 52.6014 93.4895 52.3195C93.2076 54.4072 92.6439 56.4531 91.8298 58.3947C91.9341 58.1442 92.0385 57.8936 92.1429 57.6431C91.6836 58.7183 91.1513 59.7621 90.5458 60.7538C90.2327 61.2548 89.9091 61.7558 89.5646 62.236C89.4811 62.3508 89.408 62.4552 89.3245 62.57C88.9905 63.0293 89.6064 62.2151 89.4811 62.3717C89.2828 62.6222 89.0845 62.8727 88.8757 63.1128C88.1241 64.0001 87.3099 64.8247 86.4435 65.5867C86.2348 65.7642 86.0364 65.9416 85.8172 66.1191C85.692 66.2235 85.5667 66.3174 85.4415 66.4218C85.2014 66.6201 85.8381 66.0878 85.8068 66.14C85.7755 66.2026 85.6398 66.2652 85.5876 66.307C85.1283 66.6515 84.6586 66.975 84.1888 67.2778C83.0511 68.0085 81.8506 68.6348 80.6085 69.1671C80.859 69.0627 81.1095 68.9583 81.36 68.854C79.408 69.6682 77.3726 70.2214 75.2849 70.5032C75.5667 70.4615 75.8381 70.4302 76.1199 70.3884C74.0009 70.6598 71.8611 70.6598 69.7421 70.3884C70.0239 70.4302 70.2953 70.4615 70.5772 70.5032C68.5208 70.2214 66.5166 69.6682 64.6064 68.8748C64.8569 68.9792 65.1074 69.0836 65.3579 69.188C63.9801 68.6034 62.6648 67.9041 61.4122 67.069C61.0991 66.8602 60.7964 66.6515 60.5041 66.4323C60.3997 66.3592 59.8569 65.9416 60.3162 66.2965C60.7755 66.6515 60.1701 66.1713 60.0761 66.0982C59.502 65.6285 58.9592 65.1275 58.4268 64.6055C57.4561 63.6452 56.7045 62.6431 55.1701 62.5909C55.0657 62.5909 54.9613 62.5909 54.8673 62.5909C54.2515 62.5909 53.6356 62.5909 53.0197 62.5909C51.1721 62.5909 49.3141 62.5909 47.4665 62.5909C46.7567 62.5909 46.0469 62.5909 45.3371 62.5909C45.1492 62.5909 44.9613 62.5909 44.7734 62.5909C43.74 62.6222 42.8945 63.0502 42.1951 63.8018C41.6419 64.4072 41.0573 64.9813 40.4415 65.5241C40.1283 65.8059 39.7943 66.0773 39.4707 66.3383C39.3141 66.4636 39.0114 66.6723 39.7316 66.14C39.6481 66.2026 39.5646 66.2652 39.4811 66.3279C39.3141 66.4531 39.1367 66.5784 38.9696 66.7036C37.5709 67.6849 36.0678 68.5095 34.502 69.188C34.7525 69.0836 35.003 68.9792 35.2536 68.8748C33.3329 69.6786 31.3392 70.2214 29.2828 70.5032C29.5646 70.4615 29.836 70.4302 30.1179 70.3884C27.9989 70.6702 25.859 70.6702 23.74 70.3884C24.0218 70.4302 24.2932 70.4615 24.5751 70.5032C22.4874 70.2214 20.4415 69.6577 18.4999 68.8435C18.7504 68.9479 19.001 69.0523 19.2515 69.1567C18.1763 68.6974 17.1325 68.165 16.1304 67.5596C15.6294 67.2464 15.1283 66.9229 14.6481 66.5784C14.5333 66.4949 14.4289 66.4218 14.3141 66.3383C14.2097 66.2548 13.7922 65.9416 14.2515 66.2965C14.7212 66.6515 14.2515 66.2966 14.1367 66.2026C14.0114 66.0982 13.8861 66.0043 13.7713 65.8999C12.8841 65.1483 12.0594 64.3341 11.287 63.4677C11.1095 63.259 10.9321 63.0606 10.7546 62.8414C10.6502 62.7162 10.5563 62.5909 10.4519 62.4657C10.2431 62.2256 10.7964 62.8728 10.7337 62.831C10.6711 62.7892 10.6085 62.6744 10.5667 62.6118C10.2223 62.1525 9.89867 61.6828 9.59596 61.213C8.86527 60.0753 8.23896 58.8748 7.70661 57.6327C7.81099 57.8832 7.91537 58.1337 8.01976 58.3842C7.20556 56.4322 6.64189 54.3968 6.36005 52.3091C6.4018 52.5909 6.43312 52.8623 6.47487 53.1441C6.20347 51.0356 6.20347 48.8957 6.47487 46.7872C6.43312 47.069 6.4018 47.3404 6.36005 47.6222C6.64189 45.5345 7.20556 43.4886 8.01976 41.5471C7.91537 41.7976 7.81099 42.0481 7.70661 42.2986C8.1659 41.2235 8.69825 40.1796 9.30368 39.1776C9.61683 38.6765 9.94042 38.1755 10.2849 37.6953C10.3684 37.5805 10.4415 37.4761 10.525 37.3613C10.6085 37.2569 10.9216 36.8393 10.5667 37.2986C10.2118 37.7684 10.5667 37.2986 10.6607 37.1838C10.7651 37.0586 10.859 36.9333 10.9634 36.8185C11.715 35.9312 12.5292 35.1066 13.3955 34.3341C13.6043 34.1567 13.8026 33.9792 14.0218 33.8018C14.1471 33.6974 14.2724 33.6034 14.3976 33.4991C14.6377 33.2903 13.9905 33.8435 14.0323 33.7809C14.074 33.7183 14.1889 33.6556 14.2515 33.6139C14.7108 33.2694 15.1805 32.9458 15.6502 32.6431C16.788 31.9124 17.9884 31.2861 19.2306 30.7538C18.9801 30.8581 18.7296 30.9625 18.479 31.0669C20.431 30.2527 22.4665 29.689 24.5542 29.4072C24.2724 29.449 24.001 29.4803 23.7191 29.522C26.0051 29.2193 28.3433 29.3132 30.6398 29.3132C34.4394 29.3132 38.2285 29.3132 42.0281 29.3132C46.7358 29.3132 51.4435 29.3132 56.1513 29.3132C60.1387 29.3132 64.1158 29.3132 68.1032 29.3132C69.9508 29.3132 71.8089 29.2715 73.6669 29.3237C74.4811 29.3446 75.3058 29.4176 76.1199 29.522C75.8381 29.4803 75.5667 29.449 75.2849 29.4072C77.3726 29.689 79.4185 30.2527 81.36 31.0669C81.1095 30.9625 80.859 30.8581 80.6085 30.7538C81.6836 31.213 82.7275 31.7454 83.7296 32.3613C84.2306 32.6744 84.7316 32.998 85.2118 33.3425C85.3266 33.426 85.431 33.4991 85.5458 33.5826C86.0051 33.9166 85.1909 33.3007 85.3475 33.426C85.598 33.6243 85.8485 33.8226 86.0886 34.0314C86.9759 34.783 87.8005 35.5972 88.573 36.4636C88.7504 36.6723 88.9279 36.8811 89.1053 37.0899C89.2097 37.2151 89.3037 37.3404 89.408 37.4657C89.6168 37.7057 89.0636 37.069 89.1262 37.1003C89.1888 37.1421 89.2515 37.2569 89.2932 37.3195C89.6377 37.7788 89.9613 38.2485 90.264 38.7287C90.9947 39.8665 91.621 41.0669 92.1533 42.3195C92.049 42.069 91.9446 41.8185 91.8402 41.5679C92.6544 43.5199 93.2181 45.5554 93.4999 47.6535C93.4581 47.3717 93.4268 47.1003 93.3851 46.8185C93.5103 47.8519 93.5834 48.9062 93.5834 49.9709C93.5834 51.6097 95.0239 53.1755 96.7149 53.1024C98.406 53.0293 99.8569 51.7245 99.8465 49.9709C99.8256 41.975 96.1721 34.0523 89.8778 29.0627C86.6836 26.5366 83.0302 24.6368 79.0427 23.7287C76.8715 23.2381 74.6481 23.0293 72.4248 23.0293C69.2932 23.0293 66.1721 23.0293 63.0406 23.0293C57.8319 23.0293 52.6231 23.0293 47.4143 23.0293C42.5709 23.0293 37.7275 23.0293 32.8841 23.0293C30.5041 23.0293 28.1033 22.9458 25.7337 23.0606C21.5897 23.259 17.5396 24.3863 13.8966 26.3801C10.3475 28.3216 7.36214 31.0878 4.99262 34.3446C0.211827 40.879 -1.2078 49.6786 1.0469 57.4239C3.29116 65.1692 9.03228 71.6097 16.454 74.7412C24.6795 78.2172 34.4707 77.3821 41.882 72.3091C43.7191 71.046 45.431 69.6055 46.9133 67.9458C46.1721 68.2485 45.4415 68.5617 44.7003 68.8644C47.7588 68.8644 50.8068 68.8644 53.8653 68.8644C54.3037 68.8644 54.7421 68.8644 55.1805 68.8644C54.4394 68.5617 53.7087 68.2485 52.9676 67.9458C56.0469 71.3905 60.0239 73.9583 64.3872 75.4719C68.74 76.975 73.4373 77.1943 77.9571 76.4009C85.6711 75.0439 92.6126 69.9813 96.4331 63.165C98.6878 59.1462 99.8673 54.5846 99.8778 49.9813C99.8778 48.3425 98.4373 46.7767 96.7462 46.8498C95.0135 46.9229 93.5939 48.2172 93.5834 49.9709Z" fill="#7A7A7C"/>
<path d="M72.7378 40.5868C72.7378 40.6807 72.7274 40.7747 72.717 40.8686C72.7587 40.5868 72.79 40.3154 72.8318 40.0336C72.8005 40.2214 72.7483 40.3885 72.6857 40.5659C72.79 40.3154 72.8944 40.0649 72.9988 39.8143C72.9571 39.8979 72.9153 39.9709 72.8735 40.0544C72.6648 40.472 73.3224 39.5638 73.0719 39.783C72.8735 39.9605 73.6564 39.4699 73.3955 39.5429C73.312 39.5638 73.1867 39.6682 73.1032 39.71C73.3537 39.6056 73.6042 39.5012 73.8548 39.3968C73.6773 39.4699 73.5103 39.5116 73.3224 39.5429C73.6042 39.5012 73.8756 39.4699 74.1575 39.4281C73.9696 39.449 73.7817 39.449 73.5938 39.4281C73.8756 39.4699 74.147 39.5012 74.4289 39.5429C74.241 39.5116 74.074 39.4594 73.8965 39.3968C74.147 39.5012 74.3976 39.6056 74.6481 39.71C74.5646 39.6682 74.4915 39.6265 74.408 39.5847C73.9905 39.3759 74.8986 40.0336 74.6794 39.783C74.5019 39.5847 74.9925 40.3676 74.9195 40.1066C74.8986 40.0231 74.7942 39.8979 74.7525 39.8143C74.8568 40.0649 74.9612 40.3154 75.0656 40.5659C74.9925 40.3885 74.9508 40.2214 74.9195 40.0336C74.9612 40.3154 74.9925 40.5868 75.0343 40.8686C75.0134 40.6807 75.0134 40.4928 75.0343 40.305C74.9925 40.5868 74.9612 40.8582 74.9195 41.14C74.9508 40.9521 75.003 40.7851 75.0656 40.6077C74.9612 40.8582 74.8568 41.1087 74.7525 41.3592C74.7942 41.2757 74.836 41.2027 74.8777 41.1191C75.0865 40.7016 74.4289 41.6098 74.6794 41.3905C74.8777 41.2131 74.0948 41.7037 74.3558 41.6306C74.4393 41.6098 74.5646 41.5054 74.6481 41.4636C74.3976 41.568 74.147 41.6724 73.8965 41.7768C74.074 41.7037 74.241 41.6619 74.4289 41.6306C74.147 41.6724 73.8756 41.7037 73.5938 41.7455C73.7817 41.7246 73.9696 41.7246 74.1575 41.7455C73.8756 41.7037 73.6042 41.6724 73.3224 41.6306C73.5103 41.6619 73.6773 41.7141 73.8548 41.7768C73.6042 41.6724 73.3537 41.568 73.1032 41.4636C73.1867 41.5054 73.2598 41.5471 73.3433 41.5889C73.7608 41.7976 72.8527 41.14 73.0719 41.3905C73.2493 41.5889 72.7587 40.806 72.8318 41.067C72.8527 41.1505 72.9571 41.2757 72.9988 41.3592C72.8944 41.1087 72.79 40.8582 72.6857 40.6077C72.7587 40.7851 72.8005 40.9521 72.8318 41.14C72.79 40.8582 72.7587 40.5868 72.717 40.305C72.7274 40.3989 72.7378 40.4928 72.7378 40.5868C72.8005 42.2256 74.1366 43.7914 75.8694 43.7183C77.5186 43.6452 79.0635 42.3404 79.0009 40.5868C78.907 37.7997 76.7253 35.4511 73.8652 35.4511C71.0781 35.4511 68.7295 37.7997 68.7295 40.5868C68.7295 43.3634 71.0781 45.7329 73.8652 45.7225C76.7358 45.712 78.907 43.3843 79.0009 40.5868C79.0635 38.948 77.5186 37.3822 75.8694 37.4553C74.1157 37.5283 72.79 38.8227 72.7378 40.5868Z" fill="#7A7A7C"/>
<path d="M73.0093 59.3759C73.0093 59.4699 72.9989 59.5638 72.9884 59.6578C73.0302 59.3759 73.0615 59.1045 73.1033 58.8227C73.072 59.0106 73.0198 59.1776 72.9571 59.355C73.0615 59.1045 73.1659 58.854 73.2703 58.6035C73.2285 58.687 73.1868 58.7601 73.145 58.8436C72.9363 59.2611 73.5939 58.353 73.3434 58.5722C73.145 58.7496 73.9279 58.259 73.6669 58.3321C73.5834 58.353 73.4582 58.4573 73.3747 58.4991C73.6252 58.3947 73.8757 58.2903 74.1262 58.1859C73.9488 58.259 73.7818 58.3008 73.5939 58.3321C73.8757 58.2903 74.1471 58.259 74.4289 58.2173C74.2411 58.2381 74.0532 58.2381 73.8653 58.2173C74.1471 58.259 74.4185 58.2903 74.7003 58.3321C74.5125 58.3008 74.3454 58.2486 74.168 58.1859C74.4185 58.2903 74.669 58.3947 74.9195 58.4991C74.836 58.4573 74.763 58.4156 74.6795 58.3738C74.2619 58.1651 75.1701 58.8227 74.9509 58.5722C74.7734 58.3738 75.264 59.1567 75.191 58.8958C75.1701 58.8122 75.0657 58.687 75.0239 58.6035C75.1283 58.854 75.2327 59.1045 75.3371 59.355C75.264 59.1776 75.2223 59.0106 75.191 58.8227C75.2327 59.1045 75.264 59.3759 75.3058 59.6578C75.2849 59.4699 75.2849 59.282 75.3058 59.0941C75.264 59.3759 75.2327 59.6473 75.191 59.9292C75.2223 59.7413 75.2745 59.5742 75.3371 59.3968C75.2327 59.6473 75.1283 59.8978 75.0239 60.1484C75.0657 60.0649 75.1074 59.9918 75.1492 59.9083C75.358 59.4907 74.7003 60.3989 74.9509 60.1797C75.1492 60.0022 74.3663 60.4928 74.6273 60.4198C74.7108 60.3989 74.836 60.2945 74.9195 60.2527C74.669 60.3571 74.4185 60.4615 74.168 60.5659C74.3454 60.4928 74.5125 60.4511 74.7003 60.4198C74.4185 60.4615 74.1471 60.4928 73.8653 60.5346C74.0532 60.5137 74.2411 60.5137 74.4289 60.5346C74.1471 60.4928 73.8757 60.4615 73.5939 60.4198C73.7818 60.4511 73.9488 60.5033 74.1262 60.5659C73.8757 60.4615 73.6252 60.3571 73.3747 60.2527C73.4582 60.2945 73.5312 60.3363 73.6147 60.378C74.0323 60.5868 73.1241 59.9292 73.3434 60.1797C73.5208 60.378 73.0302 59.5951 73.1033 59.8561C73.1241 59.9396 73.2285 60.0649 73.2703 60.1484C73.1659 59.8978 73.0615 59.6473 72.9571 59.3968C73.0302 59.5742 73.072 59.7413 73.1033 59.9292C73.0615 59.6473 73.0302 59.3759 72.9884 59.0941C73.0093 59.188 73.0093 59.282 73.0093 59.3759C73.072 61.0147 74.4081 62.5805 76.1408 62.5074C77.7901 62.4344 79.335 61.1296 79.2724 59.3759C79.1784 56.5889 76.9968 54.2402 74.1367 54.2402C71.3496 54.2402 69.001 56.5889 69.001 59.3759C69.001 62.1525 71.3496 64.5221 74.1367 64.5116C77.0072 64.5012 79.1784 62.1734 79.2724 59.3759C79.335 57.7371 77.7901 56.1713 76.1408 56.2444C74.3976 56.3279 73.072 57.6223 73.0093 59.3759Z" fill="#7A7A7C"/>
<path d="M64.6273 51.1087C64.7212 51.1087 64.8152 51.1191 64.9091 51.1295C64.6273 51.0878 64.3559 51.0565 64.0741 51.0147C64.2619 51.046 64.429 51.0982 64.6064 51.1609C64.3559 51.0565 64.1054 50.9521 63.8548 50.8477C63.9384 50.8895 64.0114 50.9312 64.0949 50.973C64.5125 51.1817 63.6043 50.5241 63.8235 50.7746C64.001 50.973 63.5104 50.1901 63.5834 50.451C63.6043 50.5346 63.7087 50.6598 63.7505 50.7433C63.6461 50.4928 63.5417 50.2423 63.4373 49.9918C63.5104 50.1692 63.5521 50.3362 63.5834 50.5241C63.5417 50.2423 63.5104 49.9709 63.4686 49.689C63.4895 49.8769 63.4895 50.0648 63.4686 50.2527C63.5104 49.9709 63.5417 49.6995 63.5834 49.4176C63.5521 49.6055 63.4999 49.7726 63.4373 49.95C63.5417 49.6995 63.6461 49.449 63.7505 49.1984C63.7087 49.2819 63.667 49.355 63.6252 49.4385C63.4164 49.8561 64.0741 48.9479 63.8235 49.1671C63.6252 49.3446 64.4081 48.854 64.1471 48.927C64.0636 48.9479 63.9384 49.0523 63.8548 49.0941C64.1054 48.9897 64.3559 48.8853 64.6064 48.7809C64.429 48.854 64.2619 48.8957 64.0741 48.927C64.3559 48.8853 64.6273 48.854 64.9091 48.8122C64.7212 48.8331 64.5333 48.8331 64.3455 48.8122C64.6273 48.854 64.8987 48.8853 65.1805 48.927C64.9926 48.8957 64.8256 48.8435 64.6482 48.7809C64.8987 48.8853 65.1492 48.9897 65.3997 49.0941C65.3162 49.0523 65.2432 49.0105 65.1596 48.9688C64.7421 48.76 65.6503 49.4176 65.4311 49.1671C65.2536 48.9688 65.7442 49.7517 65.6711 49.4907C65.6503 49.4072 65.5459 49.2819 65.5041 49.1984C65.6085 49.449 65.7129 49.6995 65.8173 49.95C65.7442 49.7726 65.7025 49.6055 65.6711 49.4176C65.7129 49.6995 65.7442 49.9709 65.786 50.2527C65.7651 50.0648 65.7651 49.8769 65.786 49.689C65.7442 49.9709 65.7129 50.2423 65.6711 50.5241C65.7025 50.3362 65.7546 50.1692 65.8173 49.9918C65.7129 50.2423 65.6085 50.4928 65.5041 50.7433C65.5459 50.6598 65.5876 50.5867 65.6294 50.5032C65.8381 50.0857 65.1805 50.9939 65.4311 50.7746C65.6294 50.5972 64.8465 51.0878 65.1075 51.0147C65.191 50.9938 65.3162 50.8895 65.3997 50.8477C65.1492 50.9521 64.8987 51.0565 64.6482 51.1609C64.8256 51.0878 64.9926 51.046 65.1805 51.0147C64.8987 51.0565 64.6273 51.0878 64.3455 51.1295C64.4394 51.1087 64.5333 51.1087 64.6273 51.1087C66.2661 51.046 67.8319 49.7099 67.7588 47.9771C67.6858 46.3279 66.3809 44.783 64.6273 44.8456C61.8402 44.9396 59.4916 47.1212 59.4916 49.9813C59.4916 52.7684 61.8402 55.117 64.6273 55.117C67.4039 55.117 69.7734 52.7684 69.763 49.9813C69.7526 47.1108 67.4248 44.9396 64.6273 44.8456C62.9885 44.783 61.4227 46.3279 61.4958 47.9771C61.5688 49.7204 62.8736 51.046 64.6273 51.1087Z" fill="#7A7A7C"/>
<path d="M83.4268 51.1087C83.5208 51.1087 83.6147 51.1191 83.7087 51.1295C83.4268 51.0878 83.1554 51.0565 82.8736 51.0147C83.0615 51.046 83.2285 51.0982 83.406 51.1609C83.1554 51.0565 82.9049 50.9521 82.6544 50.8477C82.7379 50.8895 82.811 50.9312 82.8945 50.973C83.312 51.1817 82.4039 50.5241 82.6231 50.7746C82.8005 50.973 82.3099 50.1901 82.383 50.451C82.4039 50.5346 82.5083 50.6598 82.55 50.7433C82.4456 50.4928 82.3412 50.2423 82.2369 49.9918C82.3099 50.1692 82.3517 50.3362 82.383 50.5241C82.3412 50.2423 82.3099 49.9709 82.2682 49.689C82.2891 49.8769 82.2891 50.0648 82.2682 50.2527C82.3099 49.9709 82.3412 49.6995 82.383 49.4176C82.3517 49.6055 82.2995 49.7726 82.2369 49.95C82.3412 49.6995 82.4456 49.449 82.55 49.1984C82.5083 49.2819 82.4665 49.355 82.4248 49.4385C82.216 49.8561 82.8736 48.9479 82.6231 49.1671C82.4248 49.3446 83.2076 48.854 82.9467 48.927C82.8632 48.9479 82.7379 49.0523 82.6544 49.0941C82.9049 48.9897 83.1554 48.8853 83.406 48.7809C83.2285 48.854 83.0615 48.8957 82.8736 48.927C83.1554 48.8853 83.4268 48.854 83.7087 48.8122C83.5208 48.8331 83.3329 48.8331 83.145 48.8122C83.4268 48.854 83.6982 48.8853 83.9801 48.927C83.7922 48.8957 83.6252 48.8435 83.4477 48.7809C83.6982 48.8853 83.9488 48.9897 84.1993 49.0941C84.1158 49.0523 84.0427 49.0105 83.9592 48.9688C83.5417 48.76 84.4498 49.4176 84.2306 49.1671C84.0531 48.9688 84.5438 49.7517 84.4707 49.4907C84.4498 49.4072 84.3454 49.2819 84.3037 49.1984C84.4081 49.449 84.5124 49.6995 84.6168 49.95C84.5438 49.7726 84.502 49.6055 84.4707 49.4176C84.5124 49.6995 84.5438 49.9709 84.5855 50.2527C84.5646 50.0648 84.5646 49.8769 84.5855 49.689C84.5438 49.9709 84.5124 50.2423 84.4707 50.5241C84.502 50.3362 84.5542 50.1692 84.6168 49.9918C84.5124 50.2423 84.4081 50.4928 84.3037 50.7433C84.3454 50.6598 84.3872 50.5867 84.4289 50.5032C84.6377 50.0857 83.9801 50.9939 84.2306 50.7746C84.4289 50.5972 83.6461 51.0878 83.907 51.0147C83.9905 50.9938 84.1158 50.8895 84.1993 50.8477C83.9488 50.9521 83.6982 51.0565 83.4477 51.1609C83.6252 51.0878 83.7922 51.046 83.9801 51.0147C83.6982 51.0565 83.4268 51.0878 83.145 51.1295C83.239 51.1087 83.3329 51.1087 83.4268 51.1087C85.0657 51.046 86.6314 49.7099 86.5584 47.9771C86.4853 46.3279 85.1805 44.783 83.4268 44.8456C80.6398 44.9396 78.2911 47.1212 78.2911 49.9813C78.2911 52.7684 80.6398 55.117 83.4268 55.117C86.2035 55.117 88.573 52.7684 88.5626 49.9813C88.5521 47.1108 86.2243 44.9396 83.4268 44.8456C81.788 44.783 80.2222 46.3279 80.2953 47.9771C80.3684 49.7204 81.6627 51.046 83.4268 51.1087Z" fill="#7A7A7C"/>
<path d="M30.4623 59.8978C30.4623 57.6536 30.4623 55.4093 30.4623 53.165C30.4623 49.5951 30.4623 46.0147 30.4623 42.4448C30.4623 41.6306 30.4623 40.806 30.4623 39.9918C30.4623 38.3529 29.0218 36.7872 27.3307 36.8602C25.6293 36.9333 24.1992 38.2381 24.1992 39.9918C24.1992 42.236 24.1992 44.4803 24.1992 46.7246C24.1992 50.2945 24.1992 53.8749 24.1992 57.4448C24.1992 58.259 24.1992 59.0836 24.1992 59.8978C24.1992 61.5367 25.6397 63.1024 27.3307 63.0294C29.0322 62.9563 30.4623 61.6619 30.4623 59.8978Z" fill="#7A7A7C"/>
<path d="M37.2891 46.8185C35.0448 46.8185 32.8005 46.8185 30.5563 46.8185C26.9864 46.8185 23.406 46.8185 19.836 46.8185C19.0218 46.8185 18.1972 46.8185 17.383 46.8185C15.7442 46.8185 14.1784 48.259 14.2515 49.95C14.3246 51.6515 15.6294 53.0815 17.383 53.0815C19.6273 53.0815 21.8715 53.0815 24.1158 53.0815C27.6857 53.0815 31.2661 53.0815 34.836 53.0815C35.6502 53.0815 36.4749 53.0815 37.2891 53.0815C38.9279 53.0815 40.4937 51.641 40.4206 49.95C40.3371 48.2486 39.0427 46.8185 37.2891 46.8185Z" fill="#7A7A7C"/>
</svg>
