<svg width="100" height="100" viewBox="0 0 100 100" fill="none" xmlns="http://www.w3.org/2000/svg">
<path d="M75.0433 15.4267C79.7489 15.4267 84.4556 17.22 88.0467 20.8122C95.2433 28.0067 95.2433 39.6756 88.0467 46.8722L67.63 67.2867L63.4633 71.4522L50.4356 84.4844L37.4056 71.4522L33.2389 67.2867L12.8233 46.8722C5.62778 39.6756 5.62778 28.0067 12.8233 20.8122C16.4156 17.22 21.12 15.4267 25.8278 15.4267C29.5567 15.4267 33.2878 16.5522 36.4667 18.8L36.3933 18.7278C36.3933 18.7278 36.79 19.0211 37.4433 19.5178C37.4589 19.5289 37.4756 19.5411 37.49 19.5544C40.79 22.0667 50.4344 29.6411 50.4344 32.3656C50.4344 29.6411 60.08 22.0667 63.3789 19.5544C63.3922 19.5411 63.4089 19.5289 63.4267 19.5178C64.0778 19.0211 64.4756 18.7278 64.4756 18.7278L64.4033 18.8C67.5833 16.5522 71.3133 15.4267 75.0433 15.4267ZM75.0433 9C70.0989 9 65.3489 10.4367 61.2622 13.1622C61.0578 13.28 60.8589 13.4111 60.6644 13.5544C60.6644 13.5544 60.2711 13.8444 59.62 14.34C59.5444 14.3967 59.4678 14.4544 59.3933 14.5133C55.5111 17.4733 52.6011 19.9078 50.4222 21.9489C50.1289 21.6744 49.8244 21.3956 49.5078 21.11C46.5511 18.4422 43.2022 15.8267 41.4356 14.4811C41.39 14.4456 41.3444 14.4111 41.3 14.3778C40.6233 13.8633 40.2133 13.5611 40.2133 13.5611C40.02 13.4178 39.82 13.2867 39.6156 13.1678C35.5267 10.44 30.7744 9.00111 25.8278 9.00111C19.1978 9.00111 12.9644 11.5822 8.27889 16.2689C3.58556 20.9622 1 27.2033 1 33.8433C1 40.4822 3.58556 46.7244 8.27889 51.4178L28.6944 71.8333L32.8622 76L45.8911 89.03C47.0967 90.2356 48.7322 90.9133 50.4367 90.9133C52.1411 90.9133 53.7767 90.2356 54.9822 89.03L68.0089 75.9967L72.1744 71.8322L92.5911 51.4178C97.2867 46.7222 99.8722 40.4811 99.8722 33.8422C99.8722 27.2022 97.2867 20.9611 92.5911 16.2678C87.9044 11.58 81.6733 9 75.0433 9Z" fill="#7A7A7C"/>
</svg>
