<svg xmlns="http://www.w3.org/2000/svg" xmlns:xlink="http://www.w3.org/1999/xlink" version="1.1" x="0px" y="0px" viewBox="0 0 100 125" enable-background="new 0 0 100 100" xml:space="preserve"><path d="M72.661,19.614c4.235,0,8.471,1.614,11.703,4.847c6.477,6.475,6.477,16.977,0,23.454L65.989,66.288l-3.75,3.749  L50.514,81.766L38.787,70.037l-3.75-3.749L16.663,47.915c-6.476-6.477-6.476-16.979,0-23.454c3.233-3.233,7.467-4.847,11.704-4.847  c3.356,0,6.714,1.013,9.575,3.036l-0.066-0.065c0,0,0.357,0.264,0.945,0.711c0.014,0.01,0.029,0.021,0.042,0.033  c2.97,2.261,11.65,9.078,11.65,11.53c0-2.452,8.681-9.269,11.65-11.53c0.012-0.012,0.027-0.023,0.043-0.033  c0.586-0.447,0.944-0.711,0.944-0.711l-0.065,0.065C65.947,20.627,69.304,19.614,72.661,19.614 M72.661,13.83  c-4.45,0-8.725,1.293-12.403,3.746c-0.184,0.106-0.363,0.224-0.538,0.353c0,0-0.354,0.261-0.94,0.707  c-0.068,0.051-0.137,0.103-0.204,0.156c-3.494,2.664-6.113,4.855-8.074,6.692c-0.264-0.247-0.538-0.498-0.823-0.755  c-2.661-2.401-5.675-4.755-7.265-5.966c-0.041-0.032-0.082-0.063-0.122-0.093c-0.609-0.463-0.978-0.735-0.978-0.735  c-0.174-0.129-0.354-0.247-0.538-0.354c-3.68-2.455-7.957-3.75-12.409-3.75c-5.967,0-11.577,2.323-15.794,6.541  c-4.224,4.224-6.551,9.841-6.551,15.817c0,5.975,2.327,11.593,6.551,15.817l18.374,18.374l3.751,3.75l11.726,11.727  c1.085,1.085,2.557,1.695,4.091,1.695l0,0c1.534,0,3.006-0.61,4.091-1.695L66.33,74.127l3.749-3.748l18.375-18.373  c4.226-4.226,6.553-9.843,6.553-15.818c0-5.976-2.327-11.593-6.553-15.817C84.236,16.152,78.628,13.83,72.661,13.83L72.661,13.83z"/></svg>