<svg width="100" height="100" viewBox="0 0 100 100" fill="none" xmlns="http://www.w3.org/2000/svg">
<path d="M75.9479 40.4029C79.6564 40.4029 83.3531 40.4029 87.0616 40.4029C87.8199 40.4029 88.5782 40.3792 89.3365 40.4858C89.0166 40.4384 88.7085 40.4029 88.3886 40.3555C89.0758 40.4621 89.7393 40.6398 90.3791 40.9005C90.0948 40.782 89.8104 40.6635 89.5261 40.545C90 40.7465 90.4621 40.9953 90.9005 41.2796C90.9834 41.3389 91.0663 41.3981 91.1493 41.4574C91.6469 41.7891 90.6043 40.9834 90.8531 41.2322C91.0308 41.41 91.2441 41.5758 91.4218 41.7536C91.5877 41.9194 91.7299 42.0972 91.8957 42.263C92.2986 42.7014 91.481 41.6706 91.6706 41.9668C91.7417 42.0735 91.8246 42.1801 91.8957 42.2867C92.1801 42.7251 92.4289 43.1872 92.6303 43.6612C92.5118 43.3768 92.3934 43.0924 92.2749 42.8081C92.5355 43.4479 92.7133 44.1114 92.8199 44.7986C92.7725 44.4787 92.737 44.1706 92.6896 43.8507C92.9147 45.5332 92.7725 47.2986 92.7725 48.9811C92.7725 52.4526 92.7725 55.9123 92.7725 59.3839C92.7725 63.6493 92.7725 67.9029 92.7725 72.1683C92.7725 75.8057 92.7725 79.4431 92.7725 83.0806C92.7725 84.7393 92.7844 86.41 92.7725 88.0687C92.7725 88.4597 92.7488 88.8507 92.6896 89.2299C92.737 88.91 92.7725 88.6019 92.8199 88.282C92.7133 88.9692 92.5355 89.6327 92.2749 90.2725C92.3934 89.9882 92.5118 89.7038 92.6303 89.4194C92.4289 89.9052 92.1801 90.3673 91.8957 90.8057C91.8365 90.8886 91.7772 90.9716 91.718 91.0664C91.3862 91.564 92.1919 90.5213 91.9431 90.782C91.7654 90.9716 91.6114 91.173 91.4218 91.3626C91.2559 91.5284 91.09 91.6825 90.9123 91.8365C90.8175 91.9194 90.3791 92.2631 90.9123 91.8484C91.4218 91.4455 91.019 91.7536 90.8886 91.8484C90.4502 92.1446 90 92.3815 89.5142 92.5948C89.7986 92.4763 90.0829 92.3578 90.3673 92.2393C89.7275 92.5 89.064 92.6896 88.3768 92.7962C88.6967 92.7488 89.0047 92.7133 89.3246 92.6659C88.3531 92.7962 87.346 92.7488 86.3626 92.7488C84.5379 92.7488 82.7014 92.7488 80.8768 92.7488C74.7275 92.7488 68.5782 92.7488 62.4289 92.7488C54.9882 92.7488 47.5474 92.7488 40.1066 92.7488C33.673 92.7488 27.2393 92.7488 20.8057 92.7488C17.8081 92.7488 14.7986 92.7725 11.8009 92.7488C11.3981 92.7488 10.9953 92.7251 10.5924 92.6659C10.9123 92.7133 11.2204 92.7488 11.5403 92.7962C10.8531 92.6896 10.1896 92.5119 9.54976 92.2393C9.83412 92.3578 10.1185 92.4763 10.4028 92.5948C9.91705 92.3815 9.46682 92.1446 9.02843 91.8484C8.94549 91.7891 8.86255 91.7299 8.76777 91.6706C8.27013 91.3389 9.31279 92.1446 9.05212 91.8957C8.86255 91.718 8.66113 91.5522 8.48341 91.3744C8.31753 91.2086 8.1635 91.0308 8.00947 90.8531C7.60663 90.4147 8.42416 91.4455 8.22274 91.1493C8.15165 91.0427 8.06871 90.936 7.99762 90.8294C7.71326 90.391 7.46445 89.9289 7.26303 89.4431C7.38151 89.7275 7.49999 90.0119 7.61848 90.2962C7.35781 89.6564 7.16824 88.9929 7.07345 88.3057C7.12085 88.6256 7.15639 88.9337 7.20378 89.2536C7.07345 88.2228 7.12085 87.1564 7.12085 86.1138C7.12085 84.1114 7.12085 82.109 7.12085 80.1067C7.12085 77.109 7.12085 74.0995 7.12085 71.1019C7.12085 67.4052 7.12085 63.7204 7.12085 60.0237C7.12085 55.9597 7.12085 51.8957 7.12085 47.8436C7.12085 43.7085 7.12085 39.5853 7.12085 35.4503C7.12085 31.6114 7.12085 27.7725 7.12085 23.9337C7.12085 20.6872 7.12085 17.4289 7.12085 14.1825C7.12085 11.8365 7.12085 9.50238 7.12085 7.15641C7.12085 6.04267 7.14454 4.92892 7.12085 3.81518C7.12085 3.76779 7.12085 3.72039 7.12085 3.673C5.93601 4.85784 4.75118 6.04267 3.56634 7.2275C5.97156 7.2275 8.36492 7.2275 10.7701 7.2275C16.5284 7.2275 22.2986 7.2275 28.0569 7.2275C35.0237 7.2275 42.0024 7.2275 48.9692 7.2275C55 7.2275 61.019 7.2275 67.0498 7.2275C69.9763 7.2275 72.9147 7.29859 75.8412 7.2275C75.8768 7.2275 75.9242 7.2275 75.9597 7.2275C74.7749 6.04267 73.59 4.85784 72.4052 3.673C72.4052 6.25594 72.4052 8.83888 72.4052 11.41C72.4052 17.5711 72.4052 23.7204 72.4052 29.8815C72.4052 37.3578 72.4052 44.846 72.4052 52.3223C72.4052 58.7559 72.4052 65.1896 72.4052 71.6232C72.4052 74.763 72.346 77.9029 72.4052 81.0308C72.4052 81.0782 72.4052 81.1138 72.4052 81.1612C72.4052 83.0213 74.0403 84.7986 75.9597 84.7157C77.891 84.6327 79.5142 83.1517 79.5142 81.1612C79.5142 78.5782 79.5142 75.9953 79.5142 73.4242C79.5142 67.263 79.5142 61.1138 79.5142 54.9526C79.5142 47.4763 79.5142 39.9882 79.5142 32.5119C79.5142 26.0782 79.5142 19.6446 79.5142 13.2109C79.5142 10.0711 79.5735 6.93129 79.5142 3.80333C79.5142 3.75594 79.5142 3.72039 79.5142 3.673C79.5142 1.75357 77.891 0.118499 75.9597 0.118499C73.5545 0.118499 71.1611 0.118499 68.7559 0.118499C62.9976 0.118499 57.2275 0.118499 51.4692 0.118499C44.5024 0.118499 37.5237 0.118499 30.5569 0.118499C24.5261 0.118499 18.5071 0.118499 12.4763 0.118499C9.54976 0.118499 6.61137 0.0711054 3.68483 0.118499C3.64928 0.118499 3.60189 0.118499 3.56634 0.118499C1.64691 0.118499 0.0118408 1.74172 0.0118408 3.673C0.0118408 5.1185 0.0118408 6.564 0.0118408 8.02134C0.0118408 11.7536 0.0118408 15.4739 0.0118408 19.2062C0.0118408 24.3721 0.0118408 29.5498 0.0118408 34.7157C0.0118408 40.4502 0.0118408 46.1848 0.0118408 51.9194C0.0118408 57.3578 0.0118408 62.7844 0.0118408 68.2228C0.0118408 72.4882 0.0118408 76.7536 0.0118408 81.019C0.0118408 83.2465 0.0118408 85.474 0.0118408 87.7014C0.0118408 89.9052 0.473927 92.0498 1.57582 93.9811C3.66113 97.6185 7.61848 99.8578 11.8009 99.8815C13.6611 99.8934 15.5213 99.8815 17.3815 99.8815C21.5995 99.8815 25.8175 99.8815 30.0355 99.8815C35.4976 99.8815 40.9597 99.8815 46.4218 99.8815C52.1208 99.8815 57.8081 99.8815 63.5071 99.8815C68.3531 99.8815 73.2109 99.8815 78.0569 99.8815C81.0071 99.8815 83.9573 99.8815 86.9076 99.8815C87.3341 99.8815 87.7725 99.8815 88.1991 99.8815C93.3886 99.8341 98.0332 96.3152 99.4668 91.3152C99.8934 89.8104 99.9052 88.3057 99.9052 86.7654C99.9052 85.1185 99.9052 83.4716 99.9052 81.8247C99.9052 76.5403 99.9052 71.2559 99.9052 65.9834C99.9052 60.8294 99.9052 55.6754 99.9052 50.5213C99.9052 49.0048 99.9052 47.5 99.9052 45.9834C99.9052 45.6872 99.9052 45.3792 99.9052 45.083C99.8934 43.1635 99.4313 41.3744 98.6019 39.6564C96.6706 35.6754 92.3697 33.2938 88.0332 33.282C85.7938 33.282 83.5664 33.282 81.327 33.282C79.5498 33.282 77.7607 33.282 75.9834 33.282C74.1232 33.282 72.346 34.9171 72.4289 36.8365C72.4763 38.7796 73.9573 40.4029 75.9479 40.4029Z" fill="#7A7A7C"/>
<path d="M60.071 34.9526C58.6966 34.9526 57.3222 34.9526 55.9478 34.9526C52.6421 34.9526 49.3483 34.9526 46.0426 34.9526C42.0497 34.9526 38.0568 34.9526 34.0639 34.9526C30.6161 34.9526 27.1564 34.9526 23.7085 34.9526C22.0379 34.9526 20.3554 34.9052 18.6848 34.9526C18.6611 34.9526 18.6374 34.9526 18.6137 34.9526C19.7985 36.1375 20.9834 37.3223 22.1682 38.5071C22.1682 33.2465 22.1682 27.974 22.1682 22.7133C22.1682 21.9787 22.1682 21.2323 22.1682 20.4977C20.9834 21.6825 19.7985 22.8673 18.6137 24.0522C19.9881 24.0522 21.3625 24.0522 22.7369 24.0522C26.0426 24.0522 29.3365 24.0522 32.6421 24.0522C36.635 24.0522 40.6279 24.0522 44.6208 24.0522C48.0687 24.0522 51.5284 24.0522 54.9763 24.0522C56.6469 24.0522 58.3293 24.0996 60 24.0522C60.0237 24.0522 60.0474 24.0522 60.071 24.0522C58.8862 22.8673 57.7014 21.6825 56.5165 20.4977C56.5165 25.7583 56.5165 31.0308 56.5165 36.2915C56.5165 37.0261 56.5165 37.7725 56.5165 38.5071C56.5165 40.3673 58.1516 42.1446 60.071 42.0616C62.0023 41.9787 63.6255 40.4977 63.6255 38.5071C63.6255 33.2465 63.6255 27.974 63.6255 22.7133C63.6255 21.9787 63.6255 21.2323 63.6255 20.4977C63.6255 18.5782 62.0023 16.9432 60.071 16.9432C58.6966 16.9432 57.3222 16.9432 55.9478 16.9432C52.6421 16.9432 49.3483 16.9432 46.0426 16.9432C42.0497 16.9432 38.0568 16.9432 34.0639 16.9432C30.6161 16.9432 27.1564 16.9432 23.7085 16.9432C22.0379 16.9432 20.3554 16.9076 18.6848 16.9432C18.6611 16.9432 18.6374 16.9432 18.6137 16.9432C16.6943 16.9432 15.0592 18.5664 15.0592 20.4977C15.0592 25.7583 15.0592 31.0308 15.0592 36.2915C15.0592 37.0261 15.0592 37.7725 15.0592 38.5071C15.0592 40.4266 16.6824 42.0616 18.6137 42.0616C19.9881 42.0616 21.3625 42.0616 22.7369 42.0616C26.0426 42.0616 29.3365 42.0616 32.6421 42.0616C36.635 42.0616 40.6279 42.0616 44.6208 42.0616C48.0687 42.0616 51.5284 42.0616 54.9763 42.0616C56.6469 42.0616 58.3293 42.0972 60 42.0616C60.0237 42.0616 60.0474 42.0616 60.071 42.0616C61.9312 42.0616 63.7085 40.4266 63.6255 38.5071C63.5426 36.5759 62.0616 34.9526 60.071 34.9526Z" fill="#7A7A7C"/>
<path d="M60.071 53.5545C58.6966 53.5545 57.3222 53.5545 55.9478 53.5545C52.6421 53.5545 49.3483 53.5545 46.0426 53.5545C42.0497 53.5545 38.0568 53.5545 34.0639 53.5545C30.6161 53.5545 27.1563 53.5545 23.7085 53.5545C22.0379 53.5545 20.3554 53.5189 18.6848 53.5545C18.6611 53.5545 18.6374 53.5545 18.6137 53.5545C16.7535 53.5545 14.9763 55.1896 15.0592 57.109C15.1421 59.0403 16.6232 60.6635 18.6137 60.6635C19.9881 60.6635 21.3625 60.6635 22.7369 60.6635C26.0426 60.6635 29.3364 60.6635 32.6421 60.6635C36.635 60.6635 40.6279 60.6635 44.6208 60.6635C48.0687 60.6635 51.5284 60.6635 54.9762 60.6635C56.6469 60.6635 58.3293 60.6991 59.9999 60.6635C60.0236 60.6635 60.0473 60.6635 60.071 60.6635C61.9312 60.6635 63.7085 59.0284 63.6255 57.109C63.5426 55.1777 62.0616 53.5545 60.071 53.5545Z" fill="#7A7A7C"/>
<path d="M60.071 72.8673C58.6966 72.8673 57.3222 72.8673 55.9478 72.8673C52.6421 72.8673 49.3483 72.8673 46.0426 72.8673C42.0497 72.8673 38.0568 72.8673 34.0639 72.8673C30.6161 72.8673 27.1563 72.8673 23.7085 72.8673C22.0379 72.8673 20.3554 72.8318 18.6848 72.8673C18.6611 72.8673 18.6374 72.8673 18.6137 72.8673C16.7535 72.8673 14.9763 74.5024 15.0592 76.4218C15.1421 78.3531 16.6232 79.9763 18.6137 79.9763C19.9881 79.9763 21.3625 79.9763 22.7369 79.9763C26.0426 79.9763 29.3364 79.9763 32.6421 79.9763C36.635 79.9763 40.6279 79.9763 44.6208 79.9763C48.0687 79.9763 51.5284 79.9763 54.9762 79.9763C56.6469 79.9763 58.3293 80.0119 59.9999 79.9763C60.0236 79.9763 60.0473 79.9763 60.071 79.9763C61.9312 79.9763 63.7085 78.3412 63.6255 76.4218C63.5426 74.4905 62.0616 72.8673 60.071 72.8673Z" fill="#7A7A7C"/>
</svg>
