<svg xmlns="http://www.w3.org/2000/svg" xmlns:xlink="http://www.w3.org/1999/xlink" version="1.1" x="0px" y="0px" viewBox="0 0 1024 1280" style="enable-background:new 0 0 1024 1024;" xml:space="preserve"><g><g><g><path d="M732,431c31.3,0,62.5,0,93.8,0c6.4,0,12.8-0.2,19.2,0.7c-2.7-0.4-5.3-0.7-8-1.1     c5.8,0.9,11.4,2.4,16.8,4.6c-2.4-1-4.8-2-7.2-3c4,1.7,7.9,3.8,11.6,6.2c0.7,0.5,1.4,1,2.1,1.5c4.2,2.8-4.6-4-2.5-1.9     c1.5,1.5,3.3,2.9,4.8,4.4c1.4,1.4,2.6,2.9,4,4.3c3.4,3.7-3.5-5-1.9-2.5c0.6,0.9,1.3,1.8,1.9,2.7c2.4,3.7,4.5,7.6,6.2,11.6     c-1-2.4-2-4.8-3-7.2c2.2,5.4,3.7,11,4.6,16.8c-0.4-2.7-0.7-5.3-1.1-8c1.9,14.2,0.7,29.1,0.7,43.3c0,29.3,0,58.5,0,87.8     c0,36,0,71.9,0,107.9c0,30.7,0,61.4,0,92.1c0,14,0.1,28.1,0,42.1c0,3.3-0.2,6.6-0.7,9.8c0.4-2.7,0.7-5.3,1.1-8     c-0.9,5.8-2.4,11.4-4.6,16.8c1-2.4,2-4.8,3-7.2c-1.7,4.1-3.8,8-6.2,11.7c-0.5,0.7-1,1.4-1.5,2.2c-2.8,4.2,4-4.6,1.9-2.4     c-1.5,1.6-2.8,3.3-4.4,4.9c-1.4,1.4-2.8,2.7-4.3,4c-0.8,0.7-4.5,3.6,0,0.1c4.3-3.4,0.9-0.8-0.2,0c-3.7,2.5-7.5,4.5-11.6,6.3     c2.4-1,4.8-2,7.2-3c-5.4,2.2-11,3.8-16.8,4.7c2.7-0.4,5.3-0.7,8-1.1c-8.2,1.1-16.7,0.7-25,0.7c-15.4,0-30.9,0-46.3,0     c-51.9,0-103.8,0-155.7,0c-62.8,0-125.6,0-188.4,0c-54.3,0-108.6,0-162.9,0c-25.3,0-50.7,0.2-76,0c-3.4,0-6.8-0.2-10.2-0.7     c2.7,0.4,5.3,0.7,8,1.1c-5.8-0.9-11.4-2.4-16.8-4.7c2.4,1,4.8,2,7.2,3c-4.1-1.8-7.9-3.8-11.6-6.3c-0.7-0.5-1.4-1-2.2-1.5     c-4.2-2.8,4.6,4,2.4,1.9c-1.6-1.5-3.3-2.9-4.8-4.4c-1.4-1.4-2.7-2.9-4-4.4c-3.4-3.7,3.5,5,1.8,2.5c-0.6-0.9-1.3-1.8-1.9-2.7     c-2.4-3.7-4.5-7.6-6.2-11.7c1,2.4,2,4.8,3,7.2c-2.2-5.4-3.8-11-4.6-16.8c0.4,2.7,0.7,5.3,1.1,8c-1.1-8.7-0.7-17.7-0.7-26.5     c0-16.9,0-33.8,0-50.7c0-25.3,0-50.7,0-76c0-31.2,0-62.3,0-93.5c0-34.3,0-68.6,0-102.8c0-34.9,0-69.7,0-104.6     c0-32.4,0-64.8,0-97.2c0-27.4,0-54.9,0-82.3c0-19.8,0-39.5,0-59.3c0-9.4,0.2-18.8,0-28.2c0-0.4,0-0.8,0-1.2c-10,10-20,20-30,30     c20.3,0,40.5,0,60.8,0c48.6,0,97.3,0,145.9,0c58.8,0,117.7,0,176.5,0c50.9,0,101.7,0,152.6,0c24.7,0,49.5,0.6,74.2,0     c0.3,0,0.7,0,1,0c-10-10-20-20-30-30c0,21.8,0,43.6,0,65.3c0,52,0,103.9,0,155.9c0,63.1,0,126.3,0,189.4c0,54.3,0,108.6,0,162.9     c0,26.5-0.5,53,0,79.4c0,0.4,0,0.7,0,1.1c0,15.7,13.8,30.7,30,30c16.3-0.7,30-13.2,30-30c0-21.8,0-43.6,0-65.3     c0-52,0-103.9,0-155.9c0-63.1,0-126.3,0-189.4c0-54.3,0-108.6,0-162.9c0-26.5,0.5-53,0-79.4c0-0.4,0-0.7,0-1.1     c0-16.2-13.7-30-30-30c-20.3,0-40.5,0-60.8,0c-48.6,0-97.3,0-145.9,0c-58.8,0-117.7,0-176.5,0c-50.9,0-101.7,0-152.6,0     c-24.7,0-49.5-0.4-74.2,0c-0.3,0-0.7,0-1,0c-16.2,0-30,13.7-30,30c0,12.2,0,24.4,0,36.7c0,31.5,0,62.9,0,94.4     c0,43.6,0,87.3,0,130.9c0,48.4,0,96.8,0,145.2c0,45.9,0,91.7,0,137.6c0,36,0,72,0,108c0,18.8,0,37.6,0,56.4     c0,18.6,3.9,36.7,13.2,53c17.6,30.7,51,49.6,86.3,49.8c15.7,0.1,31.4,0,47.1,0c35.6,0,71.2,0,106.8,0c46.1,0,92.2,0,138.3,0     c48.1,0,96.1,0,144.2,0c40.9,0,81.9,0,122.8,0c24.9,0,49.8,0,74.7,0c3.6,0,7.3,0,10.9,0c43.8-0.4,83-30.1,95.1-72.3     c3.6-12.7,3.7-25.4,3.7-38.4c0-13.9,0-27.8,0-41.7c0-44.6,0-89.2,0-133.7c0-43.5,0-87,0-130.5c0-12.8,0-25.5,0-38.3     c0-2.5,0-5.1,0-7.6c-0.1-16.2-4-31.3-11-45.8c-16.3-33.6-52.6-53.7-89.2-53.8c-18.9,0-37.7,0-56.6,0c-15,0-30.1,0-45.1,0     c-15.7,0-30.7,13.8-30,30C702.7,417.3,715.2,431,732,431L732,431z"/></g></g><g><g><path d="M598,385c-11.6,0-23.2,0-34.8,0c-27.9,0-55.7,0-83.6,0c-33.7,0-67.4,0-101.1,0c-29.1,0-58.3,0-87.4,0     c-14.1,0-28.3-0.4-42.4,0c-0.2,0-0.4,0-0.6,0c10,10,20,20,30,30c0-44.4,0-88.9,0-133.3c0-6.2,0-12.5,0-18.7c-10,10-20,20-30,30     c11.6,0,23.2,0,34.8,0c27.9,0,55.7,0,83.6,0c33.7,0,67.4,0,101.1,0c29.1,0,58.3,0,87.4,0c14.1,0,28.3,0.4,42.4,0     c0.2,0,0.4,0,0.6,0c-10-10-20-20-30-30c0,44.4,0,88.9,0,133.3c0,6.2,0,12.5,0,18.7c0,15.7,13.8,30.7,30,30     c16.3-0.7,30-13.2,30-30c0-44.4,0-88.9,0-133.3c0-6.2,0-12.5,0-18.7c0-16.2-13.7-30-30-30c-11.6,0-23.2,0-34.8,0     c-27.9,0-55.7,0-83.6,0c-33.7,0-67.4,0-101.1,0c-29.1,0-58.3,0-87.4,0c-14.1,0-28.3-0.3-42.4,0c-0.2,0-0.4,0-0.6,0     c-16.2,0-30,13.7-30,30c0,44.4,0,88.9,0,133.3c0,6.2,0,12.5,0,18.7c0,16.2,13.7,30,30,30c11.6,0,23.2,0,34.8,0     c27.9,0,55.7,0,83.6,0c33.7,0,67.4,0,101.1,0c29.1,0,58.3,0,87.4,0c14.1,0,28.3,0.3,42.4,0c0.2,0,0.4,0,0.6,0     c15.7,0,30.7-13.8,30-30C627.3,398.7,614.8,385,598,385z"/></g></g><g><g><path d="M598,542c-11.6,0-23.2,0-34.8,0c-27.9,0-55.7,0-83.6,0c-33.7,0-67.4,0-101.1,0c-29.1,0-58.3,0-87.4,0     c-14.1,0-28.3-0.3-42.4,0c-0.2,0-0.4,0-0.6,0c-15.7,0-30.7,13.8-30,30c0.7,16.3,13.2,30,30,30c11.6,0,23.2,0,34.8,0     c27.9,0,55.7,0,83.6,0c33.7,0,67.4,0,101.1,0c29.1,0,58.3,0,87.4,0c14.1,0,28.3,0.3,42.4,0c0.2,0,0.4,0,0.6,0     c15.7,0,30.7-13.8,30-30C627.3,555.7,614.8,542,598,542L598,542z"/></g></g><g><g><path d="M598,705c-11.6,0-23.2,0-34.8,0c-27.9,0-55.7,0-83.6,0c-33.7,0-67.4,0-101.1,0c-29.1,0-58.3,0-87.4,0     c-14.1,0-28.3-0.3-42.4,0c-0.2,0-0.4,0-0.6,0c-15.7,0-30.7,13.8-30,30c0.7,16.3,13.2,30,30,30c11.6,0,23.2,0,34.8,0     c27.9,0,55.7,0,83.6,0c33.7,0,67.4,0,101.1,0c29.1,0,58.3,0,87.4,0c14.1,0,28.3,0.3,42.4,0c0.2,0,0.4,0,0.6,0     c15.7,0,30.7-13.8,30-30C627.3,718.7,614.8,705,598,705L598,705z"/></g></g></g><text x="0" y="1039" fill="#000000" font-size="5px" font-weight="bold" font-family="'Helvetica Neue', Helvetica, Arial-Unicode, Arial, Sans-serif">Created by shashank singh</text><text x="0" y="1044" fill="#000000" font-size="5px" font-weight="bold" font-family="'Helvetica Neue', Helvetica, Arial-Unicode, Arial, Sans-serif">from the Noun Project</text></svg>