<svg xmlns="http://www.w3.org/2000/svg" xmlns:xlink="http://www.w3.org/1999/xlink" version="1.1" x="0px" y="0px" viewBox="0 0 20 25" style="enable-background:new 0 0 20 20;" xml:space="preserve"><style type="text/css">
	.st0{fill:none;stroke:#000000;stroke-linecap:round;stroke-linejoin:round;stroke-miterlimit:10;}
	.st1{fill:none;stroke:#000000;stroke-miterlimit:10;}
	.st2{fill:#3BACD9;}
	.st3{fill:#85E7FB;}
	.st4{fill:#4C565D;}
	.st5{fill:#FBBB59;stroke:#000000;stroke-miterlimit:10;}
	.st6{fill:#969FA6;}
	.st7{fill:none;}
	.st8{fill-rule:evenodd;clip-rule:evenodd;fill:#85E7FB;}
	.st9{fill:#2795B7;}
	.st10{fill:#FBBB59;}
	.st11{fill:#1BB978;}
	.st12{fill-rule:evenodd;clip-rule:evenodd;}
</style><g><path class="st1" d="M6.9,10L2.1,5.3c-0.2-0.2-0.2-0.5,0-0.7l2.4-2.4C4.7,2,5,2,5.2,2.2l4.7,4.7"/><path class="st1" d="M13,10l4.8,4.8c0.2,0.2,0.2,0.5,0,0.7l-2.4,2.4c-0.2,0.2-0.5,0.2-0.7,0L10,13.1"/><rect x="13.8" y="14.2" transform="matrix(-0.7071 -0.7071 0.7071 -0.7071 13.7746 37.0617)" width="1.4" height="2.9"/><rect x="11.3" y="13.4" transform="matrix(-0.7071 -0.7071 0.7071 -0.7071 10.5144 32.6275)" width="1.4" height="1.5"/><rect x="5.7" y="6.1" transform="matrix(-0.7071 -0.7071 0.7071 -0.7071 5.5939 17.3118)" width="1.4" height="2.9"/><rect x="3.1" y="5.2" transform="matrix(-0.7071 -0.7071 0.7071 -0.7071 2.3337 12.8776)" width="1.4" height="1.5"/><path class="st0" d="M14,2.9l0.6-0.6c0.4-0.4,1-0.4,1.4,0l1.7,1.7c0.4,0.4,0.4,1,0,1.4L17.1,6"/><rect x="7.8" y="3.3" transform="matrix(0.7071 0.7071 -0.7071 0.7071 10.0353 -4.0623)" class="st0" width="4.3" height="13.5"/><rect x="2.9" y="9.4" transform="matrix(0.7071 -0.7071 0.7071 0.7071 -4.2782 9.9459)" width="13.8" height="1.4"/><polygon class="st0" points="2.1,17.9 3.6,13.3 6.7,16.4  "/><polygon points="2.6,16.4 2.1,17.9 3.6,17.4  "/><polyline class="st0" points="17.3,5.8 16.1,6.9 13.1,3.9 14.2,2.7  "/></g><text x="0" y="35" fill="#000000" font-size="5px" font-weight="bold" font-family="'Helvetica Neue', Helvetica, Arial-Unicode, Arial, Sans-serif">Created by Jemis mali</text><text x="0" y="40" fill="#000000" font-size="5px" font-weight="bold" font-family="'Helvetica Neue', Helvetica, Arial-Unicode, Arial, Sans-serif">from the Noun Project</text></svg>