<svg width="100" height="100" viewBox="0 0 100 100" fill="none" xmlns="http://www.w3.org/2000/svg">
<path d="M72.3685 69.737C66.4474 76.3159 58.5527 79.6054 50 79.6054C41.4474 79.6054 33.5527 75.658 27.6316 69.737C26.3158 68.4212 26.3158 66.4475 27.6316 65.1317C28.9474 63.8159 30.9211 63.8159 32.2369 65.1317C36.8421 70.3949 43.4211 73.0265 50 73.0265C56.579 73.0265 63.1579 70.3949 67.1053 65.1317C68.4211 63.8159 70.3948 63.8159 71.7106 65.1317C73.0264 66.4475 73.0264 68.4212 72.3685 69.737Z" fill="#7A7A7C"/>
<path fill-rule="evenodd" clip-rule="evenodd" d="M0.657837 50C0.657837 22.5254 22.5253 0.657898 49.9999 0.657898C77.4746 0.657898 99.342 22.5254 99.342 50C99.342 77.4746 77.4746 99.3421 49.9999 99.3421C22.5253 99.3421 0.657837 77.4746 0.657837 50ZM49.9999 7.23685C26.1588 7.23685 7.23678 26.1588 7.23678 50C7.23678 73.8412 26.1588 92.7632 49.9999 92.7632C73.8411 92.7632 92.7631 73.8412 92.7631 50C92.7631 26.1588 73.8411 7.23685 49.9999 7.23685ZM27.8194 34.3984C27.368 34.8498 26.9736 35.616 26.9736 36.8421C26.9736 38.0683 27.368 38.8345 27.8194 39.2858C28.2708 39.7372 29.0369 40.1316 30.2631 40.1316C31.4893 40.1316 32.2554 39.7372 32.7068 39.2858C33.1582 38.8345 33.5526 38.0683 33.5526 36.8421C33.5526 35.616 33.1582 34.8498 32.7068 34.3984C32.2554 33.947 31.4893 33.5526 30.2631 33.5526C29.0369 33.5526 28.2708 33.947 27.8194 34.3984ZM23.1674 29.7464C25.0186 27.8951 27.5419 26.9737 30.2631 26.9737C32.9843 26.9737 35.5076 27.8951 37.3588 29.7464C39.2101 31.5976 40.1315 34.1209 40.1315 36.8421C40.1315 39.5633 39.2101 42.0866 37.3588 43.9379C35.5076 45.7891 32.9843 46.7105 30.2631 46.7105C27.5419 46.7105 25.0186 45.7891 23.1674 43.9379C21.3161 42.0866 20.3947 39.5633 20.3947 36.8421C20.3947 34.1209 21.3161 31.5976 23.1674 29.7464ZM67.2931 34.3984C66.8417 34.8498 66.4473 35.616 66.4473 36.8421C66.4473 38.0683 66.8417 38.8345 67.2931 39.2858C67.7444 39.7372 68.5106 40.1316 69.7368 40.1316C71.427 40.1316 73.0263 38.7627 73.0263 36.8421C73.0263 35.616 72.6319 34.8498 72.1805 34.3984C71.7291 33.947 70.9629 33.5526 69.7368 33.5526C68.5106 33.5526 67.7444 33.947 67.2931 34.3984ZM62.641 29.7464C64.4923 27.8951 67.0156 26.9737 69.7368 26.9737C72.458 26.9737 74.9813 27.8951 76.8325 29.7464C78.6838 31.5976 79.6052 34.1209 79.6052 36.8421C79.6052 42.8163 74.6255 46.7105 69.7368 46.7105C67.0156 46.7105 64.4923 45.7891 62.641 43.9379C60.7898 42.0866 59.8684 39.5633 59.8684 36.8421C59.8684 34.1209 60.7898 31.5976 62.641 29.7464Z" fill="#7A7A7C"/>
</svg>
