<svg width="100" height="100" viewBox="0 0 100 100" fill="none" xmlns="http://www.w3.org/2000/svg">
<path fill-rule="evenodd" clip-rule="evenodd" d="M49.9999 7.23698C26.1893 7.23698 7.23678 26.7862 7.23678 50.0001C7.23678 73.1834 26.8167 92.7633 49.9999 92.7633C73.2138 92.7633 92.7631 73.8108 92.7631 50.0001C92.7631 26.7862 73.8106 7.23698 49.9999 7.23698ZM0.657837 50.0001C0.657837 23.214 22.4948 0.658028 49.9999 0.658028C77.505 0.658028 99.342 23.214 99.342 50.0001C99.342 77.5052 76.786 99.3422 49.9999 99.3422C23.1832 99.3422 0.657837 76.8169 0.657837 50.0001Z" fill="#7A7A7C"/>
<path d="M84.2105 40.1316L89.4737 26.3159C88.1579 24.3422 86.8421 22.3685 85.5263 21.0527C84.8684 21.7106 84.2105 21.7106 83.5527 23.0264L77.6316 39.4738L66.4474 44.079L53.2895 34.2106L52.6316 19.7369L66.4474 9.86849C67.1053 9.21059 67.7632 8.5527 67.7632 7.8948C65.7895 7.23691 63.1579 6.57901 61.1842 5.92112L48.6842 14.4738L37.5 5.92112C34.8684 6.57901 32.8948 7.23691 30.9211 8.5527C30.9211 9.21059 31.579 9.86849 32.2369 9.86849L46.0526 19.7369L46.7105 34.2106L34.2105 42.7632L21.0526 38.8159L15.1316 23.6843C15.1316 23.0264 14.4737 22.3685 13.8158 21.7106C12.5 23.6843 11.1842 25.658 9.86844 27.6316L15.1316 41.4474L3.94739 50.658C3.94739 53.2895 3.94739 55.2632 4.60528 57.8948C5.26318 57.8948 5.92107 57.8948 6.57897 57.2369L20.3948 46.0527L32.2369 49.3422L36.8421 63.8159L28.9474 73.6843L13.1579 74.3422C12.5 74.3422 12.5 75.0001 11.8421 75.0001C13.1579 77.6317 15.1316 79.6053 17.1053 81.579L29.6053 80.9211L34.2105 93.4211C36.1842 94.079 38.1579 94.7369 40.7895 95.3948C40.7895 94.7369 41.4474 93.4211 40.7895 92.7632L35.5263 76.9738L42.7632 68.4211H57.8948L63.1579 77.6317L56.579 92.7632C55.9211 94.079 56.579 94.7369 57.2369 96.0527C59.2105 96.0527 61.1842 95.3948 63.1579 94.7369L69.079 80.2632L84.2105 81.579C85.5263 80.2632 86.8421 78.9474 87.5 76.9738C86.8421 76.3159 86.1842 75.658 84.8684 75.658L67.7632 73.6843L63.1579 64.4738L68.4211 49.3422L80.2632 44.7369L93.4211 55.2632C94.079 55.9211 94.7369 55.9211 95.3948 55.9211C96.0526 55.9211 96.0526 55.9211 96.0526 55.9211C96.0526 53.9474 96.7105 51.9738 96.7105 50.658V50.0001L84.2105 40.1316ZM56.579 61.1843H42.7632L38.1579 48.0264L50 39.4738L61.1842 48.0264L56.579 61.1843Z" fill="#7A7A7C"/>
</svg>
