<svg xmlns="http://www.w3.org/2000/svg" xmlns:xlink="http://www.w3.org/1999/xlink" version="1.1" x="0px" y="0px" viewBox="0 0 20 25" style="enable-background:new 0 0 20 20;" xml:space="preserve"><style type="text/css">
	.st0{fill:none;stroke:#000000;stroke-linecap:round;stroke-linejoin:round;stroke-miterlimit:10;}
	.st1{fill:none;stroke:#000000;stroke-miterlimit:10;}
	.st2{fill:#3BACD9;}
	.st3{fill:#85E7FB;}
	.st4{fill:#4C565D;}
	.st5{fill:#FBBB59;stroke:#000000;stroke-miterlimit:10;}
	.st6{fill:#969FA6;}
	.st7{fill:none;}
	.st8{fill-rule:evenodd;clip-rule:evenodd;fill:#85E7FB;}
	.st9{fill:#2795B7;}
	.st10{fill:#FBBB59;}
	.st11{fill:#1BB978;}
	.st12{fill-rule:evenodd;clip-rule:evenodd;}
</style><path class="st1" d="M17,10.4c0,3.9-3.2,7-7,7s-7-3.2-7-7s3.1-7,7-7S17,6.6,17,10.4L17,10.4z"/><path class="st7" d="M17,10.4c0,3.9-3.2,7-7,7s-7-3.2-7-7s3.1-7,7-7S17,6.6,17,10.4L17,10.4z"/><path d="M15.2,8.9l0.8-2.1l0,0c-0.2-0.3-0.4-0.6-0.6-0.8c-0.1,0.1-0.2,0.1-0.3,0.3l-0.9,2.5l-1.7,0.7L10.5,8  l-0.1-2.2l2.1-1.5c0.1-0.1,0.2-0.2,0.2-0.3l0,0c-0.3-0.1-0.7-0.2-1-0.3l0,0L9.8,5L8.1,3.7c-0.4,0.1-0.7,0.2-1,0.4  c0,0.1,0.1,0.2,0.2,0.2l2.1,1.5L9.5,8L7.6,9.3l-2-0.6L4.7,6.4c0-0.1-0.1-0.2-0.2-0.3C4.3,6.4,4.1,6.7,3.9,7l0,0l0.8,2.1L3,10.5  c0,0.4,0,0.7,0.1,1.1v0c0,0,0,0,0,0c0.1,0,0.2,0,0.3-0.1l2.1-1.7l1.8,0.5L8,12.5L6.8,14c0,0,0,0,0,0l-2.4,0.1  c-0.1,0-0.1,0.1-0.2,0.1c0.2,0.4,0.5,0.7,0.8,1l1.9-0.1L7.6,17c0.3,0.1,0.6,0.2,1,0.3c0-0.1,0.1-0.3,0-0.4l-0.8-2.4l1.1-1.3h2.3  l0.8,1.4l-1,2.3c-0.1,0.2,0,0.3,0.1,0.5c0.3,0,0.6-0.1,0.9-0.2l0.9-2.2l2.3,0.2c0,0,0,0,0,0c0.2-0.2,0.4-0.4,0.5-0.7c0,0,0,0,0,0  c-0.1-0.1-0.2-0.2-0.4-0.2L12.7,14l-0.7-1.4l0.8-2.3l1.8-0.7l2,1.6c0.1,0.1,0.2,0.1,0.3,0.1c0.1,0,0.1,0,0.1,0v0  c0-0.3,0.1-0.6,0.1-0.8c0,0,0-0.1,0-0.1L15.2,8.9z M11,12.1H8.9l-0.7-2L10,8.8l1.7,1.3L11,12.1z"/><text x="0" y="35" fill="#000000" font-size="5px" font-weight="bold" font-family="'Helvetica Neue', Helvetica, Arial-Unicode, Arial, Sans-serif">Created by Jemis mali</text><text x="0" y="40" fill="#000000" font-size="5px" font-weight="bold" font-family="'Helvetica Neue', Helvetica, Arial-Unicode, Arial, Sans-serif">from the Noun Project</text></svg>