<svg xmlns="http://www.w3.org/2000/svg" xmlns:xlink="http://www.w3.org/1999/xlink" version="1.1" x="0px" y="0px" viewBox="0 0 20 25" style="enable-background:new 0 0 20 20;" xml:space="preserve"><style type="text/css">
	.st0{fill:none;stroke:#000000;stroke-linecap:round;stroke-linejoin:round;stroke-miterlimit:10;}
	.st1{fill:none;stroke:#000000;stroke-miterlimit:10;}
	.st2{fill:#3BACD9;}
	.st3{fill:#85E7FB;}
	.st4{fill:#4C565D;}
	.st5{fill:#FBBB59;stroke:#000000;stroke-miterlimit:10;}
	.st6{fill:#969FA6;}
	.st7{fill:none;}
	.st8{fill-rule:evenodd;clip-rule:evenodd;fill:#85E7FB;}
	.st9{fill:#2795B7;}
	.st10{fill:#FBBB59;}
	.st11{fill:#1BB978;}
	.st12{fill-rule:evenodd;clip-rule:evenodd;}
</style><path class="st1" d="M8.7,6.4L5.6,9.4c-0.3,0.3-0.8,0.3-1.2,0L4.2,9.2C4.1,9,4,8.8,4,8.6l0-1.4  C4,7,4.1,6.8,4.2,6.6l2.4-2.4c0.3-0.3,0.8-0.3,1.2,0l1,1C9,5.5,9,6,8.7,6.4z"/><path class="st1" d="M9.6,11.8l3.9,3.9c0.4,0.4,1,0.4,1.4,0c0.4-0.4,0.4-1,0-1.4l-3.9-3.9"/><polyline class="st1" points="9.6,8.9 7.9,7.2 6.5,8.6 8.2,10.4 "/><path class="st1" d="M4.6,12.6c-0.8,0.8-0.8,2,0,2.8c0.8,0.8,2,0.8,2.8,0c0.8-0.8,0.8-2,0-2.8  C6.6,11.8,5.4,11.8,4.6,12.6z"/><path class="st0" d="M16,5.9c0-0.3-0.1-0.6-0.2-0.9l-1.1,1.1l-1,0l0-0.9l1.1-1.1C14.6,4,14.3,3.9,14,3.9c-1.1,0-2,0.9-2,2  c0,1.1,0.9,2,2,2C15.1,7.9,16,7,16,5.9z"/><path class="st1" d="M12.1,6.5l-5.6,5.6c0.3,0.1,0.6,0.3,0.9,0.5s0.4,0.6,0.5,0.9L13.4,8l0.1-0.1C12.9,7.7,12.3,7.2,12.1,6.5z"/><circle cx="6" cy="14" r="0.6"/><text x="0" y="35" fill="#000000" font-size="5px" font-weight="bold" font-family="'Helvetica Neue', Helvetica, Arial-Unicode, Arial, Sans-serif">Created by Jemis mali</text><text x="0" y="40" fill="#000000" font-size="5px" font-weight="bold" font-family="'Helvetica Neue', Helvetica, Arial-Unicode, Arial, Sans-serif">from the Noun Project</text></svg>