<svg xmlns="http://www.w3.org/2000/svg" xmlns:xlink="http://www.w3.org/1999/xlink" version="1.1" x="0px" y="0px" viewBox="55 563 100 125" enable-background="new 55 563 100 100" xml:space="preserve"><path fill="#000000" d="M142.6,584.8c-2.4-1.8-9.2-4.1-37.7-4.1c-30.5,0-35,2.7-36.4,3.5c-7.7,4.6-8.5,25.2-8.5,29.3  c0.1,5.5,1,23.8,8.5,28.3c1.4,0.9,5.9,3.5,36.4,3.5c28.5,0,35.2-2.3,37.7-4c6.6-4.7,7.3-21,7.4-27.9  C150,608,149.4,589.6,142.6,584.8z M139.4,636.8c-1,0.7-6.6,3-34.4,3c-26.9,0-32.5-2.1-33.6-2.7c-2.7-1.6-5.6-10.3-5.8-23.5  c0.2-13.2,3.1-22.9,5.8-24.5c1.1-0.6,6.7-2.8,33.6-2.8c27.8,0,33.4,2.3,34.4,3c2.4,1.7,5,10.9,5,24.2  C144.3,627.1,141.8,635.1,139.4,636.8z M123.1,610.6l-25.3-15.5c-0.9-0.5-1.9-0.5-2.8,0c-0.9,0.5-1.4,1.4-1.4,2.4v31  c0,1,0.5,1.9,1.4,2.4c0.4,0.2,0.9,0.4,1.4,0.4c0.5,0,1-0.1,1.4-0.4l25.3-15.5c0.8-0.5,1.3-1.4,1.3-2.4  C124.4,612.1,123.9,611.1,123.1,610.6z M99.2,623.6v-21.1l17,10.5L99.2,623.6z"/></svg>