<!-- Generated by IcoMoon.io -->
<svg version="1.1" xmlns="http://www.w3.org/2000/svg" width="32" height="32" viewBox="0 0 32 32">
<title>play</title>
<path d="M4.181 0.001c-0.011-0-0.025-0.001-0.038-0.001-0.631 0-1.143 0.512-1.143 1.143 0 0 0 0 0 0.001v-0 29.714c0 0.631 0.512 1.143 1.143 1.143 0.214 0 0.414-0.059 0.585-0.161l-0.005 0.003 25.143-14.857c0.339-0.203 0.562-0.567 0.562-0.984s-0.223-0.782-0.557-0.981l-0.005-0.003-25.143-14.857c-0.155-0.093-0.341-0.151-0.54-0.158l-0.002-0zM5.286 3.146l21.754 12.855-21.754 12.855z"></path>
</svg>
