<svg xmlns:dc="http://purl.org/dc/elements/1.1/" xmlns:cc="http://creativecommons.org/ns#" xmlns:rdf="http://www.w3.org/1999/02/22-rdf-syntax-ns#" xmlns:svg="http://www.w3.org/2000/svg" xmlns="http://www.w3.org/2000/svg" xmlns:sodipodi="http://sodipodi.sourceforge.net/DTD/sodipodi-0.dtd" xmlns:inkscape="http://www.inkscape.org/namespaces/inkscape" viewBox="0 0 8.4666665 10.583333625" version="1.1" x="0px" y="0px"><g transform="translate(0,-288.53332)"><path style="color:#000000;font-style:normal;font-variant:normal;font-weight:normal;font-stretch:normal;font-size:medium;line-height:normal;font-family:sans-serif;font-variant-ligatures:normal;font-variant-position:normal;font-variant-caps:normal;font-variant-numeric:normal;font-variant-alternates:normal;font-feature-settings:normal;text-indent:0;text-align:start;text-decoration:none;text-decoration-line:none;text-decoration-style:solid;text-decoration-color:#000000;letter-spacing:normal;word-spacing:normal;text-transform:none;writing-mode:lr-tb;direction:ltr;text-orientation:mixed;dominant-baseline:auto;baseline-shift:baseline;text-anchor:start;white-space:normal;shape-padding:0;clip-rule:nonzero;display:inline;overflow:visible;visibility:visible;opacity:1;isolation:auto;mix-blend-mode:normal;color-interpolation:sRGB;color-interpolation-filters:linearRGB;solid-color:#000000;solid-opacity:1;vector-effect:none;fill:#000000;fill-opacity:1;fill-rule:nonzero;stroke:none;stroke-width:0.5291667;stroke-linecap:round;stroke-linejoin:round;stroke-miterlimit:4;stroke-dasharray:none;stroke-dashoffset:0;stroke-opacity:1;color-rendering:auto;image-rendering:auto;shape-rendering:auto;text-rendering:auto;enable-background:accumulate" d="m 3.6996698,289.32257 c -1.6042455,0 -2.91041669,1.30617 -2.91041669,2.91042 0,1.60424 1.30617119,2.91041 2.91041669,2.91041 0.7071069,0 1.3559075,-0.25421 1.8608675,-0.67541 l 1.6562308,1.65623 c 0.2493724,0.25977 0.6339073,-0.12476 0.3741367,-0.37413 l -1.6562282,-1.65624 c 0.4211982,-0.50496 0.6754099,-1.15376 0.6754099,-1.86086 0,-1.60425 -1.3061712,-2.91042 -2.9104167,-2.91042 z m 0,0.52917 c 1.3182626,0 2.38125,1.06298 2.38125,2.38125 0,1.31826 -1.0629874,2.38125 -2.38125,2.38125 -1.3182627,0 -2.38125,-1.06299 -2.38125,-2.38125 0,-1.31827 1.0629873,-2.38125 2.38125,-2.38125 z"/></g><text x="0" y="23.4666669" fill="#000000" font-size="5px" font-weight="bold" font-family="'Helvetica Neue', Helvetica, Arial-Unicode, Arial, Sans-serif">Created by Nawicon Studio</text><text x="0" y="28.4666669" fill="#000000" font-size="5px" font-weight="bold" font-family="'Helvetica Neue', Helvetica, Arial-Unicode, Arial, Sans-serif">from the Noun Project</text></svg>