<svg xmlns:dc="http://purl.org/dc/elements/1.1/" xmlns:cc="http://creativecommons.org/ns#" xmlns:rdf="http://www.w3.org/1999/02/22-rdf-syntax-ns#" xmlns:svg="http://www.w3.org/2000/svg" xmlns="http://www.w3.org/2000/svg" xmlns:sodipodi="http://sodipodi.sourceforge.net/DTD/sodipodi-0.dtd" xmlns:inkscape="http://www.inkscape.org/namespaces/inkscape" viewBox="0 0 8.4666665 10.583333625" version="1.1" x="0px" y="0px"><g transform="translate(0,-288.53332)"><path style="color:#000000;font-style:normal;font-variant:normal;font-weight:normal;font-stretch:normal;font-size:medium;line-height:normal;font-family:sans-serif;font-variant-ligatures:normal;font-variant-position:normal;font-variant-caps:normal;font-variant-numeric:normal;font-variant-alternates:normal;font-feature-settings:normal;text-indent:0;text-align:start;text-decoration:none;text-decoration-line:none;text-decoration-style:solid;text-decoration-color:#000000;letter-spacing:normal;word-spacing:normal;text-transform:none;writing-mode:lr-tb;direction:ltr;text-orientation:mixed;dominant-baseline:auto;baseline-shift:baseline;text-anchor:start;white-space:normal;shape-padding:0;clip-rule:nonzero;display:inline;overflow:visible;visibility:visible;opacity:1;isolation:auto;mix-blend-mode:normal;color-interpolation:sRGB;color-interpolation-filters:linearRGB;solid-color:#000000;solid-opacity:1;vector-effect:none;fill:#000000;fill-opacity:1;fill-rule:nonzero;stroke:none;stroke-width:0.5291667;stroke-linecap:round;stroke-linejoin:round;stroke-miterlimit:4;stroke-dasharray:none;stroke-dashoffset:0;stroke-opacity:1;color-rendering:auto;image-rendering:auto;shape-rendering:auto;text-rendering:auto;enable-background:accumulate" d="m 3.4395833,289.06249 a 0.26460979,0.26460979 0 0 0 -0.2645834,0.26458 v 0.46613 c -0.1003908,0.0362 -0.1983131,0.0774 -0.2945553,0.1235 l -0.3307292,-0.33073 a 0.26460979,0.26460979 0 0 0 -0.3741367,0 L 1.05265,290.7089 a 0.26460979,0.26460979 0 0 0 0,0.37414 l 0.3296947,0.32969 c -0.045606,0.0966 -0.085791,0.19493 -0.1214411,0.29559 H 0.79374995 a 0.26460979,0.26460979 0 0 0 -0.2645833,0.26459 v 1.5875 a 0.26460979,0.26460979 0 0 0 0.2645833,0.26458 H 1.2598717 c 0.036166,0.10039 0.07742,0.19831 0.1235075,0.29456 L 1.05265,294.45027 a 0.26460979,0.26460979 0 0 0 0,0.37414 l 1.1229287,1.12293 a 0.26460979,0.26460979 0 0 0 0.3741367,0 l 0.3296947,-0.32969 c 0.096562,0.0456 0.1949265,0.0858 0.2955898,0.12144 v 0.46715 a 0.26460979,0.26460979 0 0 0 0.2645834,0.26458 h 1.5875 a 0.26460979,0.26460979 0 0 0 0.2645833,-0.26458 v -0.46612 c 0.1003909,-0.0362 0.1983132,-0.0774 0.2945554,-0.12351 l 0.3307291,0.33073 a 0.26460979,0.26460979 0 0 0 0.3741367,0 l 1.1229287,-1.12293 a 0.26460979,0.26460979 0 0 0 0,-0.37414 l -0.3296946,-0.32969 c 0.045606,-0.0966 0.085791,-0.19493 0.1214411,-0.29559 H 7.6729166 A 0.26460979,0.26460979 0 0 0 7.9375,293.56041 v -1.5875 A 0.26460979,0.26460979 0 0 0 7.6729166,291.70832 H 7.2067949 c -0.036166,-0.10039 -0.07742,-0.19831 -0.1235075,-0.29455 l 0.3307291,-0.33073 a 0.26460979,0.26460979 0 0 0 0,-0.37414 l -1.1229287,-1.12293 a 0.26460979,0.26460979 0 0 0 -0.3741367,0 l -0.3296946,0.3297 c -0.096562,-0.0456 -0.1949265,-0.0858 -0.2955899,-0.12144 v -0.46716 a 0.26460979,0.26460979 0 0 0 -0.2645833,-0.26458 z m 0.2645833,0.52917 h 1.0583333 v 0.37775 a 0.26460979,0.26460979 0 0 0 0.1927543,0.25476 c 0.1974189,0.0556 0.3880829,0.13404 0.5674069,0.23358 a 0.26460979,0.26460979 0 0 0 0.3152246,-0.0444 l 0.2661338,-0.26613 0.748792,0.74879 -0.2676843,0.26768 a 0.26460979,0.26460979 0 0 0 -0.043407,0.31678 c 0.1005787,0.17873 0.1799405,0.36878 0.2366777,0.56586 a 0.26460979,0.26460979 0 0 0 0.2542487,0.1912 h 0.3756872 v 1.05833 H 7.0305797 a 0.26460979,0.26460979 0 0 0 -0.2547646,0.19276 c -0.055592,0.19742 -0.1340353,0.38756 -0.2335795,0.56689 a 0.26460979,0.26460979 0 0 0 0.044442,0.31574 l 0.2661338,0.26613 -0.748792,0.74879 -0.2676843,-0.26768 a 0.26460979,0.26460979 0 0 0 -0.316775,-0.0434 c -0.1787287,0.10058 -0.3687763,0.17994 -0.5658565,0.23668 a 0.26460979,0.26460979 0 0 0 -0.1912038,0.25425 v 0.37569 H 3.7041666 v -0.37776 a 0.26460979,0.26460979 0 0 0 -0.1927542,-0.25476 c -0.1974189,-0.0556 -0.387567,-0.13404 -0.5668884,-0.23358 a 0.26460979,0.26460979 0 0 0 -0.3157431,0.0444 l -0.2661338,0.26613 -0.748792,-0.74879 0.2676842,-0.26768 a 0.26460979,0.26460979 0 0 0 0.043408,-0.31678 C 1.8243682,293.87415 1.7450064,293.68411 1.6882691,293.48703 A 0.26460979,0.26460979 0 0 0 1.4340204,293.29582 H 1.0583333 v -1.05833 h 0.3777535 a 0.26460979,0.26460979 0 0 0 0.2547647,-0.19275 c 0.055592,-0.19742 0.1340353,-0.38809 0.2335794,-0.56741 a 0.26460979,0.26460979 0 0 0 -0.044442,-0.31523 l -0.2661338,-0.26613 0.748792,-0.74879 0.2676842,0.26768 a 0.26460979,0.26460979 0 0 0 0.3167751,0.0434 c 0.1787287,-0.10058 0.3687762,-0.17994 0.5658564,-0.23668 a 0.26460979,0.26460979 0 0 0 0.1912038,-0.25424 z m 0.5291667,1.5875 c -0.8736171,0 -1.5875,0.71388 -1.5875,1.5875 0,0.87361 0.7138829,1.5875 1.5875,1.5875 0.8736171,0 1.5875,-0.71389 1.5875,-1.5875 0,-0.87362 -0.7138829,-1.5875 -1.5875,-1.5875 z m 0,0.52916 c 0.5876343,0 1.0583333,0.4707 1.0583333,1.05834 0,0.58763 -0.470699,1.05833 -1.0583333,1.05833 -0.5876343,0 -1.0583334,-0.4707 -1.0583334,-1.05833 0,-0.58764 0.4706991,-1.05834 1.0583334,-1.05834 z"/></g><text x="0" y="23.4666669" fill="#000000" font-size="5px" font-weight="bold" font-family="'Helvetica Neue', Helvetica, Arial-Unicode, Arial, Sans-serif">Created by Nawicon Studio</text><text x="0" y="28.4666669" fill="#000000" font-size="5px" font-weight="bold" font-family="'Helvetica Neue', Helvetica, Arial-Unicode, Arial, Sans-serif">from the Noun Project</text></svg>