<?xml version="1.0" encoding="utf-8"?>
<svg xmlns="http://www.w3.org/2000/svg">
<symbol id="atom" viewBox="0 0 100 100">
<path d="M75.6252 81.25C74.3752 81.25 73.7502 81.25 72.5002 81.25C62.5002 80.625 50.6252 76.875 38.7502 71.25C13.7502 58.75 -1.24978 39.375 5.00022 27.5C8.12522 21.25 15.6252 18.75 26.8752 19.375C36.8752 20 48.7502 23.75 60.6252 29.375C85.6252 41.875 100.625 61.25 94.3752 73.125C91.8752 78.125 85.0002 81.25 75.6252 81.25ZM24.3752 25C17.5002 25 12.5002 26.875 11.2502 30C7.50022 37.5 19.3752 53.75 42.5002 65C53.1252 70.625 64.3752 73.75 73.7502 74.375C81.8752 75 87.5002 73.125 89.3752 69.375C93.1252 61.875 81.2502 45.625 58.1252 34.375C47.5002 28.75 36.2502 25.625 26.8752 25C25.6252 25 25.0002 25 24.3752 25Z" fill="#7A7A7C"/>
<path d="M49.9998 100C36.8748 100 26.2498 78.125 26.2498 50C26.2498 21.875 36.8748 0 49.9998 0C63.1248 0 73.7498 21.875 73.7498 50C73.7498 78.125 63.1248 100 49.9998 100ZM49.9998 6.25C41.8748 6.25 32.4998 24.375 32.4998 50C32.4998 75.625 41.2498 93.75 49.9998 93.75C58.7498 93.75 67.4998 75.625 67.4998 50C67.4998 24.375 58.1248 6.25 49.9998 6.25Z" fill="#7A7A7C"/>
<path d="M24.3751 81.25C15.0001 81.25 8.1251 78.125 5.6251 73.125C-0.624903 61.25 14.3751 42.5 39.3751 29.375C50.6251 23.75 62.5001 20 73.1251 19.375C84.3751 18.75 91.8751 21.875 95.0001 27.5C101.25 39.375 86.2501 58.125 61.2501 71.25C50.0001 76.875 38.1251 80.625 27.5001 81.25C26.2501 81.25 25.0001 81.25 24.3751 81.25ZM75.6251 25C75.0001 25 73.7501 25 73.1251 25C63.7501 25.625 53.1251 28.75 41.8751 34.375C18.7501 46.25 6.8751 62.5 10.6251 69.375C12.5001 73.125 18.7501 75 26.8751 74.375C36.2501 73.75 46.8751 70.625 58.1251 65C81.2501 53.125 93.1251 36.875 89.3751 30C87.5001 26.875 82.5001 25 75.6251 25Z" fill="#7A7A7C"/>
<path fill-rule="evenodd" clip-rule="evenodd" d="M50 46.875C48.2741 46.875 46.875 48.2741 46.875 50C46.875 51.7259 48.2741 53.125 50 53.125C51.7259 53.125 53.125 51.7259 53.125 50C53.125 48.2741 51.7259 46.875 50 46.875ZM40.625 50C40.625 44.8223 44.8223 40.625 50 40.625C55.1777 40.625 59.375 44.8223 59.375 50C59.375 55.1777 55.1777 59.375 50 59.375C44.8223 59.375 40.625 55.1777 40.625 50Z" fill="#7A7A7C"/>

</symbol>
<symbol id="badge" viewBox="0 0 100 100">
<path fill-rule="evenodd" clip-rule="evenodd" d="M45.4614 4.41629C48.3776 2.51268 52.207 2.52803 55.1084 4.46234L55.1806 4.51046L55.25 4.5625C59.5863 7.81469 65.7546 9.5625 72.125 9.5625C74.683 9.5625 76.7998 9.54763 78.8671 9.03081L78.9882 9.00054L79.1113 8.98002C84.7145 8.04615 90.25 12.5795 90.25 18.3125V59.5625H84V18.3125C84 16.575 82.1007 14.8862 80.2339 15.1308C77.4096 15.8131 74.6374 15.8128 72.2678 15.8125L72.125 15.8125C64.7828 15.8125 57.2405 13.8305 51.5861 9.62681C50.7661 9.11272 49.6654 9.12467 48.8584 9.66266L48.7966 9.70391L48.7328 9.74217C42.1074 13.7174 35.9324 15.8125 28.375 15.8125C28.2996 15.8125 28.2239 15.8125 28.1478 15.8125C25.1931 15.813 21.7446 15.8136 18.8671 15.0942L18.7506 15.0651L18.6368 15.0271C17.8842 14.7763 17.1247 14.9327 16.4693 15.4788C15.7953 16.0405 15.25 17.0264 15.25 18.3125V60.1875H9V18.3125C9 12.3596 14.3014 7.09444 20.4807 9.05475C22.5169 9.54353 25.1804 9.5625 28.375 9.5625C34.5479 9.5625 39.6105 7.91804 45.4614 4.41629Z" fill="#7A7A7C"/>
<path fill-rule="evenodd" clip-rule="evenodd" d="M9 32.6875H15.25V68.9375C15.25 72.6464 16.9929 75.4258 20.5042 77.4477L45.424 90.5306C48.2844 91.9525 50.991 91.9481 53.8525 90.5174L78.9346 77.9763L79.019 77.9402C82.0562 76.6385 84 73.5315 84 69.5625V32.6875H90.25V69.5625C90.25 75.562 87.2256 81.1775 81.5703 83.6462L56.6475 96.1076C52.0178 98.4225 47.2322 98.4225 42.6025 96.1076L42.5471 96.0799L17.498 82.9284L17.4496 82.9008C12.2418 79.9249 9 75.2123 9 68.9375V32.6875Z" fill="#7A7A7C"/>
<path fill-rule="evenodd" clip-rule="evenodd" d="M50.0937 38.1127L47.1932 43.9136L46.8346 44.2722C46.8251 44.2817 46.8153 44.2916 46.8051 44.3018C46.4943 44.6128 45.8732 45.2344 45.1132 45.7773C44.4265 46.2678 43.2411 46.9807 41.7561 47.056L36.6003 47.7434L39.6734 50.8166C40.8621 51.582 41.5325 52.6763 41.8484 53.7821C42.1291 54.7645 42.1265 55.7848 42.1251 56.3346C42.125 56.371 42.1249 56.4054 42.1249 56.4375V56.7469L40.9562 62.5905L46.3524 59.8924C48.4822 58.8275 50.7677 58.8275 52.8975 59.8924L58.2936 62.5905L57.1249 56.7469V56.4375C57.1249 54.3045 58.1186 52.2744 59.2902 51.1028L63.2746 47.1184L58.1354 46.4332C55.9447 46.355 53.6392 45.2038 52.4548 42.8351L50.0937 38.1127ZM49.0902 29.2326C50.6306 28.9245 52.1284 29.5216 53.0846 30.4778L53.4432 30.8364L58.045 40.04C58.0602 40.0704 58.0734 40.0863 58.0823 40.0956C58.092 40.1057 58.1062 40.1178 58.1285 40.1305C58.1772 40.1584 58.2631 40.1875 58.3749 40.1875H58.5823L68.0095 41.4445C68.7757 41.4857 69.6163 41.7157 70.3611 42.2852C71.2038 42.9297 71.6613 43.81 71.8299 44.6528C72.1379 46.1932 71.5408 47.691 70.5846 48.6472L63.7167 55.5152C63.7131 55.5195 63.6916 55.545 63.6585 55.5958C63.6126 55.6661 63.5606 55.7603 63.5129 55.8716C63.4545 56.0079 63.4178 56.1333 63.397 56.2386L65.2499 65.5031V65.8125C65.2499 66.745 65.0478 68.5032 63.5312 69.6406C61.8125 70.9297 59.9001 70.3814 58.8524 69.8576L50.1024 65.4826C49.7322 65.2975 49.5177 65.2975 49.1475 65.4826L40.7051 69.7038C39.1895 70.8015 37.3555 70.5015 36.2202 69.8203C34.8853 69.0193 33.9999 67.5317 33.9999 65.8125V65.5031L35.8741 56.1321C35.8733 56.0257 35.8718 55.9341 35.8688 55.8508L29.5613 49.5433C28.9813 49.155 28.4324 48.6042 28.073 47.8494C27.5843 46.823 27.5859 45.6987 27.9734 44.73C28.6729 42.9813 30.3462 42.1558 31.8613 42.07L41.2925 40.8125C41.3372 40.7872 41.4007 40.7484 41.4804 40.6915C41.6753 40.5523 41.8669 40.3843 42.0635 40.1977L45.964 32.3967C46.0782 31.8242 46.3123 31.2379 46.7226 30.7013C47.3671 29.8586 48.2475 29.4011 49.0902 29.2326Z" fill="#7A7A7C"/>

</symbol>
<symbol id="briefcase" viewBox="0 0 100 100">
<path d="M71.75 32.875H65.5V26.625C65.5 21.625 61.125 17.25 56.125 17.25H43.625C38.625 17.25 34.25 21.625 34.25 26.625V32.875H28V26.625C28 17.875 34.875 11 43.625 11H56.125C64.875 11 71.75 17.875 71.75 26.625V32.875Z" fill="#7A7A7C"/>
<path fill-rule="evenodd" clip-rule="evenodd" d="M3 36.625C3 31.5541 6.52019 26.625 12.375 26.625H87.375C93.2298 26.625 96.75 31.5541 96.75 36.625V80.375C96.75 85.4399 92.6288 89.125 87.375 89.125H12.375C7.12124 89.125 3 85.4399 3 80.375V36.625ZM12.375 32.875C10.7298 32.875 9.25 34.1959 9.25 36.625V80.375C9.25 81.5601 10.1288 82.875 12.375 82.875H87.375C89.6212 82.875 90.5 81.5601 90.5 80.375V36.625C90.5 34.1959 89.0202 32.875 87.375 32.875H12.375Z" fill="#7A7A7C"/>

</symbol>
<symbol id="brush" viewBox="0 0 100 100">
<path d="M0.952401 85.119C0.888422 86.9253 1.18908 88.7259 1.83642 90.4134C2.48376 92.1009 3.46452 93.6406 4.72011 94.9407C5.97571 96.2407 7.48041 97.2744 9.14436 97.98C10.8083 98.6857 12.5974 99.0487 14.4048 99.0476H14.881C16.7015 98.9656 18.4858 98.5114 20.1239 97.7128C21.7619 96.9143 23.2189 95.7884 24.4048 94.4048L75 39.1667H77.0238C79.1671 39.1706 81.2902 38.7521 83.2716 37.935C85.253 37.1179 87.0539 35.9183 88.5715 34.4048C96.9048 26.0714 98.4524 7.14286 98.6905 5L99.0476 0.833336L94.881 1.19048C92.7381 1.42857 73.8095 2.97619 65.4762 11.3095C63.9627 12.827 62.763 14.628 61.946 16.6094C61.1289 18.5908 60.7104 20.7139 60.7143 22.8571C60.7126 23.5335 60.7523 24.2094 60.8333 24.881L5.59526 75.4762C4.20276 76.6803 3.07222 78.1574 2.27361 79.816C1.475 81.4747 1.02532 83.2796 0.952401 85.119V85.119ZM70.5953 16.4286C74.881 12.1429 84.6429 9.88095 91.1905 8.92857C90.2381 15.3571 87.9762 25.119 83.6905 29.5238C82.837 30.3949 81.8183 31.0869 80.694 31.5594C79.5697 32.0318 78.3624 32.2751 77.1429 32.2751C75.9234 32.2751 74.7161 32.0318 73.5918 31.5594C72.4675 31.0869 71.4488 30.3949 70.5953 29.5238V29.5238C69.7242 28.6703 69.0321 27.6516 68.5597 26.5273C68.0873 25.403 67.8439 24.1957 67.8439 22.9762C67.8439 21.7567 68.0873 20.5494 68.5597 19.4251C69.0321 18.3008 69.7242 17.2821 70.5953 16.4286V16.4286ZM65.4762 34.5238C66.2095 35.2307 67.0066 35.8683 67.8572 36.4286L58.3334 46.9048C57.0195 46.6954 55.8054 46.0761 54.8647 45.1353C53.9239 44.1946 53.3046 42.9805 53.0953 41.6667L63.5714 32.1429C64.1317 32.9934 64.7694 33.7905 65.4762 34.5238V34.5238ZM10.3572 80.8333L47.5 46.9048C48.7498 49.2976 50.7024 51.2502 53.0953 52.5L19.1667 89.7619C18.3058 90.6974 17.1824 91.3511 15.9436 91.6372C14.7049 91.9232 13.4086 91.8284 12.2246 91.3651C11.0407 90.9019 10.0243 90.0917 9.3087 89.0409C8.5931 87.9901 8.21163 86.7475 8.21431 85.4762C8.22768 84.5956 8.42525 83.7276 8.79431 82.9279C9.16337 82.1283 9.69574 81.4148 10.3572 80.8333V80.8333Z" fill="#7A7A7C"/>

</symbol>
<symbol id="chart" viewBox="0 0 100 100">
<path fill-rule="evenodd" clip-rule="evenodd" d="M42.1888 23.8971V55.5555C42.1888 55.5742 42.1888 55.5939 42.1887 55.6146C42.1872 56.2309 42.1835 57.7034 43.4182 59.041L63.2976 84.4423C52.0375 92.0576 37.2638 92.0238 26.0449 83.8646L26.0452 83.8641L25.9973 83.8308C14.1462 75.5865 8.59058 60.1831 13.1471 47.0197L13.1479 47.02L13.1678 46.9577C17.2545 34.1868 28.4375 24.9981 42.1888 23.8971ZM46.1669 19.633C47.1389 20.605 47.7444 21.9929 47.7444 23.3333V55.5546L67.6275 80.9607C68.9011 82.3465 69.0448 84.1397 68.8107 85.4274C68.5912 86.6344 67.8902 88.2006 66.4134 89.0419C53.2641 97.9369 35.9494 97.9223 22.8008 88.3747C9.12157 78.8432 2.46568 60.9424 7.88648 45.2335C12.6484 30.3943 25.6848 19.6641 41.6979 18.3631C43.5397 17.9048 45.1451 18.6112 46.1669 19.633Z" fill="#7A7A7C"/>
<path fill-rule="evenodd" clip-rule="evenodd" d="M81.3345 33.1154L60.0534 53.8508C60.0272 53.9156 60.0033 53.9793 59.9821 54.0415C59.9377 54.171 59.9113 54.2752 59.8966 54.3541L78.2915 77.7658C84.3277 72.1361 88.3299 64.0347 88.8555 56.0238C88.8376 47.8611 86.3161 39.7391 81.3345 33.1154ZM85.6244 29.5777C84.6077 27.892 82.7194 27.5 81.5639 27.5C80.2217 27.5 78.6359 27.9676 77.4621 29.1318L55.4698 50.5602L55.2599 50.98C54.9223 51.6552 54.4742 52.7033 54.3555 53.8903C54.2341 55.1037 54.4533 56.6499 55.6437 57.9335L73.8352 81.0863C74.7547 82.4141 76.1069 83.364 77.7458 83.5279C79.3738 83.6907 80.8392 83.0307 81.8818 82.0127C89.0235 75.4479 93.8037 65.9173 94.4057 56.2844L94.4111 56.1978V56.1111C94.4111 46.7186 91.4973 37.2897 85.6244 29.5777Z" fill="#7A7A7C"/>
<path fill-rule="evenodd" clip-rule="evenodd" d="M57.7444 11.0757V35.5556C57.7444 35.6221 57.7539 35.6553 57.757 35.665C57.7603 35.6752 57.763 35.6794 57.7654 35.6827C57.7714 35.691 57.8013 35.7254 57.8733 35.7542C57.9399 35.7809 57.9997 35.7851 58.0342 35.7823L76.2998 18.0702C71.1639 14.0375 64.6309 11.0866 58.2277 10.5586C58.1725 10.5636 58.1425 10.5735 58.1295 10.5783C58.1115 10.5851 58.0854 10.5975 58.0458 10.6322C57.9818 10.6881 57.8664 10.8194 57.7444 11.0757ZM52.3314 9.67715C53.1202 7.31076 55.0359 5 58.3 5H58.4066L58.513 5.00818C66.3987 5.61477 74.1364 9.22297 80.0352 13.942L80.1554 14.0381L80.2641 14.1469C82.46 16.3428 82.46 19.7683 80.2641 21.9642L80.2339 21.9944L61.9131 39.7596C60.1587 41.4985 57.6853 41.6626 55.81 40.9124C53.8425 40.1254 52.1888 38.2129 52.1888 35.5556V10.1048L52.3314 9.67715Z" fill="#7A7A7C"/>

</symbol>
<symbol id="computer" viewBox="0 0 100 100">
<path fill-rule="evenodd" clip-rule="evenodd" d="M8.0611 12.0611C7.57102 12.5512 7.14286 13.383 7.14286 14.7143V64.7143C7.14286 66.0456 7.57102 66.8774 8.0611 67.3675C8.55117 67.8576 9.38303 68.2857 10.7143 68.2857H89.2857C90.617 68.2857 91.4488 67.8576 91.9389 67.3675C92.429 66.8774 92.8571 66.0456 92.8571 64.7143V14.7143C92.8571 13.383 92.429 12.5512 91.9389 12.0611C91.4488 11.571 90.617 11.1429 89.2857 11.1429H10.7143C9.38303 11.1429 8.55117 11.571 8.0611 12.0611ZM3.01033 7.01033C5.02026 5.00041 7.75983 4 10.7143 4H89.2857C92.2402 4 94.9797 5.00041 96.9897 7.01033C98.9996 9.02026 100 11.7598 100 14.7143V64.7143C100 67.6687 98.9996 70.4083 96.9897 72.4182C94.9797 74.4282 92.2402 75.4286 89.2857 75.4286H10.7143C7.75983 75.4286 5.02026 74.4282 3.01033 72.4182C1.00041 70.4083 0 67.6687 0 64.7143V14.7143C0 11.7598 1.00041 9.02026 3.01033 7.01033Z" fill="#7A7A7C"/>
<path fill-rule="evenodd" clip-rule="evenodd" d="M35.7143 71.8571C35.7143 69.8847 37.3133 68.2857 39.2857 68.2857H60.7143C62.6867 68.2857 64.2857 69.8847 64.2857 71.8571V93.2857C64.2857 95.2581 62.6867 96.8571 60.7143 96.8571H39.2857C37.3133 96.8571 35.7143 95.2581 35.7143 93.2857V71.8571ZM42.8572 75.4286V89.7143H57.1429V75.4286H42.8572Z" fill="#7A7A7C"/>
<path fill-rule="evenodd" clip-rule="evenodd" d="M21.4286 93.2857C21.4286 91.3133 23.0276 89.7143 25 89.7143H75C76.9725 89.7143 78.5714 91.3133 78.5714 93.2857C78.5714 95.2582 76.9725 96.8571 75 96.8571H25C23.0276 96.8571 21.4286 95.2582 21.4286 93.2857Z" fill="#7A7A7C"/>
<path fill-rule="evenodd" clip-rule="evenodd" d="M92.8571 61.1429H0V54H92.8571V61.1429Z" fill="#7A7A7C"/>

</symbol>
<symbol id="cross" viewBox="0 0 100 100">
<path fill-rule="evenodd" clip-rule="evenodd" d="M41.5636 5.11915C43.1269 3.55587 45.2576 2.77778 47.5556 2.77778H53.1111C55.409 2.77778 57.5398 3.55587 59.1031 5.11915C60.6663 6.68242 61.4444 8.8132 61.4444 11.1111V25H75.3333C77.6312 25 79.762 25.7781 81.3253 27.3414C82.8886 28.9046 83.6667 31.0354 83.6667 33.3333V38.8889C83.6667 41.1868 82.8886 43.3176 81.3253 44.8809C79.762 46.4441 77.6312 47.2222 75.3333 47.2222H61.4444V88.8889C61.4444 91.1868 60.6663 93.3176 59.1031 94.8809C57.5398 96.4441 55.409 97.2222 53.1111 97.2222H47.5556C45.2576 97.2222 43.1269 96.4441 41.5636 94.8809C40.0003 93.3176 39.2222 91.1868 39.2222 88.8889V47.2222H25.3333C23.0354 47.2222 20.9046 46.4441 19.3414 44.8809C17.7781 43.3176 17 41.1868 17 38.8889V33.3333C17 31.0354 17.7781 28.9046 19.3414 27.3414C20.9046 25.7781 23.0354 25 25.3333 25H39.2222V11.1111C39.2222 8.8132 40.0003 6.68242 41.5636 5.11915ZM45.492 9.04752C45.1108 9.42869 44.7778 10.0757 44.7778 11.1111V30.5556H25.3333C24.2979 30.5556 23.6509 30.8886 23.2697 31.2697C22.8886 31.6509 22.5556 32.2979 22.5556 33.3333V38.8889C22.5556 39.9243 22.8886 40.5713 23.2697 40.9525C23.6509 41.3336 24.2979 41.6667 25.3333 41.6667H44.7778V88.8889C44.7778 89.9243 45.1108 90.5713 45.492 90.9525C45.8731 91.3336 46.5201 91.6667 47.5556 91.6667H53.1111C54.1465 91.6667 54.7935 91.3336 55.1747 90.9525C55.5559 90.5713 55.8889 89.9243 55.8889 88.8889V41.6667H75.3333C76.3688 41.6667 77.0158 41.3336 77.3969 40.9525C77.7781 40.5713 78.1111 39.9243 78.1111 38.8889V33.3333C78.1111 32.2979 77.7781 31.6509 77.3969 31.2697C77.0158 30.8886 76.3688 30.5556 75.3333 30.5556H55.8889V11.1111C55.8889 10.0757 55.5559 9.42869 55.1747 9.04752C54.7935 8.66635 54.1465 8.33333 53.1111 8.33333H47.5556C46.5201 8.33333 45.8731 8.66635 45.492 9.04752Z" fill="#7A7A7C"/>

</symbol>
<symbol id="fast-forward" viewBox="0 0 8.4666665 10.583333625"><g transform="translate(0,-288.53332)"><path style="color:#000000;font-style:normal;font-variant:normal;font-weight:normal;font-stretch:normal;font-size:medium;line-height:normal;font-family:sans-serif;font-variant-ligatures:normal;font-variant-position:normal;font-variant-caps:normal;font-variant-numeric:normal;font-variant-alternates:normal;font-feature-settings:normal;text-indent:0;text-align:start;text-decoration:none;text-decoration-line:none;text-decoration-style:solid;text-decoration-color:#000000;letter-spacing:normal;word-spacing:normal;text-transform:none;writing-mode:lr-tb;direction:ltr;text-orientation:mixed;dominant-baseline:auto;baseline-shift:baseline;text-anchor:start;white-space:normal;shape-padding:0;clip-rule:nonzero;display:inline;overflow:visible;visibility:visible;opacity:1;isolation:auto;mix-blend-mode:normal;color-interpolation:sRGB;color-interpolation-filters:linearRGB;solid-color:#000000;solid-opacity:1;vector-effect:none;fill:#000000;fill-opacity:1;fill-rule:evenodd;stroke:none;stroke-width:0.5291667;stroke-linecap:butt;stroke-linejoin:round;stroke-miterlimit:4;stroke-dasharray:none;stroke-dashoffset:0;stroke-opacity:1;color-rendering:auto;image-rendering:auto;shape-rendering:auto;text-rendering:auto;enable-background:accumulate" d="m 0.77838527,290.12105 a 0.26460979,0.26460979 0 0 0 -0.2490814,0.26458 v 4.7625 a 0.26460979,0.26460979 0 0 0 0.40049185,0.22686 l 2.50992468,-1.50585 v 1.27899 a 0.26460979,0.26460979 0 0 0 0.4004919,0.22686 l 3.96875,-2.38125 a 0.26460979,0.26460979 0 0 0 0,-0.45372 l -3.96875,-2.38125 a 0.26460979,0.26460979 0 0 0 -0.1250553,-0.0377 0.26460979,0.26460979 0 0 0 -0.2754366,0.26458 v 1.27899 l -2.50992468,-1.50585 a 0.26460979,0.26460979 0 0 0 -0.12505531,-0.0377 0.26460979,0.26460979 0 0 0 -0.0263525,0 z m 0.28008523,0.73174 2.3812499,1.42885 v 0.97048 l -2.3812499,1.42886 z m 2.9104166,0 3.189986,1.91409 -3.189986,1.9141 z"/></g><text x="0" y="23.4666669" fill="#000000" font-size="5px" font-weight="bold" font-family="&apos;Helvetica Neue&apos;, Helvetica, Arial-Unicode, Arial, Sans-serif">Created by Nawicon Studio</text><text x="0" y="28.4666669" fill="#000000" font-size="5px" font-weight="bold" font-family="&apos;Helvetica Neue&apos;, Helvetica, Arial-Unicode, Arial, Sans-serif">from the Noun Project</text>
</symbol>
<symbol id="gamepad" viewBox="0 0 100 100">
<path d="M93.5834 49.9709C93.5834 51.0356 93.5103 52.1003 93.3746 53.1546C93.4164 52.8728 93.4477 52.6014 93.4895 52.3195C93.2076 54.4072 92.6439 56.4531 91.8298 58.3947C91.9341 58.1442 92.0385 57.8936 92.1429 57.6431C91.6836 58.7183 91.1513 59.7621 90.5458 60.7538C90.2327 61.2548 89.9091 61.7558 89.5646 62.236C89.4811 62.3508 89.408 62.4552 89.3245 62.57C88.9905 63.0293 89.6064 62.2151 89.4811 62.3717C89.2828 62.6222 89.0845 62.8727 88.8757 63.1128C88.1241 64.0001 87.3099 64.8247 86.4435 65.5867C86.2348 65.7642 86.0364 65.9416 85.8172 66.1191C85.692 66.2235 85.5667 66.3174 85.4415 66.4218C85.2014 66.6201 85.8381 66.0878 85.8068 66.14C85.7755 66.2026 85.6398 66.2652 85.5876 66.307C85.1283 66.6515 84.6586 66.975 84.1888 67.2778C83.0511 68.0085 81.8506 68.6348 80.6085 69.1671C80.859 69.0627 81.1095 68.9583 81.36 68.854C79.408 69.6682 77.3726 70.2214 75.2849 70.5032C75.5667 70.4615 75.8381 70.4302 76.1199 70.3884C74.0009 70.6598 71.8611 70.6598 69.7421 70.3884C70.0239 70.4302 70.2953 70.4615 70.5772 70.5032C68.5208 70.2214 66.5166 69.6682 64.6064 68.8748C64.8569 68.9792 65.1074 69.0836 65.3579 69.188C63.9801 68.6034 62.6648 67.9041 61.4122 67.069C61.0991 66.8602 60.7964 66.6515 60.5041 66.4323C60.3997 66.3592 59.8569 65.9416 60.3162 66.2965C60.7755 66.6515 60.1701 66.1713 60.0761 66.0982C59.502 65.6285 58.9592 65.1275 58.4268 64.6055C57.4561 63.6452 56.7045 62.6431 55.1701 62.5909C55.0657 62.5909 54.9613 62.5909 54.8673 62.5909C54.2515 62.5909 53.6356 62.5909 53.0197 62.5909C51.1721 62.5909 49.3141 62.5909 47.4665 62.5909C46.7567 62.5909 46.0469 62.5909 45.3371 62.5909C45.1492 62.5909 44.9613 62.5909 44.7734 62.5909C43.74 62.6222 42.8945 63.0502 42.1951 63.8018C41.6419 64.4072 41.0573 64.9813 40.4415 65.5241C40.1283 65.8059 39.7943 66.0773 39.4707 66.3383C39.3141 66.4636 39.0114 66.6723 39.7316 66.14C39.6481 66.2026 39.5646 66.2652 39.4811 66.3279C39.3141 66.4531 39.1367 66.5784 38.9696 66.7036C37.5709 67.6849 36.0678 68.5095 34.502 69.188C34.7525 69.0836 35.003 68.9792 35.2536 68.8748C33.3329 69.6786 31.3392 70.2214 29.2828 70.5032C29.5646 70.4615 29.836 70.4302 30.1179 70.3884C27.9989 70.6702 25.859 70.6702 23.74 70.3884C24.0218 70.4302 24.2932 70.4615 24.5751 70.5032C22.4874 70.2214 20.4415 69.6577 18.4999 68.8435C18.7504 68.9479 19.001 69.0523 19.2515 69.1567C18.1763 68.6974 17.1325 68.165 16.1304 67.5596C15.6294 67.2464 15.1283 66.9229 14.6481 66.5784C14.5333 66.4949 14.4289 66.4218 14.3141 66.3383C14.2097 66.2548 13.7922 65.9416 14.2515 66.2965C14.7212 66.6515 14.2515 66.2966 14.1367 66.2026C14.0114 66.0982 13.8861 66.0043 13.7713 65.8999C12.8841 65.1483 12.0594 64.3341 11.287 63.4677C11.1095 63.259 10.9321 63.0606 10.7546 62.8414C10.6502 62.7162 10.5563 62.5909 10.4519 62.4657C10.2431 62.2256 10.7964 62.8728 10.7337 62.831C10.6711 62.7892 10.6085 62.6744 10.5667 62.6118C10.2223 62.1525 9.89867 61.6828 9.59596 61.213C8.86527 60.0753 8.23896 58.8748 7.70661 57.6327C7.81099 57.8832 7.91537 58.1337 8.01976 58.3842C7.20556 56.4322 6.64189 54.3968 6.36005 52.3091C6.4018 52.5909 6.43312 52.8623 6.47487 53.1441C6.20347 51.0356 6.20347 48.8957 6.47487 46.7872C6.43312 47.069 6.4018 47.3404 6.36005 47.6222C6.64189 45.5345 7.20556 43.4886 8.01976 41.5471C7.91537 41.7976 7.81099 42.0481 7.70661 42.2986C8.1659 41.2235 8.69825 40.1796 9.30368 39.1776C9.61683 38.6765 9.94042 38.1755 10.2849 37.6953C10.3684 37.5805 10.4415 37.4761 10.525 37.3613C10.6085 37.2569 10.9216 36.8393 10.5667 37.2986C10.2118 37.7684 10.5667 37.2986 10.6607 37.1838C10.7651 37.0586 10.859 36.9333 10.9634 36.8185C11.715 35.9312 12.5292 35.1066 13.3955 34.3341C13.6043 34.1567 13.8026 33.9792 14.0218 33.8018C14.1471 33.6974 14.2724 33.6034 14.3976 33.4991C14.6377 33.2903 13.9905 33.8435 14.0323 33.7809C14.074 33.7183 14.1889 33.6556 14.2515 33.6139C14.7108 33.2694 15.1805 32.9458 15.6502 32.6431C16.788 31.9124 17.9884 31.2861 19.2306 30.7538C18.9801 30.8581 18.7296 30.9625 18.479 31.0669C20.431 30.2527 22.4665 29.689 24.5542 29.4072C24.2724 29.449 24.001 29.4803 23.7191 29.522C26.0051 29.2193 28.3433 29.3132 30.6398 29.3132C34.4394 29.3132 38.2285 29.3132 42.0281 29.3132C46.7358 29.3132 51.4435 29.3132 56.1513 29.3132C60.1387 29.3132 64.1158 29.3132 68.1032 29.3132C69.9508 29.3132 71.8089 29.2715 73.6669 29.3237C74.4811 29.3446 75.3058 29.4176 76.1199 29.522C75.8381 29.4803 75.5667 29.449 75.2849 29.4072C77.3726 29.689 79.4185 30.2527 81.36 31.0669C81.1095 30.9625 80.859 30.8581 80.6085 30.7538C81.6836 31.213 82.7275 31.7454 83.7296 32.3613C84.2306 32.6744 84.7316 32.998 85.2118 33.3425C85.3266 33.426 85.431 33.4991 85.5458 33.5826C86.0051 33.9166 85.1909 33.3007 85.3475 33.426C85.598 33.6243 85.8485 33.8226 86.0886 34.0314C86.9759 34.783 87.8005 35.5972 88.573 36.4636C88.7504 36.6723 88.9279 36.8811 89.1053 37.0899C89.2097 37.2151 89.3037 37.3404 89.408 37.4657C89.6168 37.7057 89.0636 37.069 89.1262 37.1003C89.1888 37.1421 89.2515 37.2569 89.2932 37.3195C89.6377 37.7788 89.9613 38.2485 90.264 38.7287C90.9947 39.8665 91.621 41.0669 92.1533 42.3195C92.049 42.069 91.9446 41.8185 91.8402 41.5679C92.6544 43.5199 93.2181 45.5554 93.4999 47.6535C93.4581 47.3717 93.4268 47.1003 93.3851 46.8185C93.5103 47.8519 93.5834 48.9062 93.5834 49.9709C93.5834 51.6097 95.0239 53.1755 96.7149 53.1024C98.406 53.0293 99.8569 51.7245 99.8465 49.9709C99.8256 41.975 96.1721 34.0523 89.8778 29.0627C86.6836 26.5366 83.0302 24.6368 79.0427 23.7287C76.8715 23.2381 74.6481 23.0293 72.4248 23.0293C69.2932 23.0293 66.1721 23.0293 63.0406 23.0293C57.8319 23.0293 52.6231 23.0293 47.4143 23.0293C42.5709 23.0293 37.7275 23.0293 32.8841 23.0293C30.5041 23.0293 28.1033 22.9458 25.7337 23.0606C21.5897 23.259 17.5396 24.3863 13.8966 26.3801C10.3475 28.3216 7.36214 31.0878 4.99262 34.3446C0.211827 40.879 -1.2078 49.6786 1.0469 57.4239C3.29116 65.1692 9.03228 71.6097 16.454 74.7412C24.6795 78.2172 34.4707 77.3821 41.882 72.3091C43.7191 71.046 45.431 69.6055 46.9133 67.9458C46.1721 68.2485 45.4415 68.5617 44.7003 68.8644C47.7588 68.8644 50.8068 68.8644 53.8653 68.8644C54.3037 68.8644 54.7421 68.8644 55.1805 68.8644C54.4394 68.5617 53.7087 68.2485 52.9676 67.9458C56.0469 71.3905 60.0239 73.9583 64.3872 75.4719C68.74 76.975 73.4373 77.1943 77.9571 76.4009C85.6711 75.0439 92.6126 69.9813 96.4331 63.165C98.6878 59.1462 99.8673 54.5846 99.8778 49.9813C99.8778 48.3425 98.4373 46.7767 96.7462 46.8498C95.0135 46.9229 93.5939 48.2172 93.5834 49.9709Z" fill="#7A7A7C"/>
<path d="M72.7378 40.5868C72.7378 40.6807 72.7274 40.7747 72.717 40.8686C72.7587 40.5868 72.79 40.3154 72.8318 40.0336C72.8005 40.2214 72.7483 40.3885 72.6857 40.5659C72.79 40.3154 72.8944 40.0649 72.9988 39.8143C72.9571 39.8979 72.9153 39.9709 72.8735 40.0544C72.6648 40.472 73.3224 39.5638 73.0719 39.783C72.8735 39.9605 73.6564 39.4699 73.3955 39.5429C73.312 39.5638 73.1867 39.6682 73.1032 39.71C73.3537 39.6056 73.6042 39.5012 73.8548 39.3968C73.6773 39.4699 73.5103 39.5116 73.3224 39.5429C73.6042 39.5012 73.8756 39.4699 74.1575 39.4281C73.9696 39.449 73.7817 39.449 73.5938 39.4281C73.8756 39.4699 74.147 39.5012 74.4289 39.5429C74.241 39.5116 74.074 39.4594 73.8965 39.3968C74.147 39.5012 74.3976 39.6056 74.6481 39.71C74.5646 39.6682 74.4915 39.6265 74.408 39.5847C73.9905 39.3759 74.8986 40.0336 74.6794 39.783C74.5019 39.5847 74.9925 40.3676 74.9195 40.1066C74.8986 40.0231 74.7942 39.8979 74.7525 39.8143C74.8568 40.0649 74.9612 40.3154 75.0656 40.5659C74.9925 40.3885 74.9508 40.2214 74.9195 40.0336C74.9612 40.3154 74.9925 40.5868 75.0343 40.8686C75.0134 40.6807 75.0134 40.4928 75.0343 40.305C74.9925 40.5868 74.9612 40.8582 74.9195 41.14C74.9508 40.9521 75.003 40.7851 75.0656 40.6077C74.9612 40.8582 74.8568 41.1087 74.7525 41.3592C74.7942 41.2757 74.836 41.2027 74.8777 41.1191C75.0865 40.7016 74.4289 41.6098 74.6794 41.3905C74.8777 41.2131 74.0948 41.7037 74.3558 41.6306C74.4393 41.6098 74.5646 41.5054 74.6481 41.4636C74.3976 41.568 74.147 41.6724 73.8965 41.7768C74.074 41.7037 74.241 41.6619 74.4289 41.6306C74.147 41.6724 73.8756 41.7037 73.5938 41.7455C73.7817 41.7246 73.9696 41.7246 74.1575 41.7455C73.8756 41.7037 73.6042 41.6724 73.3224 41.6306C73.5103 41.6619 73.6773 41.7141 73.8548 41.7768C73.6042 41.6724 73.3537 41.568 73.1032 41.4636C73.1867 41.5054 73.2598 41.5471 73.3433 41.5889C73.7608 41.7976 72.8527 41.14 73.0719 41.3905C73.2493 41.5889 72.7587 40.806 72.8318 41.067C72.8527 41.1505 72.9571 41.2757 72.9988 41.3592C72.8944 41.1087 72.79 40.8582 72.6857 40.6077C72.7587 40.7851 72.8005 40.9521 72.8318 41.14C72.79 40.8582 72.7587 40.5868 72.717 40.305C72.7274 40.3989 72.7378 40.4928 72.7378 40.5868C72.8005 42.2256 74.1366 43.7914 75.8694 43.7183C77.5186 43.6452 79.0635 42.3404 79.0009 40.5868C78.907 37.7997 76.7253 35.4511 73.8652 35.4511C71.0781 35.4511 68.7295 37.7997 68.7295 40.5868C68.7295 43.3634 71.0781 45.7329 73.8652 45.7225C76.7358 45.712 78.907 43.3843 79.0009 40.5868C79.0635 38.948 77.5186 37.3822 75.8694 37.4553C74.1157 37.5283 72.79 38.8227 72.7378 40.5868Z" fill="#7A7A7C"/>
<path d="M73.0093 59.3759C73.0093 59.4699 72.9989 59.5638 72.9884 59.6578C73.0302 59.3759 73.0615 59.1045 73.1033 58.8227C73.072 59.0106 73.0198 59.1776 72.9571 59.355C73.0615 59.1045 73.1659 58.854 73.2703 58.6035C73.2285 58.687 73.1868 58.7601 73.145 58.8436C72.9363 59.2611 73.5939 58.353 73.3434 58.5722C73.145 58.7496 73.9279 58.259 73.6669 58.3321C73.5834 58.353 73.4582 58.4573 73.3747 58.4991C73.6252 58.3947 73.8757 58.2903 74.1262 58.1859C73.9488 58.259 73.7818 58.3008 73.5939 58.3321C73.8757 58.2903 74.1471 58.259 74.4289 58.2173C74.2411 58.2381 74.0532 58.2381 73.8653 58.2173C74.1471 58.259 74.4185 58.2903 74.7003 58.3321C74.5125 58.3008 74.3454 58.2486 74.168 58.1859C74.4185 58.2903 74.669 58.3947 74.9195 58.4991C74.836 58.4573 74.763 58.4156 74.6795 58.3738C74.2619 58.1651 75.1701 58.8227 74.9509 58.5722C74.7734 58.3738 75.264 59.1567 75.191 58.8958C75.1701 58.8122 75.0657 58.687 75.0239 58.6035C75.1283 58.854 75.2327 59.1045 75.3371 59.355C75.264 59.1776 75.2223 59.0106 75.191 58.8227C75.2327 59.1045 75.264 59.3759 75.3058 59.6578C75.2849 59.4699 75.2849 59.282 75.3058 59.0941C75.264 59.3759 75.2327 59.6473 75.191 59.9292C75.2223 59.7413 75.2745 59.5742 75.3371 59.3968C75.2327 59.6473 75.1283 59.8978 75.0239 60.1484C75.0657 60.0649 75.1074 59.9918 75.1492 59.9083C75.358 59.4907 74.7003 60.3989 74.9509 60.1797C75.1492 60.0022 74.3663 60.4928 74.6273 60.4198C74.7108 60.3989 74.836 60.2945 74.9195 60.2527C74.669 60.3571 74.4185 60.4615 74.168 60.5659C74.3454 60.4928 74.5125 60.4511 74.7003 60.4198C74.4185 60.4615 74.1471 60.4928 73.8653 60.5346C74.0532 60.5137 74.2411 60.5137 74.4289 60.5346C74.1471 60.4928 73.8757 60.4615 73.5939 60.4198C73.7818 60.4511 73.9488 60.5033 74.1262 60.5659C73.8757 60.4615 73.6252 60.3571 73.3747 60.2527C73.4582 60.2945 73.5312 60.3363 73.6147 60.378C74.0323 60.5868 73.1241 59.9292 73.3434 60.1797C73.5208 60.378 73.0302 59.5951 73.1033 59.8561C73.1241 59.9396 73.2285 60.0649 73.2703 60.1484C73.1659 59.8978 73.0615 59.6473 72.9571 59.3968C73.0302 59.5742 73.072 59.7413 73.1033 59.9292C73.0615 59.6473 73.0302 59.3759 72.9884 59.0941C73.0093 59.188 73.0093 59.282 73.0093 59.3759C73.072 61.0147 74.4081 62.5805 76.1408 62.5074C77.7901 62.4344 79.335 61.1296 79.2724 59.3759C79.1784 56.5889 76.9968 54.2402 74.1367 54.2402C71.3496 54.2402 69.001 56.5889 69.001 59.3759C69.001 62.1525 71.3496 64.5221 74.1367 64.5116C77.0072 64.5012 79.1784 62.1734 79.2724 59.3759C79.335 57.7371 77.7901 56.1713 76.1408 56.2444C74.3976 56.3279 73.072 57.6223 73.0093 59.3759Z" fill="#7A7A7C"/>
<path d="M64.6273 51.1087C64.7212 51.1087 64.8152 51.1191 64.9091 51.1295C64.6273 51.0878 64.3559 51.0565 64.0741 51.0147C64.2619 51.046 64.429 51.0982 64.6064 51.1609C64.3559 51.0565 64.1054 50.9521 63.8548 50.8477C63.9384 50.8895 64.0114 50.9312 64.0949 50.973C64.5125 51.1817 63.6043 50.5241 63.8235 50.7746C64.001 50.973 63.5104 50.1901 63.5834 50.451C63.6043 50.5346 63.7087 50.6598 63.7505 50.7433C63.6461 50.4928 63.5417 50.2423 63.4373 49.9918C63.5104 50.1692 63.5521 50.3362 63.5834 50.5241C63.5417 50.2423 63.5104 49.9709 63.4686 49.689C63.4895 49.8769 63.4895 50.0648 63.4686 50.2527C63.5104 49.9709 63.5417 49.6995 63.5834 49.4176C63.5521 49.6055 63.4999 49.7726 63.4373 49.95C63.5417 49.6995 63.6461 49.449 63.7505 49.1984C63.7087 49.2819 63.667 49.355 63.6252 49.4385C63.4164 49.8561 64.0741 48.9479 63.8235 49.1671C63.6252 49.3446 64.4081 48.854 64.1471 48.927C64.0636 48.9479 63.9384 49.0523 63.8548 49.0941C64.1054 48.9897 64.3559 48.8853 64.6064 48.7809C64.429 48.854 64.2619 48.8957 64.0741 48.927C64.3559 48.8853 64.6273 48.854 64.9091 48.8122C64.7212 48.8331 64.5333 48.8331 64.3455 48.8122C64.6273 48.854 64.8987 48.8853 65.1805 48.927C64.9926 48.8957 64.8256 48.8435 64.6482 48.7809C64.8987 48.8853 65.1492 48.9897 65.3997 49.0941C65.3162 49.0523 65.2432 49.0105 65.1596 48.9688C64.7421 48.76 65.6503 49.4176 65.4311 49.1671C65.2536 48.9688 65.7442 49.7517 65.6711 49.4907C65.6503 49.4072 65.5459 49.2819 65.5041 49.1984C65.6085 49.449 65.7129 49.6995 65.8173 49.95C65.7442 49.7726 65.7025 49.6055 65.6711 49.4176C65.7129 49.6995 65.7442 49.9709 65.786 50.2527C65.7651 50.0648 65.7651 49.8769 65.786 49.689C65.7442 49.9709 65.7129 50.2423 65.6711 50.5241C65.7025 50.3362 65.7546 50.1692 65.8173 49.9918C65.7129 50.2423 65.6085 50.4928 65.5041 50.7433C65.5459 50.6598 65.5876 50.5867 65.6294 50.5032C65.8381 50.0857 65.1805 50.9939 65.4311 50.7746C65.6294 50.5972 64.8465 51.0878 65.1075 51.0147C65.191 50.9938 65.3162 50.8895 65.3997 50.8477C65.1492 50.9521 64.8987 51.0565 64.6482 51.1609C64.8256 51.0878 64.9926 51.046 65.1805 51.0147C64.8987 51.0565 64.6273 51.0878 64.3455 51.1295C64.4394 51.1087 64.5333 51.1087 64.6273 51.1087C66.2661 51.046 67.8319 49.7099 67.7588 47.9771C67.6858 46.3279 66.3809 44.783 64.6273 44.8456C61.8402 44.9396 59.4916 47.1212 59.4916 49.9813C59.4916 52.7684 61.8402 55.117 64.6273 55.117C67.4039 55.117 69.7734 52.7684 69.763 49.9813C69.7526 47.1108 67.4248 44.9396 64.6273 44.8456C62.9885 44.783 61.4227 46.3279 61.4958 47.9771C61.5688 49.7204 62.8736 51.046 64.6273 51.1087Z" fill="#7A7A7C"/>
<path d="M83.4268 51.1087C83.5208 51.1087 83.6147 51.1191 83.7087 51.1295C83.4268 51.0878 83.1554 51.0565 82.8736 51.0147C83.0615 51.046 83.2285 51.0982 83.406 51.1609C83.1554 51.0565 82.9049 50.9521 82.6544 50.8477C82.7379 50.8895 82.811 50.9312 82.8945 50.973C83.312 51.1817 82.4039 50.5241 82.6231 50.7746C82.8005 50.973 82.3099 50.1901 82.383 50.451C82.4039 50.5346 82.5083 50.6598 82.55 50.7433C82.4456 50.4928 82.3412 50.2423 82.2369 49.9918C82.3099 50.1692 82.3517 50.3362 82.383 50.5241C82.3412 50.2423 82.3099 49.9709 82.2682 49.689C82.2891 49.8769 82.2891 50.0648 82.2682 50.2527C82.3099 49.9709 82.3412 49.6995 82.383 49.4176C82.3517 49.6055 82.2995 49.7726 82.2369 49.95C82.3412 49.6995 82.4456 49.449 82.55 49.1984C82.5083 49.2819 82.4665 49.355 82.4248 49.4385C82.216 49.8561 82.8736 48.9479 82.6231 49.1671C82.4248 49.3446 83.2076 48.854 82.9467 48.927C82.8632 48.9479 82.7379 49.0523 82.6544 49.0941C82.9049 48.9897 83.1554 48.8853 83.406 48.7809C83.2285 48.854 83.0615 48.8957 82.8736 48.927C83.1554 48.8853 83.4268 48.854 83.7087 48.8122C83.5208 48.8331 83.3329 48.8331 83.145 48.8122C83.4268 48.854 83.6982 48.8853 83.9801 48.927C83.7922 48.8957 83.6252 48.8435 83.4477 48.7809C83.6982 48.8853 83.9488 48.9897 84.1993 49.0941C84.1158 49.0523 84.0427 49.0105 83.9592 48.9688C83.5417 48.76 84.4498 49.4176 84.2306 49.1671C84.0531 48.9688 84.5438 49.7517 84.4707 49.4907C84.4498 49.4072 84.3454 49.2819 84.3037 49.1984C84.4081 49.449 84.5124 49.6995 84.6168 49.95C84.5438 49.7726 84.502 49.6055 84.4707 49.4176C84.5124 49.6995 84.5438 49.9709 84.5855 50.2527C84.5646 50.0648 84.5646 49.8769 84.5855 49.689C84.5438 49.9709 84.5124 50.2423 84.4707 50.5241C84.502 50.3362 84.5542 50.1692 84.6168 49.9918C84.5124 50.2423 84.4081 50.4928 84.3037 50.7433C84.3454 50.6598 84.3872 50.5867 84.4289 50.5032C84.6377 50.0857 83.9801 50.9939 84.2306 50.7746C84.4289 50.5972 83.6461 51.0878 83.907 51.0147C83.9905 50.9938 84.1158 50.8895 84.1993 50.8477C83.9488 50.9521 83.6982 51.0565 83.4477 51.1609C83.6252 51.0878 83.7922 51.046 83.9801 51.0147C83.6982 51.0565 83.4268 51.0878 83.145 51.1295C83.239 51.1087 83.3329 51.1087 83.4268 51.1087C85.0657 51.046 86.6314 49.7099 86.5584 47.9771C86.4853 46.3279 85.1805 44.783 83.4268 44.8456C80.6398 44.9396 78.2911 47.1212 78.2911 49.9813C78.2911 52.7684 80.6398 55.117 83.4268 55.117C86.2035 55.117 88.573 52.7684 88.5626 49.9813C88.5521 47.1108 86.2243 44.9396 83.4268 44.8456C81.788 44.783 80.2222 46.3279 80.2953 47.9771C80.3684 49.7204 81.6627 51.046 83.4268 51.1087Z" fill="#7A7A7C"/>
<path d="M30.4623 59.8978C30.4623 57.6536 30.4623 55.4093 30.4623 53.165C30.4623 49.5951 30.4623 46.0147 30.4623 42.4448C30.4623 41.6306 30.4623 40.806 30.4623 39.9918C30.4623 38.3529 29.0218 36.7872 27.3307 36.8602C25.6293 36.9333 24.1992 38.2381 24.1992 39.9918C24.1992 42.236 24.1992 44.4803 24.1992 46.7246C24.1992 50.2945 24.1992 53.8749 24.1992 57.4448C24.1992 58.259 24.1992 59.0836 24.1992 59.8978C24.1992 61.5367 25.6397 63.1024 27.3307 63.0294C29.0322 62.9563 30.4623 61.6619 30.4623 59.8978Z" fill="#7A7A7C"/>
<path d="M37.2891 46.8185C35.0448 46.8185 32.8005 46.8185 30.5563 46.8185C26.9864 46.8185 23.406 46.8185 19.836 46.8185C19.0218 46.8185 18.1972 46.8185 17.383 46.8185C15.7442 46.8185 14.1784 48.259 14.2515 49.95C14.3246 51.6515 15.6294 53.0815 17.383 53.0815C19.6273 53.0815 21.8715 53.0815 24.1158 53.0815C27.6857 53.0815 31.2661 53.0815 34.836 53.0815C35.6502 53.0815 36.4749 53.0815 37.2891 53.0815C38.9279 53.0815 40.4937 51.641 40.4206 49.95C40.3371 48.2486 39.0427 46.8185 37.2891 46.8185Z" fill="#7A7A7C"/>

</symbol>
<symbol id="grid" viewBox="0 0 100 100">
<path d="M22.349 28H6.65078C2.9834 28 0 25.0867 0 21.5057V6.49451C0 2.9133 2.9834 0 6.65078 0H22.349C26.0164 0 29 2.9133 29 6.49451V21.5057C29 25.0867 26.0164 28 22.349 28Z" fill="#7A7A7C"/>
<path d="M93.349 28H77.651C73.9838 28 71 25.0867 71 21.5055V6.49451C71 2.9133 73.9836 0 77.651 0H93.349C97.0164 0 100 2.9133 100 6.49451V21.5057C100 25.0867 97.0164 28 93.349 28Z" fill="#7A7A7C"/>
<path d="M57.5784 28H42.4216C38.8807 28 36 25.0867 36 21.5055V6.49451C36 2.9133 38.8807 0 42.4216 0H57.5784C61.1191 0 64 2.9133 64 6.49451V21.5057C64 25.0867 61.1193 28 57.5784 28Z" fill="#7A7A7C"/>
<path d="M22.349 64H6.65078C2.9834 64 0 61.0867 0 57.5057V42.4945C0 38.9135 2.9834 36 6.65078 36H22.349C26.0164 36 29 38.9133 29 42.4945V57.5057C29 61.0867 26.0164 64 22.349 64Z" fill="#7A7A7C"/>
<path d="M93.349 64H77.651C73.9838 64 71 61.0867 71 57.5057V42.4945C71 38.9135 73.9836 36 77.651 36H93.349C97.0162 36 100 38.9133 100 42.4945V57.5057C100 61.0867 97.0164 64 93.349 64Z" fill="#7A7A7C"/>
<path d="M57.5784 64H42.4216C38.8807 64 36 61.0867 36 57.5057V42.4945C36 38.9135 38.8807 36 42.4216 36H57.5784C61.1191 36 64 38.9133 64 42.4945V57.5057C64 61.0867 61.1193 64 57.5784 64Z" fill="#7A7A7C"/>
<path d="M22.349 100H6.65078C2.9834 100 0 97.0867 0 93.5055V78.4945C0 74.9135 2.9834 72 6.65078 72H22.349C26.0164 72 29 74.9133 29 78.4945V93.5055C29 97.0867 26.0164 100 22.349 100Z" fill="#7A7A7C"/>
<path d="M93.349 100H77.651C73.9838 100 71 97.0867 71 93.5055V78.4945C71 74.9135 73.9836 72 77.651 72H93.349C97.0162 72 100 74.9133 100 78.4945V93.5055C100 97.0867 97.0164 100 93.349 100Z" fill="#7A7A7C"/>
<path d="M57.5784 100H42.4216C38.8807 100 36 97.0867 36 93.5055V78.4945C36 74.9135 38.8807 72 42.4216 72H57.5784C61.1191 72 64 74.9133 64 78.4945V93.5055C64 97.0867 61.1193 100 57.5784 100Z" fill="#7A7A7C"/>

</symbol>
<symbol id="heart" viewBox="0 0 100 100">
<path d="M75.0433 15.4267C79.7489 15.4267 84.4556 17.22 88.0467 20.8122C95.2433 28.0067 95.2433 39.6756 88.0467 46.8722L67.63 67.2867L63.4633 71.4522L50.4356 84.4844L37.4056 71.4522L33.2389 67.2867L12.8233 46.8722C5.62778 39.6756 5.62778 28.0067 12.8233 20.8122C16.4156 17.22 21.12 15.4267 25.8278 15.4267C29.5567 15.4267 33.2878 16.5522 36.4667 18.8L36.3933 18.7278C36.3933 18.7278 36.79 19.0211 37.4433 19.5178C37.4589 19.5289 37.4756 19.5411 37.49 19.5544C40.79 22.0667 50.4344 29.6411 50.4344 32.3656C50.4344 29.6411 60.08 22.0667 63.3789 19.5544C63.3922 19.5411 63.4089 19.5289 63.4267 19.5178C64.0778 19.0211 64.4756 18.7278 64.4756 18.7278L64.4033 18.8C67.5833 16.5522 71.3133 15.4267 75.0433 15.4267ZM75.0433 9C70.0989 9 65.3489 10.4367 61.2622 13.1622C61.0578 13.28 60.8589 13.4111 60.6644 13.5544C60.6644 13.5544 60.2711 13.8444 59.62 14.34C59.5444 14.3967 59.4678 14.4544 59.3933 14.5133C55.5111 17.4733 52.6011 19.9078 50.4222 21.9489C50.1289 21.6744 49.8244 21.3956 49.5078 21.11C46.5511 18.4422 43.2022 15.8267 41.4356 14.4811C41.39 14.4456 41.3444 14.4111 41.3 14.3778C40.6233 13.8633 40.2133 13.5611 40.2133 13.5611C40.02 13.4178 39.82 13.2867 39.6156 13.1678C35.5267 10.44 30.7744 9.00111 25.8278 9.00111C19.1978 9.00111 12.9644 11.5822 8.27889 16.2689C3.58556 20.9622 1 27.2033 1 33.8433C1 40.4822 3.58556 46.7244 8.27889 51.4178L28.6944 71.8333L32.8622 76L45.8911 89.03C47.0967 90.2356 48.7322 90.9133 50.4367 90.9133C52.1411 90.9133 53.7767 90.2356 54.9822 89.03L68.0089 75.9967L72.1744 71.8322L92.5911 51.4178C97.2867 46.7222 99.8722 40.4811 99.8722 33.8422C99.8722 27.2022 97.2867 20.9611 92.5911 16.2678C87.9044 11.58 81.6733 9 75.0433 9Z" fill="#7A7A7C"/>

</symbol>
<symbol id="home" viewBox="0 0 100 100">
<path fill-rule="evenodd" clip-rule="evenodd" d="M16.9358 42.5872C18.1476 41.3754 19.7635 40.8125 21.4111 40.8125H77.6611C79.3088 40.8125 80.9247 41.3754 82.1365 42.5872C83.3483 43.799 83.9111 45.4149 83.9111 47.0625V90.8125C83.9111 92.4602 83.3483 94.076 82.1365 95.2878C80.9247 96.4997 79.3088 97.0625 77.6611 97.0625H58.9111C57.2635 97.0625 55.6476 96.4997 54.4358 95.2878C53.224 94.076 52.6611 92.4602 52.6611 90.8125V72.7088C52.6582 72.6973 52.6505 72.6717 52.632 72.6321C52.5912 72.5445 52.5162 72.4307 52.4045 72.3191C52.2929 72.2075 52.1791 72.1325 52.0916 72.0916C52.052 72.0731 52.0263 72.0654 52.0149 72.0625H47.0574C47.046 72.0654 47.0203 72.0731 46.9807 72.0916C46.8931 72.1325 46.7793 72.2075 46.6677 72.3191C46.5561 72.4307 46.4811 72.5445 46.4402 72.6321C46.4217 72.6717 46.414 72.6973 46.4111 72.7088V90.8125C46.4111 92.4602 45.8483 94.076 44.6365 95.2878C43.4247 96.4997 41.8088 97.0625 40.1611 97.0625H21.4111C19.7635 97.0625 18.1476 96.4997 16.9358 95.2878C15.724 94.076 15.1611 92.4602 15.1611 90.8125V47.0625C15.1611 45.4149 15.724 43.799 16.9358 42.5872ZM77.6611 47.0625H21.4111V90.8125H40.1611V72.6875C40.1611 70.7337 41.1066 69.0414 42.2483 67.8997C43.39 66.758 45.0823 65.8125 47.0361 65.8125H52.0361C53.99 65.8125 55.6823 66.758 56.824 67.8997C57.9657 69.0414 58.9111 70.7337 58.9111 72.6875V90.8125H77.6611V47.0625Z" fill="#7A7A7C"/>
<path fill-rule="evenodd" clip-rule="evenodd" d="M49.212 9.3062L49.2035 9.31469L15.4632 40.5558C15.4003 40.6215 15.3551 40.6775 15.3228 40.7229C15.41 40.7669 15.5557 40.8125 15.7863 40.8125H83.2863C83.5169 40.8125 83.6626 40.7669 83.7498 40.7229C83.7175 40.6775 83.6723 40.6214 83.6094 40.5557L49.8691 9.31469L49.8606 9.3062C49.8543 9.30342 49.846 9.30003 49.8355 9.29623C49.7708 9.27268 49.6657 9.25 49.5363 9.25C49.4069 9.25 49.3018 9.27268 49.2371 9.29623C49.2266 9.30003 49.2183 9.30342 49.212 9.3062ZM54.1953 4.80268C52.8571 3.49645 51.0745 3 49.5363 3C47.9981 3 46.2155 3.49645 44.8773 4.80268L11.1191 36.0603L11.0766 36.1028C9.00033 38.1791 8.40804 41.0125 9.63183 43.46C10.7738 45.744 13.1947 47.0625 15.7863 47.0625H83.2863C85.8779 47.0625 88.2988 45.744 89.4408 43.46C90.6646 41.0125 90.0723 38.1791 87.996 36.1028L87.9535 36.0603L54.1953 4.80268Z" fill="#7A7A7C"/>

</symbol>
<symbol id="music" viewBox="0 0 100 100">
<g clip-path="url(#clip0)">
<path fill-rule="evenodd" clip-rule="evenodd" d="M21.2857 78.5715C17.3408 78.5715 14.1429 81.7694 14.1429 85.7143C14.1429 89.6592 17.3408 92.8572 21.2857 92.8572C25.2306 92.8572 28.4286 89.6592 28.4286 85.7143C28.4286 81.7694 25.2306 78.5715 21.2857 78.5715ZM7 85.7143C7 77.8245 13.3959 71.4286 21.2857 71.4286C29.1755 71.4286 35.5714 77.8245 35.5714 85.7143C35.5714 93.6041 29.1755 100 21.2857 100C13.3959 100 7 93.6041 7 85.7143Z" fill="#7A7A7C"/>
<path fill-rule="evenodd" clip-rule="evenodd" d="M78.4285 64.2857C74.4836 64.2857 71.2857 67.4837 71.2857 71.4285C71.2857 75.3734 74.4836 78.5714 78.4285 78.5714C82.3734 78.5714 85.5714 75.3734 85.5714 71.4285C85.5714 67.4837 82.3734 64.2857 78.4285 64.2857ZM64.1428 71.4285C64.1428 63.5388 70.5388 57.1428 78.4285 57.1428C86.3183 57.1428 92.7142 63.5388 92.7142 71.4285C92.7142 79.3183 86.3183 85.7143 78.4285 85.7143C70.5388 85.7143 64.1428 79.3183 64.1428 71.4285Z" fill="#7A7A7C"/>
<path fill-rule="evenodd" clip-rule="evenodd" d="M91.3408 0.756441C92.2076 1.43325 92.7143 2.47169 92.7143 3.57146V71.4286C92.7143 73.401 91.1153 75 89.1429 75C87.1704 75 85.5714 73.401 85.5714 71.4286V8.14566L35.5714 20.6457V85.7143C35.5714 87.6867 33.9725 89.2857 32 89.2857C30.0276 89.2857 28.4286 87.6867 28.4286 85.7143V17.8572C28.4286 16.2184 29.5439 14.7898 31.1338 14.3924L88.2767 0.106666C89.3436 -0.160067 90.4739 0.0796303 91.3408 0.756441Z" fill="#7A7A7C"/>
<path fill-rule="evenodd" clip-rule="evenodd" d="M92.6076 27.7053C93.086 29.6188 91.9226 31.5579 90.009 32.0363L32.8662 46.322C30.9527 46.8004 29.0136 45.637 28.5352 43.7234C28.0568 41.8098 29.2203 39.8708 31.1338 39.3924L88.2766 25.1067C90.1902 24.6283 92.1292 25.7917 92.6076 27.7053Z" fill="#7A7A7C"/>
</g>
<defs>
<clipPath id="clip0">
<rect width="100" height="100" fill="white"/>
</clipPath>
</defs>

</symbol>
<symbol id="news" viewBox="0 0 100 100">
<path d="M75.9479 40.4029C79.6564 40.4029 83.3531 40.4029 87.0616 40.4029C87.8199 40.4029 88.5782 40.3792 89.3365 40.4858C89.0166 40.4384 88.7085 40.4029 88.3886 40.3555C89.0758 40.4621 89.7393 40.6398 90.3791 40.9005C90.0948 40.782 89.8104 40.6635 89.5261 40.545C90 40.7465 90.4621 40.9953 90.9005 41.2796C90.9834 41.3389 91.0663 41.3981 91.1493 41.4574C91.6469 41.7891 90.6043 40.9834 90.8531 41.2322C91.0308 41.41 91.2441 41.5758 91.4218 41.7536C91.5877 41.9194 91.7299 42.0972 91.8957 42.263C92.2986 42.7014 91.481 41.6706 91.6706 41.9668C91.7417 42.0735 91.8246 42.1801 91.8957 42.2867C92.1801 42.7251 92.4289 43.1872 92.6303 43.6612C92.5118 43.3768 92.3934 43.0924 92.2749 42.8081C92.5355 43.4479 92.7133 44.1114 92.8199 44.7986C92.7725 44.4787 92.737 44.1706 92.6896 43.8507C92.9147 45.5332 92.7725 47.2986 92.7725 48.9811C92.7725 52.4526 92.7725 55.9123 92.7725 59.3839C92.7725 63.6493 92.7725 67.9029 92.7725 72.1683C92.7725 75.8057 92.7725 79.4431 92.7725 83.0806C92.7725 84.7393 92.7844 86.41 92.7725 88.0687C92.7725 88.4597 92.7488 88.8507 92.6896 89.2299C92.737 88.91 92.7725 88.6019 92.8199 88.282C92.7133 88.9692 92.5355 89.6327 92.2749 90.2725C92.3934 89.9882 92.5118 89.7038 92.6303 89.4194C92.4289 89.9052 92.1801 90.3673 91.8957 90.8057C91.8365 90.8886 91.7772 90.9716 91.718 91.0664C91.3862 91.564 92.1919 90.5213 91.9431 90.782C91.7654 90.9716 91.6114 91.173 91.4218 91.3626C91.2559 91.5284 91.09 91.6825 90.9123 91.8365C90.8175 91.9194 90.3791 92.2631 90.9123 91.8484C91.4218 91.4455 91.019 91.7536 90.8886 91.8484C90.4502 92.1446 90 92.3815 89.5142 92.5948C89.7986 92.4763 90.0829 92.3578 90.3673 92.2393C89.7275 92.5 89.064 92.6896 88.3768 92.7962C88.6967 92.7488 89.0047 92.7133 89.3246 92.6659C88.3531 92.7962 87.346 92.7488 86.3626 92.7488C84.5379 92.7488 82.7014 92.7488 80.8768 92.7488C74.7275 92.7488 68.5782 92.7488 62.4289 92.7488C54.9882 92.7488 47.5474 92.7488 40.1066 92.7488C33.673 92.7488 27.2393 92.7488 20.8057 92.7488C17.8081 92.7488 14.7986 92.7725 11.8009 92.7488C11.3981 92.7488 10.9953 92.7251 10.5924 92.6659C10.9123 92.7133 11.2204 92.7488 11.5403 92.7962C10.8531 92.6896 10.1896 92.5119 9.54976 92.2393C9.83412 92.3578 10.1185 92.4763 10.4028 92.5948C9.91705 92.3815 9.46682 92.1446 9.02843 91.8484C8.94549 91.7891 8.86255 91.7299 8.76777 91.6706C8.27013 91.3389 9.31279 92.1446 9.05212 91.8957C8.86255 91.718 8.66113 91.5522 8.48341 91.3744C8.31753 91.2086 8.1635 91.0308 8.00947 90.8531C7.60663 90.4147 8.42416 91.4455 8.22274 91.1493C8.15165 91.0427 8.06871 90.936 7.99762 90.8294C7.71326 90.391 7.46445 89.9289 7.26303 89.4431C7.38151 89.7275 7.49999 90.0119 7.61848 90.2962C7.35781 89.6564 7.16824 88.9929 7.07345 88.3057C7.12085 88.6256 7.15639 88.9337 7.20378 89.2536C7.07345 88.2228 7.12085 87.1564 7.12085 86.1138C7.12085 84.1114 7.12085 82.109 7.12085 80.1067C7.12085 77.109 7.12085 74.0995 7.12085 71.1019C7.12085 67.4052 7.12085 63.7204 7.12085 60.0237C7.12085 55.9597 7.12085 51.8957 7.12085 47.8436C7.12085 43.7085 7.12085 39.5853 7.12085 35.4503C7.12085 31.6114 7.12085 27.7725 7.12085 23.9337C7.12085 20.6872 7.12085 17.4289 7.12085 14.1825C7.12085 11.8365 7.12085 9.50238 7.12085 7.15641C7.12085 6.04267 7.14454 4.92892 7.12085 3.81518C7.12085 3.76779 7.12085 3.72039 7.12085 3.673C5.93601 4.85784 4.75118 6.04267 3.56634 7.2275C5.97156 7.2275 8.36492 7.2275 10.7701 7.2275C16.5284 7.2275 22.2986 7.2275 28.0569 7.2275C35.0237 7.2275 42.0024 7.2275 48.9692 7.2275C55 7.2275 61.019 7.2275 67.0498 7.2275C69.9763 7.2275 72.9147 7.29859 75.8412 7.2275C75.8768 7.2275 75.9242 7.2275 75.9597 7.2275C74.7749 6.04267 73.59 4.85784 72.4052 3.673C72.4052 6.25594 72.4052 8.83888 72.4052 11.41C72.4052 17.5711 72.4052 23.7204 72.4052 29.8815C72.4052 37.3578 72.4052 44.846 72.4052 52.3223C72.4052 58.7559 72.4052 65.1896 72.4052 71.6232C72.4052 74.763 72.346 77.9029 72.4052 81.0308C72.4052 81.0782 72.4052 81.1138 72.4052 81.1612C72.4052 83.0213 74.0403 84.7986 75.9597 84.7157C77.891 84.6327 79.5142 83.1517 79.5142 81.1612C79.5142 78.5782 79.5142 75.9953 79.5142 73.4242C79.5142 67.263 79.5142 61.1138 79.5142 54.9526C79.5142 47.4763 79.5142 39.9882 79.5142 32.5119C79.5142 26.0782 79.5142 19.6446 79.5142 13.2109C79.5142 10.0711 79.5735 6.93129 79.5142 3.80333C79.5142 3.75594 79.5142 3.72039 79.5142 3.673C79.5142 1.75357 77.891 0.118499 75.9597 0.118499C73.5545 0.118499 71.1611 0.118499 68.7559 0.118499C62.9976 0.118499 57.2275 0.118499 51.4692 0.118499C44.5024 0.118499 37.5237 0.118499 30.5569 0.118499C24.5261 0.118499 18.5071 0.118499 12.4763 0.118499C9.54976 0.118499 6.61137 0.0711054 3.68483 0.118499C3.64928 0.118499 3.60189 0.118499 3.56634 0.118499C1.64691 0.118499 0.0118408 1.74172 0.0118408 3.673C0.0118408 5.1185 0.0118408 6.564 0.0118408 8.02134C0.0118408 11.7536 0.0118408 15.4739 0.0118408 19.2062C0.0118408 24.3721 0.0118408 29.5498 0.0118408 34.7157C0.0118408 40.4502 0.0118408 46.1848 0.0118408 51.9194C0.0118408 57.3578 0.0118408 62.7844 0.0118408 68.2228C0.0118408 72.4882 0.0118408 76.7536 0.0118408 81.019C0.0118408 83.2465 0.0118408 85.474 0.0118408 87.7014C0.0118408 89.9052 0.473927 92.0498 1.57582 93.9811C3.66113 97.6185 7.61848 99.8578 11.8009 99.8815C13.6611 99.8934 15.5213 99.8815 17.3815 99.8815C21.5995 99.8815 25.8175 99.8815 30.0355 99.8815C35.4976 99.8815 40.9597 99.8815 46.4218 99.8815C52.1208 99.8815 57.8081 99.8815 63.5071 99.8815C68.3531 99.8815 73.2109 99.8815 78.0569 99.8815C81.0071 99.8815 83.9573 99.8815 86.9076 99.8815C87.3341 99.8815 87.7725 99.8815 88.1991 99.8815C93.3886 99.8341 98.0332 96.3152 99.4668 91.3152C99.8934 89.8104 99.9052 88.3057 99.9052 86.7654C99.9052 85.1185 99.9052 83.4716 99.9052 81.8247C99.9052 76.5403 99.9052 71.2559 99.9052 65.9834C99.9052 60.8294 99.9052 55.6754 99.9052 50.5213C99.9052 49.0048 99.9052 47.5 99.9052 45.9834C99.9052 45.6872 99.9052 45.3792 99.9052 45.083C99.8934 43.1635 99.4313 41.3744 98.6019 39.6564C96.6706 35.6754 92.3697 33.2938 88.0332 33.282C85.7938 33.282 83.5664 33.282 81.327 33.282C79.5498 33.282 77.7607 33.282 75.9834 33.282C74.1232 33.282 72.346 34.9171 72.4289 36.8365C72.4763 38.7796 73.9573 40.4029 75.9479 40.4029Z" fill="#7A7A7C"/>
<path d="M60.071 34.9526C58.6966 34.9526 57.3222 34.9526 55.9478 34.9526C52.6421 34.9526 49.3483 34.9526 46.0426 34.9526C42.0497 34.9526 38.0568 34.9526 34.0639 34.9526C30.6161 34.9526 27.1564 34.9526 23.7085 34.9526C22.0379 34.9526 20.3554 34.9052 18.6848 34.9526C18.6611 34.9526 18.6374 34.9526 18.6137 34.9526C19.7985 36.1375 20.9834 37.3223 22.1682 38.5071C22.1682 33.2465 22.1682 27.974 22.1682 22.7133C22.1682 21.9787 22.1682 21.2323 22.1682 20.4977C20.9834 21.6825 19.7985 22.8673 18.6137 24.0522C19.9881 24.0522 21.3625 24.0522 22.7369 24.0522C26.0426 24.0522 29.3365 24.0522 32.6421 24.0522C36.635 24.0522 40.6279 24.0522 44.6208 24.0522C48.0687 24.0522 51.5284 24.0522 54.9763 24.0522C56.6469 24.0522 58.3293 24.0996 60 24.0522C60.0237 24.0522 60.0474 24.0522 60.071 24.0522C58.8862 22.8673 57.7014 21.6825 56.5165 20.4977C56.5165 25.7583 56.5165 31.0308 56.5165 36.2915C56.5165 37.0261 56.5165 37.7725 56.5165 38.5071C56.5165 40.3673 58.1516 42.1446 60.071 42.0616C62.0023 41.9787 63.6255 40.4977 63.6255 38.5071C63.6255 33.2465 63.6255 27.974 63.6255 22.7133C63.6255 21.9787 63.6255 21.2323 63.6255 20.4977C63.6255 18.5782 62.0023 16.9432 60.071 16.9432C58.6966 16.9432 57.3222 16.9432 55.9478 16.9432C52.6421 16.9432 49.3483 16.9432 46.0426 16.9432C42.0497 16.9432 38.0568 16.9432 34.0639 16.9432C30.6161 16.9432 27.1564 16.9432 23.7085 16.9432C22.0379 16.9432 20.3554 16.9076 18.6848 16.9432C18.6611 16.9432 18.6374 16.9432 18.6137 16.9432C16.6943 16.9432 15.0592 18.5664 15.0592 20.4977C15.0592 25.7583 15.0592 31.0308 15.0592 36.2915C15.0592 37.0261 15.0592 37.7725 15.0592 38.5071C15.0592 40.4266 16.6824 42.0616 18.6137 42.0616C19.9881 42.0616 21.3625 42.0616 22.7369 42.0616C26.0426 42.0616 29.3365 42.0616 32.6421 42.0616C36.635 42.0616 40.6279 42.0616 44.6208 42.0616C48.0687 42.0616 51.5284 42.0616 54.9763 42.0616C56.6469 42.0616 58.3293 42.0972 60 42.0616C60.0237 42.0616 60.0474 42.0616 60.071 42.0616C61.9312 42.0616 63.7085 40.4266 63.6255 38.5071C63.5426 36.5759 62.0616 34.9526 60.071 34.9526Z" fill="#7A7A7C"/>
<path d="M60.071 53.5545C58.6966 53.5545 57.3222 53.5545 55.9478 53.5545C52.6421 53.5545 49.3483 53.5545 46.0426 53.5545C42.0497 53.5545 38.0568 53.5545 34.0639 53.5545C30.6161 53.5545 27.1563 53.5545 23.7085 53.5545C22.0379 53.5545 20.3554 53.5189 18.6848 53.5545C18.6611 53.5545 18.6374 53.5545 18.6137 53.5545C16.7535 53.5545 14.9763 55.1896 15.0592 57.109C15.1421 59.0403 16.6232 60.6635 18.6137 60.6635C19.9881 60.6635 21.3625 60.6635 22.7369 60.6635C26.0426 60.6635 29.3364 60.6635 32.6421 60.6635C36.635 60.6635 40.6279 60.6635 44.6208 60.6635C48.0687 60.6635 51.5284 60.6635 54.9762 60.6635C56.6469 60.6635 58.3293 60.6991 59.9999 60.6635C60.0236 60.6635 60.0473 60.6635 60.071 60.6635C61.9312 60.6635 63.7085 59.0284 63.6255 57.109C63.5426 55.1777 62.0616 53.5545 60.071 53.5545Z" fill="#7A7A7C"/>
<path d="M60.071 72.8673C58.6966 72.8673 57.3222 72.8673 55.9478 72.8673C52.6421 72.8673 49.3483 72.8673 46.0426 72.8673C42.0497 72.8673 38.0568 72.8673 34.0639 72.8673C30.6161 72.8673 27.1563 72.8673 23.7085 72.8673C22.0379 72.8673 20.3554 72.8318 18.6848 72.8673C18.6611 72.8673 18.6374 72.8673 18.6137 72.8673C16.7535 72.8673 14.9763 74.5024 15.0592 76.4218C15.1421 78.3531 16.6232 79.9763 18.6137 79.9763C19.9881 79.9763 21.3625 79.9763 22.7369 79.9763C26.0426 79.9763 29.3364 79.9763 32.6421 79.9763C36.635 79.9763 40.6279 79.9763 44.6208 79.9763C48.0687 79.9763 51.5284 79.9763 54.9762 79.9763C56.6469 79.9763 58.3293 80.0119 59.9999 79.9763C60.0236 79.9763 60.0473 79.9763 60.071 79.9763C61.9312 79.9763 63.7085 78.3412 63.6255 76.4218C63.5426 74.4905 62.0616 72.8673 60.071 72.8673Z" fill="#7A7A7C"/>

</symbol>
<symbol id="pause" viewBox="0 0 8.4666665 10.583333625"><g transform="translate(0,-288.53332)"><path style="color:#000000;font-style:normal;font-variant:normal;font-weight:normal;font-stretch:normal;font-size:medium;line-height:normal;font-family:sans-serif;font-variant-ligatures:normal;font-variant-position:normal;font-variant-caps:normal;font-variant-numeric:normal;font-variant-alternates:normal;font-feature-settings:normal;text-indent:0;text-align:start;text-decoration:none;text-decoration-line:none;text-decoration-style:solid;text-decoration-color:#000000;letter-spacing:normal;word-spacing:normal;text-transform:none;writing-mode:lr-tb;direction:ltr;text-orientation:mixed;dominant-baseline:auto;baseline-shift:baseline;text-anchor:start;white-space:normal;shape-padding:0;clip-rule:nonzero;display:inline;overflow:visible;visibility:visible;opacity:1;isolation:auto;mix-blend-mode:normal;color-interpolation:sRGB;color-interpolation-filters:linearRGB;solid-color:#000000;solid-opacity:1;vector-effect:none;fill:#000000;fill-opacity:1;fill-rule:nonzero;stroke:none;stroke-width:0.5291667;stroke-linecap:round;stroke-linejoin:round;stroke-miterlimit:4;stroke-dasharray:none;stroke-dashoffset:0;stroke-opacity:1;color-rendering:auto;image-rendering:auto;shape-rendering:auto;text-rendering:auto;enable-background:accumulate" d="M 1.8520833,289.06249 A 0.26460979,0.26460979 0 0 0 1.5875,289.32707 v 6.87917 a 0.26460979,0.26460979 0 0 0 0.2645833,0.26458 h 1.5875 a 0.26460979,0.26460979 0 0 0 0.2645834,-0.26458 v -6.87917 a 0.26460979,0.26460979 0 0 0 -0.2645834,-0.26458 z m 3.175,0 A 0.26460979,0.26460979 0 0 0 4.7625,289.32707 v 6.87917 a 0.26460979,0.26460979 0 0 0 0.2645833,0.26458 h 1.5875001 a 0.26460979,0.26460979 0 0 0 0.2645833,-0.26458 v -6.87917 a 0.26460979,0.26460979 0 0 0 -0.2645833,-0.26458 z m -2.9104166,0.52917 H 3.175 v 6.35 H 2.1166667 Z m 3.175,0 H 6.35 v 6.35 H 5.2916667 Z"/></g><text x="0" y="23.4666669" fill="#000000" font-size="5px" font-weight="bold" font-family="&apos;Helvetica Neue&apos;, Helvetica, Arial-Unicode, Arial, Sans-serif">Created by Nawicon Studio</text><text x="0" y="28.4666669" fill="#000000" font-size="5px" font-weight="bold" font-family="&apos;Helvetica Neue&apos;, Helvetica, Arial-Unicode, Arial, Sans-serif">from the Noun Project</text>
</symbol>
<symbol id="pen" viewBox="0 0 100 100">
<path fill-rule="evenodd" clip-rule="evenodd" d="M20.0578 6.72731L47.3628 34.0322L51.4739 29.9211L24.1483 2.59557C21.8502 0.297531 18.2655 0.297531 15.9674 2.59557L2.01393 16.5491C-0.284104 18.8471 -0.284104 22.4319 2.01393 24.7299L29.9427 52.077L34.0102 47.9229L6.14601 20.6392L20.0578 6.72731Z" fill="#7A7A7C"/>
<path fill-rule="evenodd" clip-rule="evenodd" d="M93.2723 79.9418L65.386 52.0554L69.4971 47.9444L97.404 75.8513C99.7021 78.1494 99.7021 81.7341 97.404 84.0322L83.4506 97.9857C81.1525 100.284 77.5677 100.284 75.2697 97.9857L75.2481 97.964L75.2482 97.9639L47.9226 70.0569L52.0767 65.9894L79.3605 93.8536L93.2723 79.9418Z" fill="#7A7A7C"/>
<path d="M67.8339 86.4706L73.5894 92.2261L85.5114 80.304L79.7559 74.5486L67.8339 86.4706Z" fill="#7A7A7C"/>
<path d="M55.8682 74.2568L61.6237 80.0123L67.7902 73.8457L62.0348 68.0903L55.8682 74.2568Z" fill="#7A7A7C"/>
<path d="M20.2719 38.2446L26.0273 44.0001L37.9494 32.0781L32.1939 26.3226L20.2719 38.2446Z" fill="#7A7A7C"/>
<path d="M8.30618 26.8531L14.0616 32.6085L20.2282 26.442L14.4727 20.6865L8.30618 26.8531Z" fill="#7A7A7C"/>
<path fill-rule="evenodd" clip-rule="evenodd" d="M82.8281 7.2881C81.6378 6.09777 79.99 6.09777 78.7996 7.2881L75.3113 10.7765C74.176 11.9117 72.3354 11.9117 71.2002 10.7765C70.0649 9.64123 70.0649 7.80064 71.2002 6.66539L74.6886 3.17702C78.1494 -0.283809 83.4784 -0.283809 86.9392 3.17702L96.8229 13.0607C100.284 16.5216 100.284 21.8505 96.8229 25.3114L93.3345 28.7997C92.1993 29.935 90.3587 29.935 89.2234 28.7997C88.0882 27.6645 88.0882 25.8239 89.2234 24.6886L92.7118 21.2003C93.9022 20.0099 93.9022 18.3622 92.7118 17.1718L82.8281 7.2881Z" fill="#7A7A7C"/>
<path fill-rule="evenodd" clip-rule="evenodd" d="M66.6489 11.8195C67.7842 10.6843 69.6248 10.6843 70.76 11.8195L88.4375 29.497C89.5727 30.6323 89.5727 32.4728 88.4375 33.6081L32.9384 89.1072C31.8031 90.2424 29.9626 90.2424 28.8273 89.1072L11.1498 71.4297C10.0146 70.2945 10.0146 68.4539 11.1498 67.3187L66.6489 11.8195ZM68.7045 17.9861L17.3164 69.3742L30.8829 82.9406L82.2709 31.5525L68.7045 17.9861Z" fill="#7A7A7C"/>
<path d="M74.2852 19.6748L17.5527 76.4073L23.3082 82.1627L80.0406 25.4303L74.2852 19.6748Z" fill="#7A7A7C"/>
<path fill-rule="evenodd" clip-rule="evenodd" d="M12.1135 66.359C13.0965 66.1236 14.1313 66.4157 14.8461 67.1305L32.8694 85.1537C33.5842 85.8685 33.8763 86.9033 33.6409 87.8864C33.4054 88.8695 32.6761 89.6596 31.7151 89.973L4.97088 98.694C3.93055 99.0332 2.78785 98.7595 2.01411 97.9858C1.24036 97.212 0.966666 96.0693 1.3059 95.029L10.0268 68.2848C10.3402 67.3237 11.1304 66.5945 12.1135 66.359ZM14.0854 74.5919L8.60678 91.3931L25.4079 85.9145L14.0854 74.5919Z" fill="#7A7A7C"/>
<path d="M6.97656 87.2094L4.06958 95.9304L12.7905 93.0234L6.97656 87.2094Z" fill="#7A7A7C"/>
<path fill-rule="evenodd" clip-rule="evenodd" d="M76.3827 5.41533C77.5662 6.50019 77.6462 8.33905 76.5613 9.52253L72.0467 14.4475L85.5524 27.9532L90.4774 23.4386C91.6608 22.3537 93.4997 22.4337 94.5846 23.6172C95.6694 24.8006 95.5895 26.6395 94.406 27.7244L87.4292 34.1197C86.282 35.1714 84.5099 35.1329 83.4094 34.0324L65.9675 16.5905C64.867 15.49 64.8285 13.7179 65.8802 12.5706L72.2755 5.5939C73.3604 4.41042 75.1992 4.33046 76.3827 5.41533Z" fill="#7A7A7C"/>

</symbol>
<symbol id="play" viewBox="0 0 8.4666665 10.583333625"><g transform="translate(0,-288.53332)"><path style="color:#000000;font-style:normal;font-variant:normal;font-weight:normal;font-stretch:normal;font-size:medium;line-height:normal;font-family:sans-serif;font-variant-ligatures:normal;font-variant-position:normal;font-variant-caps:normal;font-variant-numeric:normal;font-variant-alternates:normal;font-feature-settings:normal;text-indent:0;text-align:start;text-decoration:none;text-decoration-line:none;text-decoration-style:solid;text-decoration-color:#000000;letter-spacing:normal;word-spacing:normal;text-transform:none;writing-mode:lr-tb;direction:ltr;text-orientation:mixed;dominant-baseline:auto;baseline-shift:baseline;text-anchor:start;white-space:normal;shape-padding:0;clip-rule:nonzero;display:inline;overflow:visible;visibility:visible;opacity:1;isolation:auto;mix-blend-mode:normal;color-interpolation:sRGB;color-interpolation-filters:linearRGB;solid-color:#000000;solid-opacity:1;vector-effect:none;fill:#000000;fill-opacity:1;fill-rule:evenodd;stroke:none;stroke-width:0.5291667;stroke-linecap:butt;stroke-linejoin:round;stroke-miterlimit:4;stroke-dasharray:none;stroke-dashoffset:0;stroke-opacity:1;color-rendering:auto;image-rendering:auto;shape-rendering:auto;text-rendering:auto;enable-background:accumulate" d="m 1.3317479,289.06258 a 0.26460979,0.26460979 0 0 0 -0.2733675,0.26459 v 6.87917 a 0.26460979,0.26460979 0 0 0 0.3989414,0.22789 l 5.8208333,-3.43959 a 0.26460979,0.26460979 0 0 0 0,-0.45578 l -5.8208333,-3.43958 a 0.26460979,0.26460979 0 0 0 -0.1255739,-0.0367 z m 0.2557991,0.72813 5.0363861,2.97604 -5.0363861,2.97605 z"/></g><text x="0" y="23.4666669" fill="#000000" font-size="5px" font-weight="bold" font-family="&apos;Helvetica Neue&apos;, Helvetica, Arial-Unicode, Arial, Sans-serif">Created by Nawicon Studio</text><text x="0" y="28.4666669" fill="#000000" font-size="5px" font-weight="bold" font-family="&apos;Helvetica Neue&apos;, Helvetica, Arial-Unicode, Arial, Sans-serif">from the Noun Project</text>
</symbol>
<symbol id="rewind" viewBox="0 0 8.4666665 10.583333625"><g transform="translate(0,-288.53332)"><path d="m 7.6882815,290.12105 a 0.26460979,0.26460979 0 0 1 0.2490814,0.26458 v 4.7625 a 0.26460979,0.26460979 0 0 1 -0.4004918,0.22686 l -2.5099249,-1.50585 v 1.27899 a 0.26460979,0.26460979 0 0 1 -0.4004918,0.22686 l -3.96875011,-2.38125 a 0.26460979,0.26460979 0 0 1 0,-0.45372 l 3.96875011,-2.38125 a 0.26460979,0.26460979 0 0 1 0.1250553,-0.0377 0.26460979,0.26460979 0 0 1 0.2754365,0.26458 v 1.27899 l 2.5099249,-1.50585 a 0.26460979,0.26460979 0 0 1 0.1250553,-0.0377 0.26460979,0.26460979 0 0 1 0.026352,0 z m -0.2800852,0.73174 -2.3812501,1.42885 v 0.97048 l 2.3812501,1.42886 z m -2.9104167,0 -3.1899861,1.91409 3.1899861,1.9141 z" style="color:#000000;font-style:normal;font-variant:normal;font-weight:normal;font-stretch:normal;font-size:medium;line-height:normal;font-family:sans-serif;font-variant-ligatures:normal;font-variant-position:normal;font-variant-caps:normal;font-variant-numeric:normal;font-variant-alternates:normal;font-feature-settings:normal;text-indent:0;text-align:start;text-decoration:none;text-decoration-line:none;text-decoration-style:solid;text-decoration-color:#000000;letter-spacing:normal;word-spacing:normal;text-transform:none;writing-mode:lr-tb;direction:ltr;text-orientation:mixed;dominant-baseline:auto;baseline-shift:baseline;text-anchor:start;white-space:normal;shape-padding:0;clip-rule:nonzero;display:inline;overflow:visible;visibility:visible;opacity:1;isolation:auto;mix-blend-mode:normal;color-interpolation:sRGB;color-interpolation-filters:linearRGB;solid-color:#000000;solid-opacity:1;vector-effect:none;fill:#000000;fill-opacity:1;fill-rule:evenodd;stroke:none;stroke-width:0.5291667;stroke-linecap:butt;stroke-linejoin:round;stroke-miterlimit:4;stroke-dasharray:none;stroke-dashoffset:0;stroke-opacity:1;color-rendering:auto;image-rendering:auto;shape-rendering:auto;text-rendering:auto;enable-background:accumulate"/></g><text x="0" y="23.4666669" fill="#000000" font-size="5px" font-weight="bold" font-family="&apos;Helvetica Neue&apos;, Helvetica, Arial-Unicode, Arial, Sans-serif">Created by Nawicon Studio</text><text x="0" y="28.4666669" fill="#000000" font-size="5px" font-weight="bold" font-family="&apos;Helvetica Neue&apos;, Helvetica, Arial-Unicode, Arial, Sans-serif">from the Noun Project</text>
</symbol>
<symbol id="search" viewBox="0 0 8.4666665 10.583333625"><g transform="translate(0,-288.53332)"><path style="color:#000000;font-style:normal;font-variant:normal;font-weight:normal;font-stretch:normal;font-size:medium;line-height:normal;font-family:sans-serif;font-variant-ligatures:normal;font-variant-position:normal;font-variant-caps:normal;font-variant-numeric:normal;font-variant-alternates:normal;font-feature-settings:normal;text-indent:0;text-align:start;text-decoration:none;text-decoration-line:none;text-decoration-style:solid;text-decoration-color:#000000;letter-spacing:normal;word-spacing:normal;text-transform:none;writing-mode:lr-tb;direction:ltr;text-orientation:mixed;dominant-baseline:auto;baseline-shift:baseline;text-anchor:start;white-space:normal;shape-padding:0;clip-rule:nonzero;display:inline;overflow:visible;visibility:visible;opacity:1;isolation:auto;mix-blend-mode:normal;color-interpolation:sRGB;color-interpolation-filters:linearRGB;solid-color:#000000;solid-opacity:1;vector-effect:none;fill:#000000;fill-opacity:1;fill-rule:nonzero;stroke:none;stroke-width:0.5291667;stroke-linecap:round;stroke-linejoin:round;stroke-miterlimit:4;stroke-dasharray:none;stroke-dashoffset:0;stroke-opacity:1;color-rendering:auto;image-rendering:auto;shape-rendering:auto;text-rendering:auto;enable-background:accumulate" d="m 3.6996698,289.32257 c -1.6042455,0 -2.91041669,1.30617 -2.91041669,2.91042 0,1.60424 1.30617119,2.91041 2.91041669,2.91041 0.7071069,0 1.3559075,-0.25421 1.8608675,-0.67541 l 1.6562308,1.65623 c 0.2493724,0.25977 0.6339073,-0.12476 0.3741367,-0.37413 l -1.6562282,-1.65624 c 0.4211982,-0.50496 0.6754099,-1.15376 0.6754099,-1.86086 0,-1.60425 -1.3061712,-2.91042 -2.9104167,-2.91042 z m 0,0.52917 c 1.3182626,0 2.38125,1.06298 2.38125,2.38125 0,1.31826 -1.0629874,2.38125 -2.38125,2.38125 -1.3182627,0 -2.38125,-1.06299 -2.38125,-2.38125 0,-1.31827 1.0629873,-2.38125 2.38125,-2.38125 z"/></g><text x="0" y="23.4666669" fill="#000000" font-size="5px" font-weight="bold" font-family="&apos;Helvetica Neue&apos;, Helvetica, Arial-Unicode, Arial, Sans-serif">Created by Nawicon Studio</text><text x="0" y="28.4666669" fill="#000000" font-size="5px" font-weight="bold" font-family="&apos;Helvetica Neue&apos;, Helvetica, Arial-Unicode, Arial, Sans-serif">from the Noun Project</text>
</symbol>
<symbol id="settings" viewBox="0 0 8.4666665 10.583333625"><g transform="translate(0,-288.53332)"><path style="color:#000000;font-style:normal;font-variant:normal;font-weight:normal;font-stretch:normal;font-size:medium;line-height:normal;font-family:sans-serif;font-variant-ligatures:normal;font-variant-position:normal;font-variant-caps:normal;font-variant-numeric:normal;font-variant-alternates:normal;font-feature-settings:normal;text-indent:0;text-align:start;text-decoration:none;text-decoration-line:none;text-decoration-style:solid;text-decoration-color:#000000;letter-spacing:normal;word-spacing:normal;text-transform:none;writing-mode:lr-tb;direction:ltr;text-orientation:mixed;dominant-baseline:auto;baseline-shift:baseline;text-anchor:start;white-space:normal;shape-padding:0;clip-rule:nonzero;display:inline;overflow:visible;visibility:visible;opacity:1;isolation:auto;mix-blend-mode:normal;color-interpolation:sRGB;color-interpolation-filters:linearRGB;solid-color:#000000;solid-opacity:1;vector-effect:none;fill:#000000;fill-opacity:1;fill-rule:nonzero;stroke:none;stroke-width:0.5291667;stroke-linecap:round;stroke-linejoin:round;stroke-miterlimit:4;stroke-dasharray:none;stroke-dashoffset:0;stroke-opacity:1;color-rendering:auto;image-rendering:auto;shape-rendering:auto;text-rendering:auto;enable-background:accumulate" d="m 3.4395833,289.06249 a 0.26460979,0.26460979 0 0 0 -0.2645834,0.26458 v 0.46613 c -0.1003908,0.0362 -0.1983131,0.0774 -0.2945553,0.1235 l -0.3307292,-0.33073 a 0.26460979,0.26460979 0 0 0 -0.3741367,0 L 1.05265,290.7089 a 0.26460979,0.26460979 0 0 0 0,0.37414 l 0.3296947,0.32969 c -0.045606,0.0966 -0.085791,0.19493 -0.1214411,0.29559 H 0.79374995 a 0.26460979,0.26460979 0 0 0 -0.2645833,0.26459 v 1.5875 a 0.26460979,0.26460979 0 0 0 0.2645833,0.26458 H 1.2598717 c 0.036166,0.10039 0.07742,0.19831 0.1235075,0.29456 L 1.05265,294.45027 a 0.26460979,0.26460979 0 0 0 0,0.37414 l 1.1229287,1.12293 a 0.26460979,0.26460979 0 0 0 0.3741367,0 l 0.3296947,-0.32969 c 0.096562,0.0456 0.1949265,0.0858 0.2955898,0.12144 v 0.46715 a 0.26460979,0.26460979 0 0 0 0.2645834,0.26458 h 1.5875 a 0.26460979,0.26460979 0 0 0 0.2645833,-0.26458 v -0.46612 c 0.1003909,-0.0362 0.1983132,-0.0774 0.2945554,-0.12351 l 0.3307291,0.33073 a 0.26460979,0.26460979 0 0 0 0.3741367,0 l 1.1229287,-1.12293 a 0.26460979,0.26460979 0 0 0 0,-0.37414 l -0.3296946,-0.32969 c 0.045606,-0.0966 0.085791,-0.19493 0.1214411,-0.29559 H 7.6729166 A 0.26460979,0.26460979 0 0 0 7.9375,293.56041 v -1.5875 A 0.26460979,0.26460979 0 0 0 7.6729166,291.70832 H 7.2067949 c -0.036166,-0.10039 -0.07742,-0.19831 -0.1235075,-0.29455 l 0.3307291,-0.33073 a 0.26460979,0.26460979 0 0 0 0,-0.37414 l -1.1229287,-1.12293 a 0.26460979,0.26460979 0 0 0 -0.3741367,0 l -0.3296946,0.3297 c -0.096562,-0.0456 -0.1949265,-0.0858 -0.2955899,-0.12144 v -0.46716 a 0.26460979,0.26460979 0 0 0 -0.2645833,-0.26458 z m 0.2645833,0.52917 h 1.0583333 v 0.37775 a 0.26460979,0.26460979 0 0 0 0.1927543,0.25476 c 0.1974189,0.0556 0.3880829,0.13404 0.5674069,0.23358 a 0.26460979,0.26460979 0 0 0 0.3152246,-0.0444 l 0.2661338,-0.26613 0.748792,0.74879 -0.2676843,0.26768 a 0.26460979,0.26460979 0 0 0 -0.043407,0.31678 c 0.1005787,0.17873 0.1799405,0.36878 0.2366777,0.56586 a 0.26460979,0.26460979 0 0 0 0.2542487,0.1912 h 0.3756872 v 1.05833 H 7.0305797 a 0.26460979,0.26460979 0 0 0 -0.2547646,0.19276 c -0.055592,0.19742 -0.1340353,0.38756 -0.2335795,0.56689 a 0.26460979,0.26460979 0 0 0 0.044442,0.31574 l 0.2661338,0.26613 -0.748792,0.74879 -0.2676843,-0.26768 a 0.26460979,0.26460979 0 0 0 -0.316775,-0.0434 c -0.1787287,0.10058 -0.3687763,0.17994 -0.5658565,0.23668 a 0.26460979,0.26460979 0 0 0 -0.1912038,0.25425 v 0.37569 H 3.7041666 v -0.37776 a 0.26460979,0.26460979 0 0 0 -0.1927542,-0.25476 c -0.1974189,-0.0556 -0.387567,-0.13404 -0.5668884,-0.23358 a 0.26460979,0.26460979 0 0 0 -0.3157431,0.0444 l -0.2661338,0.26613 -0.748792,-0.74879 0.2676842,-0.26768 a 0.26460979,0.26460979 0 0 0 0.043408,-0.31678 C 1.8243682,293.87415 1.7450064,293.68411 1.6882691,293.48703 A 0.26460979,0.26460979 0 0 0 1.4340204,293.29582 H 1.0583333 v -1.05833 h 0.3777535 a 0.26460979,0.26460979 0 0 0 0.2547647,-0.19275 c 0.055592,-0.19742 0.1340353,-0.38809 0.2335794,-0.56741 a 0.26460979,0.26460979 0 0 0 -0.044442,-0.31523 l -0.2661338,-0.26613 0.748792,-0.74879 0.2676842,0.26768 a 0.26460979,0.26460979 0 0 0 0.3167751,0.0434 c 0.1787287,-0.10058 0.3687762,-0.17994 0.5658564,-0.23668 a 0.26460979,0.26460979 0 0 0 0.1912038,-0.25424 z m 0.5291667,1.5875 c -0.8736171,0 -1.5875,0.71388 -1.5875,1.5875 0,0.87361 0.7138829,1.5875 1.5875,1.5875 0.8736171,0 1.5875,-0.71389 1.5875,-1.5875 0,-0.87362 -0.7138829,-1.5875 -1.5875,-1.5875 z m 0,0.52916 c 0.5876343,0 1.0583333,0.4707 1.0583333,1.05834 0,0.58763 -0.470699,1.05833 -1.0583333,1.05833 -0.5876343,0 -1.0583334,-0.4707 -1.0583334,-1.05833 0,-0.58764 0.4706991,-1.05834 1.0583334,-1.05834 z"/></g><text x="0" y="23.4666669" fill="#000000" font-size="5px" font-weight="bold" font-family="&apos;Helvetica Neue&apos;, Helvetica, Arial-Unicode, Arial, Sans-serif">Created by Nawicon Studio</text><text x="0" y="28.4666669" fill="#000000" font-size="5px" font-weight="bold" font-family="&apos;Helvetica Neue&apos;, Helvetica, Arial-Unicode, Arial, Sans-serif">from the Noun Project</text>
</symbol>
<symbol id="smile" viewBox="0 0 100 100">
<path d="M72.3685 69.737C66.4474 76.3159 58.5527 79.6054 50 79.6054C41.4474 79.6054 33.5527 75.658 27.6316 69.737C26.3158 68.4212 26.3158 66.4475 27.6316 65.1317C28.9474 63.8159 30.9211 63.8159 32.2369 65.1317C36.8421 70.3949 43.4211 73.0265 50 73.0265C56.579 73.0265 63.1579 70.3949 67.1053 65.1317C68.4211 63.8159 70.3948 63.8159 71.7106 65.1317C73.0264 66.4475 73.0264 68.4212 72.3685 69.737Z" fill="#7A7A7C"/>
<path fill-rule="evenodd" clip-rule="evenodd" d="M0.657837 50C0.657837 22.5254 22.5253 0.657898 49.9999 0.657898C77.4746 0.657898 99.342 22.5254 99.342 50C99.342 77.4746 77.4746 99.3421 49.9999 99.3421C22.5253 99.3421 0.657837 77.4746 0.657837 50ZM49.9999 7.23685C26.1588 7.23685 7.23678 26.1588 7.23678 50C7.23678 73.8412 26.1588 92.7632 49.9999 92.7632C73.8411 92.7632 92.7631 73.8412 92.7631 50C92.7631 26.1588 73.8411 7.23685 49.9999 7.23685ZM27.8194 34.3984C27.368 34.8498 26.9736 35.616 26.9736 36.8421C26.9736 38.0683 27.368 38.8345 27.8194 39.2858C28.2708 39.7372 29.0369 40.1316 30.2631 40.1316C31.4893 40.1316 32.2554 39.7372 32.7068 39.2858C33.1582 38.8345 33.5526 38.0683 33.5526 36.8421C33.5526 35.616 33.1582 34.8498 32.7068 34.3984C32.2554 33.947 31.4893 33.5526 30.2631 33.5526C29.0369 33.5526 28.2708 33.947 27.8194 34.3984ZM23.1674 29.7464C25.0186 27.8951 27.5419 26.9737 30.2631 26.9737C32.9843 26.9737 35.5076 27.8951 37.3588 29.7464C39.2101 31.5976 40.1315 34.1209 40.1315 36.8421C40.1315 39.5633 39.2101 42.0866 37.3588 43.9379C35.5076 45.7891 32.9843 46.7105 30.2631 46.7105C27.5419 46.7105 25.0186 45.7891 23.1674 43.9379C21.3161 42.0866 20.3947 39.5633 20.3947 36.8421C20.3947 34.1209 21.3161 31.5976 23.1674 29.7464ZM67.2931 34.3984C66.8417 34.8498 66.4473 35.616 66.4473 36.8421C66.4473 38.0683 66.8417 38.8345 67.2931 39.2858C67.7444 39.7372 68.5106 40.1316 69.7368 40.1316C71.427 40.1316 73.0263 38.7627 73.0263 36.8421C73.0263 35.616 72.6319 34.8498 72.1805 34.3984C71.7291 33.947 70.9629 33.5526 69.7368 33.5526C68.5106 33.5526 67.7444 33.947 67.2931 34.3984ZM62.641 29.7464C64.4923 27.8951 67.0156 26.9737 69.7368 26.9737C72.458 26.9737 74.9813 27.8951 76.8325 29.7464C78.6838 31.5976 79.6052 34.1209 79.6052 36.8421C79.6052 42.8163 74.6255 46.7105 69.7368 46.7105C67.0156 46.7105 64.4923 45.7891 62.641 43.9379C60.7898 42.0866 59.8684 39.5633 59.8684 36.8421C59.8684 34.1209 60.7898 31.5976 62.641 29.7464Z" fill="#7A7A7C"/>

</symbol>
<symbol id="soccer" viewBox="0 0 100 100">
<path fill-rule="evenodd" clip-rule="evenodd" d="M49.9999 7.23698C26.1893 7.23698 7.23678 26.7862 7.23678 50.0001C7.23678 73.1834 26.8167 92.7633 49.9999 92.7633C73.2138 92.7633 92.7631 73.8108 92.7631 50.0001C92.7631 26.7862 73.8106 7.23698 49.9999 7.23698ZM0.657837 50.0001C0.657837 23.214 22.4948 0.658028 49.9999 0.658028C77.505 0.658028 99.342 23.214 99.342 50.0001C99.342 77.5052 76.786 99.3422 49.9999 99.3422C23.1832 99.3422 0.657837 76.8169 0.657837 50.0001Z" fill="#7A7A7C"/>
<path d="M84.2105 40.1316L89.4737 26.3159C88.1579 24.3422 86.8421 22.3685 85.5263 21.0527C84.8684 21.7106 84.2105 21.7106 83.5527 23.0264L77.6316 39.4738L66.4474 44.079L53.2895 34.2106L52.6316 19.7369L66.4474 9.86849C67.1053 9.21059 67.7632 8.5527 67.7632 7.8948C65.7895 7.23691 63.1579 6.57901 61.1842 5.92112L48.6842 14.4738L37.5 5.92112C34.8684 6.57901 32.8948 7.23691 30.9211 8.5527C30.9211 9.21059 31.579 9.86849 32.2369 9.86849L46.0526 19.7369L46.7105 34.2106L34.2105 42.7632L21.0526 38.8159L15.1316 23.6843C15.1316 23.0264 14.4737 22.3685 13.8158 21.7106C12.5 23.6843 11.1842 25.658 9.86844 27.6316L15.1316 41.4474L3.94739 50.658C3.94739 53.2895 3.94739 55.2632 4.60528 57.8948C5.26318 57.8948 5.92107 57.8948 6.57897 57.2369L20.3948 46.0527L32.2369 49.3422L36.8421 63.8159L28.9474 73.6843L13.1579 74.3422C12.5 74.3422 12.5 75.0001 11.8421 75.0001C13.1579 77.6317 15.1316 79.6053 17.1053 81.579L29.6053 80.9211L34.2105 93.4211C36.1842 94.079 38.1579 94.7369 40.7895 95.3948C40.7895 94.7369 41.4474 93.4211 40.7895 92.7632L35.5263 76.9738L42.7632 68.4211H57.8948L63.1579 77.6317L56.579 92.7632C55.9211 94.079 56.579 94.7369 57.2369 96.0527C59.2105 96.0527 61.1842 95.3948 63.1579 94.7369L69.079 80.2632L84.2105 81.579C85.5263 80.2632 86.8421 78.9474 87.5 76.9738C86.8421 76.3159 86.1842 75.658 84.8684 75.658L67.7632 73.6843L63.1579 64.4738L68.4211 49.3422L80.2632 44.7369L93.4211 55.2632C94.079 55.9211 94.7369 55.9211 95.3948 55.9211C96.0526 55.9211 96.0526 55.9211 96.0526 55.9211C96.0526 53.9474 96.7105 51.9738 96.7105 50.658V50.0001L84.2105 40.1316ZM56.579 61.1843H42.7632L38.1579 48.0264L50 39.4738L61.1842 48.0264L56.579 61.1843Z" fill="#7A7A7C"/>

</symbol>
<symbol id="tools" viewBox="0 0 100 100">
<path fill-rule="evenodd" clip-rule="evenodd" d="M30.8677 8.95185C29.0366 7.68491 27.5184 8.14149 26.9209 8.73903L9.18034 26.4795C8.52877 27.8183 8.33333 28.3908 8.33333 28.7879V39.3939C8.33333 39.7909 8.52876 40.3635 9.18034 41.7023L10.0414 42.5633C11.8725 43.8302 13.3907 43.3736 13.9882 42.7761L14.0321 42.7322L37.2744 20.2404C38.4125 18.5702 38.2947 16.8387 37.8883 15.9724L30.8677 8.95185ZM21.564 3.38216C25.491 -0.544891 31.4624 -0.0774708 35.6061 3.03029L35.8214 3.19181L43.8527 11.2231L44.0608 11.5352C46.5709 15.3003 46.3005 20.8417 43.1818 25L43.0016 25.2403L19.3205 48.1575C15.3932 52.0581 9.43807 51.5861 5.30302 48.4848L5.08767 48.3233L2.94751 46.1832L2.67262 45.6334C2.63582 45.5598 2.59702 45.4827 2.55657 45.4024C1.88505 44.0691 0.757568 41.8305 0.757568 39.3939V28.7879C0.757568 26.3513 1.88505 24.1127 2.55657 22.7794C2.59702 22.699 2.63582 22.622 2.67262 22.5484L2.94751 21.9986L21.564 3.38216Z" fill="#7A7A7C"/>
<path fill-rule="evenodd" clip-rule="evenodd" d="M60.2543 50.3519L89.7998 79.8973C94.3093 84.4069 94.3093 91.3507 89.7998 95.8603C85.2902 100.37 78.3464 100.37 73.8368 95.8603L44.2914 66.3148L49.6483 60.9579L79.1937 90.5034C80.7447 92.0544 82.8918 92.0544 84.4429 90.5034C85.9939 88.9523 85.9939 86.8052 84.4429 85.2542L54.8974 55.7087L60.2543 50.3519Z" fill="#7A7A7C"/>
<path fill-rule="evenodd" clip-rule="evenodd" d="M34.091 23.4312L49.6482 38.9884L44.2913 44.3453L34.091 34.1449L28.7664 39.4696L39.1175 50.4296L33.6099 55.6313L18.2035 39.3187L34.091 23.4312Z" fill="#7A7A7C"/>
<path fill-rule="evenodd" clip-rule="evenodd" d="M6.41247 67.0185C13.9523 59.4787 25.4416 59.4787 32.9815 67.0185C40.5213 74.5584 40.5213 86.0476 32.9815 93.5875C25.4416 101.127 13.9523 101.127 6.41247 93.5875C-1.1274 86.0476 -1.1274 74.5584 6.41247 67.0185ZM27.6246 72.3754C23.0432 67.7941 16.3507 67.7941 11.7693 72.3754C7.18799 76.9567 7.18799 83.6493 11.7693 88.2306C16.3507 92.812 23.0432 92.812 27.6246 88.2306C32.2059 83.6493 32.2059 76.9567 27.6246 72.3754Z" fill="#7A7A7C"/>
<path fill-rule="evenodd" clip-rule="evenodd" d="M61.3636 18.9396C61.3636 8.51423 69.8777 0.000160217 80.303 0.000160217C83.3294 0.000160217 86.1879 0.980356 88.0576 1.91521C89.1467 2.45973 89.9076 3.49457 90.1026 4.69644C90.2977 5.89831 89.903 7.12066 89.0421 7.98163L81.8182 15.2055V16.6668H84.0371L91.261 9.44294C92.1893 8.51465 93.532 8.1332 94.8097 8.43482C96.0874 8.73644 97.1178 9.67811 97.5329 10.9235C97.5572 10.9966 97.5819 11.0704 97.6068 11.1451C98.3146 13.2647 99.2424 16.0434 99.2424 18.9396C99.2424 29.3649 90.7284 37.879 80.303 37.879C69.8777 37.879 61.3636 29.3649 61.3636 18.9396ZM78.6062 7.70374C73.1596 8.53122 68.9394 13.2744 68.9394 18.9396C68.9394 25.1809 74.0617 30.3032 80.303 30.3032C86.2611 30.3032 91.1993 25.6354 91.6354 19.7823L88.2845 23.1331C87.5741 23.8435 86.6107 24.2426 85.6061 24.2426H78.0303C75.9383 24.2426 74.2424 22.5467 74.2424 20.4547V13.6365C74.2424 12.6319 74.6415 11.6685 75.3519 10.9581L78.6062 7.70374Z" fill="#7A7A7C"/>
<path fill-rule="evenodd" clip-rule="evenodd" d="M67.7829 16.2545L69.5514 22.4443C70.6521 26.2969 74.0859 29.2884 77.7132 30.4975L83.5276 32.4357L32.4357 83.5275L30.4976 77.7131C30.3866 77.3801 30.2865 77.0698 30.192 76.7766C29.9034 75.882 29.6662 75.1463 29.3261 74.4094C28.9036 73.494 28.5206 73.0612 28.2021 72.8488C25.8146 71.2571 23.9836 70.0682 22.2872 69.5027L16.4728 67.5646L67.7829 16.2545ZM29.8638 64.8872C30.6924 65.4034 31.4769 65.9267 32.2018 66.4103C32.2699 66.4557 32.3374 66.5007 32.4043 66.5454C33.7785 67.4615 34.7462 68.6431 35.4478 69.8017L70.1422 35.1073C68.1421 33.7465 66.2998 32.003 64.8403 29.9108L29.8638 64.8872Z" fill="#7A7A7C"/>
<path d="M19.6972 84.8486C22.2076 84.8486 24.2426 82.8136 24.2426 80.3032C24.2426 77.7928 22.2076 75.7577 19.6972 75.7577C17.1868 75.7577 15.1517 77.7928 15.1517 80.3032C15.1517 82.8136 17.1868 84.8486 19.6972 84.8486Z" fill="#7A7A7C"/>

</symbol>
<symbol id="video" viewBox="0 0 100 100">
<g clip-path="url(#clip0)">
<path d="M91.7778 18.5555C89.1111 16.5555 81.5556 14 49.8889 14C16 14 11 17 9.44444 17.8889C0.888889 23 0 45.8889 0 50.4444C0.111111 56.5555 1.11111 76.8889 9.44444 81.8889C11 82.8889 16 85.7778 49.8889 85.7778C81.5556 85.7778 89 83.2222 91.7778 81.3333C99.1111 76.1111 99.8889 58 100 50.3333C100 44.3333 99.3333 23.8889 91.7778 18.5555ZM88.2222 76.3333C87.1111 77.1111 80.8889 79.6666 50 79.6666C20.1111 79.6666 13.8889 77.3333 12.6667 76.6666C9.66667 74.8889 6.44444 65.2222 6.22222 50.5555C6.44444 35.8888 9.66667 25.1111 12.6667 23.3333C13.8889 22.6666 20.1111 20.2222 50 20.2222C80.8889 20.2222 87.1111 22.7778 88.2222 23.5555C90.8889 25.4444 93.7778 35.6667 93.7778 50.4444C93.6667 65.5555 90.8889 74.4444 88.2222 76.3333ZM70.1111 47.2222L42 30C41 29.4444 39.8889 29.4444 38.8889 30C37.8889 30.5555 37.3333 31.5555 37.3333 32.6667V67.1111C37.3333 68.2222 37.8889 69.2222 38.8889 69.7778C39.3333 70 39.8889 70.2222 40.4444 70.2222C41 70.2222 41.5556 70.1111 42 69.7778L70.1111 52.5556C71 52 71.5556 51 71.5556 49.8889C71.5556 48.8889 71 47.7777 70.1111 47.2222ZM43.5556 61.6666V38.2222L62.4444 49.8889L43.5556 61.6666Z" fill="#7A7A7C"/>
</g>
<defs>
<clipPath id="clip0">
<rect width="100" height="100" fill="white"/>
</clipPath>
</defs>

</symbol></svg>